<svg width="375" height="93" viewBox="0 0 375 93" fill="none" xmlns="http://www.w3.org/2000/svg">
<path d="M5 90.4141V8.24048H74.7998V26.2013H28.2666V39.4664H49.8628C60.0444 39.4664 67.7999 41.5795 73.1293 45.8056C78.5383 50.0316 81.2428 56.136 81.2428 64.1185C81.2428 72.3359 78.2201 78.7924 72.1748 83.488C66.1295 88.1054 57.658 90.4141 46.7605 90.4141H5ZM28.2666 73.7446H45.2094C49.1071 73.7446 52.09 72.962 54.1581 71.3968C56.3058 69.8315 57.3796 67.6011 57.3796 64.7055C57.3796 58.9142 53.3229 56.0186 45.2094 56.0186H28.2666V73.7446Z" fill="#FFD564"/>
<path d="M93.4382 90.4141V8.24048H171.829V90.4141H148.443V21.5056L153.693 26.6708H111.574L116.705 21.5056V90.4141H93.4382Z" fill="#FFD564"/>
<path d="M192.91 91.8228C191.319 91.8228 189.609 91.7054 187.78 91.4706C186.03 91.2358 184.16 90.8836 182.172 90.4141L183.484 71.3968C184.598 71.6315 185.672 71.7489 186.706 71.7489C189.967 71.7489 192.433 70.4968 194.103 67.9924C195.774 65.4098 196.927 61.8098 197.564 57.1925C198.279 52.5751 198.717 47.1751 198.876 40.9925L200.069 8.24048H267.363V90.4141H244.097V21.5056L249.227 26.6708H215.461L220.234 21.2709L219.637 40.0534C219.398 48.036 218.842 55.236 217.967 61.6533C217.092 67.9924 215.7 73.4315 213.791 77.9706C211.882 82.4315 209.217 85.875 205.796 88.301C202.456 90.6488 198.16 91.8228 192.91 91.8228Z" fill="#FFD564"/>
<path d="M276.877 90.4141L313.746 8.24048H337.012L374 90.4141H349.421L320.547 19.6274H329.853L300.979 90.4141H276.877ZM297.041 74.4489L303.126 57.3099H343.932L350.018 74.4489H297.041Z" fill="#FFD564"/>
<path fill-rule="evenodd" clip-rule="evenodd" d="M4 91.5979V8.24048H75.3953V27.6856H28.866V39.3203H49.6597C59.9361 39.3203 67.8984 41.4409 73.4245 45.8016C79.0574 50.1835 81.8378 56.5047 81.8378 64.6412C81.8378 73.0369 78.7211 79.6993 72.466 84.5355L72.4609 84.5395C66.2269 89.279 57.5587 91.5979 46.5577 91.5979H4ZM72.9243 46.4139C67.5953 42.2076 59.8404 40.1045 49.6597 40.1045H28.0653V26.9014H74.5946V9.02465H4.80071V90.8137H46.5577C57.4543 90.8137 65.925 88.5158 71.9699 83.9201C78.0147 79.2464 81.0371 72.8201 81.0371 64.6412C81.0371 56.696 78.3328 50.6202 72.9243 46.4139ZM53.4723 71.2595L53.4781 71.2553C55.399 69.8618 56.3752 67.8881 56.3752 65.2254C56.3752 62.5446 55.446 60.6419 53.6634 59.3754C51.8332 58.0751 48.9902 57.3633 45.0068 57.3633H28.866V73.438H45.0068C48.8108 73.438 51.5926 72.6755 53.4665 71.2638L53.4723 71.2595ZM28.0653 74.2222V56.5791H45.0068C53.1196 56.5791 57.1759 59.4612 57.1759 65.2254C57.1759 68.1075 56.1022 70.3275 53.9547 71.8854C51.8867 73.4433 48.9041 74.2222 45.0068 74.2222H28.0653ZM92.4307 91.5979V8.24048H172.416V91.5979H147.431V28.1529H117.297V91.5979H92.4307ZM116.496 27.3688H148.231V90.8137H171.615V9.02465H93.2315V90.8137H116.496V27.3688ZM187.461 92.6429L187.457 92.6423C185.677 92.4045 183.781 92.0488 181.771 91.5762L181.113 91.4216L182.534 70.9289L183.438 71.1186C184.502 71.3419 185.519 71.4517 186.491 71.4517C189.503 71.4517 191.706 70.3219 193.216 68.0714C194.798 65.6335 195.927 62.1759 196.555 57.6422L196.556 57.6357L196.557 57.6293C197.266 53.0746 197.702 47.7341 197.86 41.6036L197.86 41.5953L199.081 8.24048H267.943V91.5979H243.077V28.1529H220.621L220.22 40.7118C219.981 48.6782 219.422 55.8722 218.543 62.2918L218.543 62.2931C217.661 68.6503 216.255 74.1328 214.314 78.7283L214.312 78.7328C212.355 83.2831 209.607 86.8345 206.048 89.3467L206.046 89.3487C202.536 91.804 198.065 93 192.695 93C191.065 93 189.32 92.8803 187.461 92.6429ZM219.845 27.3688H243.877V90.8137H267.142V9.02465H199.854L198.66 41.6234C198.501 47.7771 198.064 53.1518 197.348 57.7476C196.712 62.3433 195.559 65.9265 193.888 68.497C192.218 70.9896 189.752 72.2359 186.491 72.2359C185.705 72.2359 184.895 72.1683 184.062 72.033C183.801 71.9905 183.536 71.9413 183.27 71.8854L181.958 90.8137C183.946 91.2811 185.815 91.6316 187.565 91.8653C189.394 92.099 191.104 92.2158 192.695 92.2158C197.945 92.2158 202.24 91.0474 205.58 88.7105C209 86.2958 211.665 82.8685 213.574 78.4285C215.483 73.9106 216.874 68.497 217.749 62.1875C218.624 55.8002 219.181 48.6339 219.42 40.6887L219.845 27.3688ZM275.426 91.5979L312.998 8.24048H337.306L375 91.5979H348.651L342.139 75.7074H307.808L301.296 91.5979H275.426ZM307.266 74.9233H342.681L349.193 90.8137H373.77L336.785 9.02465H313.52L276.655 90.8137H300.755L307.266 74.9233ZM324.974 31.7127L314.257 57.8644H335.69L324.974 31.7127ZM334.506 57.0802L324.974 33.8181L315.441 57.0802H334.506Z" fill="#FFD562"/>
<path d="M0 27.0759H34V38.8481H0V27.0759Z" fill="#01030D"/>
<path d="M144 42.3798H178V55.3291H144V42.3798Z" fill="#01030D"/>
<path d="M231 32.962V1.14441e-05H243V32.962H231Z" fill="#01030D"/>
<path d="M335 57.6835L287 57.6835V45.9114L323 45.9114L335 57.6835Z" fill="#01030D"/>
</svg>
