<svg width="350" height="350" viewBox="0 0 350 350" fill="none" xmlns="http://www.w3.org/2000/svg">
<path d="M114.399 346.019C113.815 345.783 113.635 345.366 113.859 344.768L117.746 334.396C117.974 333.789 118.379 333.604 118.964 333.84C119.54 334.072 119.715 334.492 119.487 335.098L119.243 335.75C120.447 335.037 121.917 335.032 123.654 335.732L124.317 336C125.857 336.621 126.851 337.461 127.3 338.519C127.745 339.586 127.669 340.918 127.07 342.516L124.601 349.103C124.377 349.701 123.977 349.884 123.401 349.651C122.816 349.415 122.636 348.998 122.86 348.4L125.329 341.813C125.744 340.707 125.83 339.869 125.589 339.301C125.34 338.728 124.69 338.23 123.64 337.807L122.977 337.539C121.934 337.118 121.008 336.91 120.198 336.913C119.385 336.924 118.815 337.208 118.488 337.765L115.6 345.471C115.376 346.069 114.976 346.251 114.399 346.019Z" fill="#503073"/>
<path d="M97.1731 330.349C97.3544 330.462 97.4723 330.634 97.5268 330.863C97.5814 331.092 97.5539 331.301 97.4443 331.489C97.3304 331.685 97.1651 331.807 96.9485 331.856C96.7275 331.913 96.5263 331.884 96.3451 331.771L90.3413 328.006C90.1527 327.888 90.0348 327.717 89.9876 327.492C89.9287 327.27 89.9562 327.061 90.0701 326.866C90.1796 326.678 90.3449 326.555 90.5659 326.499C90.7797 326.438 90.9808 326.466 91.1694 326.584L97.1731 330.349Z" fill="#503073"/>
<path d="M75.136 314.705L75.6018 314.146C76.3392 313.262 76.6864 312.51 76.6433 311.89C76.6002 311.27 76.1463 310.572 75.2816 309.795L73.7058 308.38C73.0011 307.747 72.4217 307.361 71.9675 307.22C71.5014 307.08 71.0567 307.164 70.6335 307.469C70.3993 307.643 70.1778 307.74 69.9691 307.762C69.754 307.778 69.5344 307.686 69.3102 307.484C69.0732 307.271 68.9492 307.044 68.9384 306.802C68.9221 306.566 69.0357 306.342 69.2792 306.131C70.094 305.41 70.9716 305.116 71.9119 305.252C72.8403 305.388 73.8458 305.942 74.9283 306.915L76.5041 308.33C77.7532 309.452 78.421 310.592 78.5075 311.751C78.5876 312.904 78.0898 314.126 77.0142 315.415L75.1014 317.708C74.0036 319.024 72.9018 319.72 71.796 319.797C70.6782 319.874 69.5003 319.345 68.2623 318.21L66.6865 316.795C65.4374 315.673 64.7728 314.536 64.6927 313.382C64.6071 312.236 65.1076 311.011 66.1943 309.708L67.026 308.711C67.4363 308.22 67.8752 308.184 68.3428 308.604L75.136 314.705ZM69.4848 316.745C70.3385 317.535 71.0641 317.907 71.6616 317.863C72.2591 317.818 72.9349 317.344 73.6889 316.44L73.9135 316.17L67.8313 310.708L67.6068 310.977C66.8583 311.874 66.5083 312.63 66.5569 313.243C66.5936 313.857 67.0443 314.553 67.9091 315.329L69.4848 316.745Z" fill="#503073"/>
<path d="M59.8041 284.308C60.539 285.274 60.8548 286.185 60.7515 287.043C60.6496 287.888 60.1299 288.694 59.1923 289.462C58.7069 289.86 58.2726 289.807 57.8894 289.303C57.5009 288.793 57.5494 288.339 58.0348 287.941C58.5668 287.505 58.8536 287.13 58.8953 286.816C58.9384 286.49 58.7525 286.054 58.3378 285.509L55.393 281.638C54.9783 281.093 54.613 280.804 54.2969 280.772C53.9876 280.734 53.5669 280.933 53.0349 281.369L50.4316 283.501C51.3065 283.445 52.0523 283.624 52.6689 284.037C53.2855 284.451 53.8563 285.002 54.3812 285.692L55.0426 286.562C56.0557 287.893 56.4986 289.121 56.3711 290.244C56.2437 291.368 55.5449 292.45 54.2748 293.49L48.8387 297.943C48.3466 298.346 47.909 298.296 47.5258 297.792C47.1373 297.282 47.1892 296.825 47.6812 296.422L53.1174 291.969C53.9818 291.261 54.4477 290.61 54.5149 290.018C54.5769 289.418 54.264 288.667 53.5764 287.763L52.915 286.893C52.0331 285.734 51.2039 285.041 50.4273 284.815C49.6455 284.582 48.8755 284.776 48.1175 285.397L42.6813 289.849C42.1893 290.252 41.7516 290.202 41.3684 289.698C40.98 289.188 41.0318 288.731 41.5239 288.328L51.8775 279.847C52.8151 279.079 53.6944 278.745 54.5154 278.846C55.3431 278.94 56.1244 279.471 56.8593 280.437L59.8041 284.308Z" fill="#503073"/>
<path d="M34.1198 265.998L34.7513 265.658C35.7512 265.119 36.3415 264.553 36.5221 263.96C36.7027 263.367 36.5293 262.544 36.0021 261.491L35.0413 259.572C34.6116 258.714 34.2108 258.133 33.8387 257.828C33.4551 257.52 33.0123 257.427 32.5102 257.549C32.2308 257.62 31.9903 257.626 31.7886 257.566C31.583 257.499 31.4118 257.329 31.2751 257.056C31.1306 256.767 31.0964 256.508 31.1726 256.279C31.2412 256.054 31.4263 255.889 31.7279 255.786C32.7418 255.428 33.6617 255.492 34.4874 255.978C35.3017 256.46 36.0389 257.36 36.699 258.679L37.6598 260.598C38.4214 262.119 38.6362 263.435 38.3041 264.545C37.9682 265.647 37.071 266.591 35.6125 267.378L33.0189 268.776C31.5303 269.578 30.2586 269.803 29.2037 269.451C28.1374 269.094 27.231 268.151 26.4844 266.622L25.5236 264.703C24.762 263.182 24.5492 261.87 24.8851 260.768C25.2135 259.669 26.1145 258.723 27.588 257.929L28.7157 257.321C29.272 257.021 29.6927 257.156 29.9778 257.725L34.1198 265.998ZM28.1421 265.729C28.6544 266.79 29.1961 267.414 29.7672 267.601C30.3384 267.789 31.1352 267.607 32.1577 267.056L32.4621 266.892L28.7537 259.485L28.4492 259.649C27.4343 260.196 26.8403 260.764 26.6672 261.352C26.4827 261.937 26.654 262.756 27.1813 263.809L28.1421 265.729Z" fill="#503073"/>
<path d="M7.52193 211.964C7.40605 211.325 7.65201 210.946 8.2598 210.827L18.8004 208.77C19.4166 208.65 19.7826 208.91 19.8984 209.549C20.0127 210.18 19.7618 210.555 19.1457 210.675L18.4838 210.805C19.7025 211.488 20.4841 212.78 20.8286 214.681L20.9601 215.406C21.2655 217.091 21.1038 218.411 20.4751 219.365C19.8381 220.322 18.7078 220.958 17.0843 221.275L10.3902 222.581C9.78241 222.7 9.42136 222.444 9.30705 221.813C9.19117 221.174 9.43713 220.795 10.0449 220.676L16.739 219.37C17.863 219.151 18.594 218.784 18.932 218.271C19.2684 217.749 19.3325 216.914 19.1242 215.765L18.9927 215.039C18.786 213.899 18.4673 212.972 18.0365 212.26C17.5974 211.55 17.0638 211.198 16.4356 211.204L8.60508 212.732C7.99729 212.851 7.63624 212.595 7.52193 211.964Z" fill="#503073"/>
<path d="M11.2399 188.509C11.2427 188.728 11.1647 188.923 11.0058 189.092C10.847 189.261 10.6617 189.347 10.4499 189.35C10.2297 189.353 10.0423 189.272 9.88764 189.107C9.72456 188.943 9.64161 188.75 9.63881 188.531L9.54588 181.253C9.54297 181.024 9.62097 180.829 9.7799 180.669C9.93025 180.5 10.1156 180.414 10.3358 180.411C10.5476 180.408 10.735 180.489 10.8981 180.654C11.0611 180.81 11.144 181.002 11.1469 181.231L11.2399 188.509Z" fill="#503073"/>
<path d="M18.0199 162.001C17.9426 162.646 17.5929 162.929 16.9708 162.849L7.26072 161.594L7.14002 162.601C7.06269 163.247 6.71296 163.53 6.09085 163.449C5.47714 163.37 5.20895 163.007 5.28628 162.362L5.40699 161.354L4.96562 161.297C3.35148 161.089 2.20997 160.534 1.54108 159.632C0.863781 158.73 0.625455 157.441 0.826102 155.766C0.89403 155.199 1.23485 154.955 1.84856 155.034C2.47067 155.115 2.74777 155.439 2.67984 156.006C2.54294 157.148 2.65065 157.96 3.00298 158.439C3.35531 158.919 4.08633 159.23 5.19605 159.374L5.63742 159.431L5.98228 156.552C6.05961 155.906 6.40513 155.623 7.01884 155.703C7.64096 155.783 7.91335 156.146 7.83602 156.791L7.49115 159.67L17.2012 160.925C17.8233 161.005 18.0962 161.364 18.0199 162.001Z" fill="#503073"/>
<path d="M11.4112 129.348C11.5844 128.723 11.9682 128.499 12.5626 128.676L22.8703 131.752C23.4728 131.931 23.6875 132.334 23.5142 132.959C23.3433 133.576 22.9566 133.794 22.3541 133.614L21.7068 133.421C22.4997 134.6 22.6386 136.119 22.1236 137.977L21.9269 138.687C21.4704 140.335 20.7546 141.438 19.7797 141.998C18.7966 142.555 17.5112 142.597 15.9235 142.123L9.37739 140.17C8.78302 139.993 8.57129 139.596 8.7422 138.979C8.91545 138.354 9.29926 138.13 9.89362 138.307L16.4398 140.26C17.5389 140.588 18.3506 140.602 18.8748 140.301C19.4013 139.992 19.8202 139.275 20.1316 138.151L20.3283 137.442C20.6373 136.327 20.7535 135.35 20.6769 134.514C20.5922 133.674 20.2678 133.111 19.7039 132.824L12.0464 130.539C11.452 130.362 11.2403 129.965 11.4112 129.348Z" fill="#503073"/>
<path d="M32.4803 108.332C31.7854 109.868 30.9252 110.828 29.8997 111.212C28.8742 111.596 27.6253 111.43 26.1529 110.712L20.7464 108.078L20.1793 109.332C19.9129 109.921 19.4959 110.077 18.9285 109.8C18.3686 109.528 18.2219 109.097 18.4884 108.508L19.0554 107.255L17.1114 106.308C16.5439 106.031 16.3916 105.602 16.6544 105.022C16.9209 104.433 17.3378 104.276 17.9053 104.553L19.8493 105.5L21.1293 102.671C21.3921 102.09 21.8034 101.936 22.3633 102.209C22.9308 102.485 23.0831 102.914 22.8203 103.495L21.5403 106.324L26.9468 108.958C27.9591 109.451 28.7357 109.596 29.2766 109.393C29.8134 109.179 30.3177 108.551 30.7894 107.508C30.919 107.222 31.087 107.037 31.2934 106.953C31.4922 106.865 31.7373 106.892 32.0287 107.034C32.5962 107.311 32.7467 107.743 32.4803 108.332Z" fill="#503073"/>
<path d="M34.7268 78.0519C35.0797 77.5142 35.5117 77.426 36.0229 77.7872L44.8877 84.0519C45.4058 84.4181 45.4885 84.87 45.1356 85.4077C44.7874 85.9381 44.3543 86.0202 43.8361 85.654L43.2795 85.2606C43.6775 86.6374 43.352 88.1251 42.3029 89.7236L41.9023 90.3339C40.9723 91.7507 39.96 92.5669 38.8653 92.7824C37.7636 92.993 36.53 92.6158 35.1646 91.6508L29.5348 87.6723C29.0236 87.3111 28.9421 86.8653 29.2903 86.3349C29.6432 85.7972 30.0752 85.709 30.5863 86.0702L36.2161 90.0487C37.1614 90.7168 37.9283 90.9929 38.5169 90.877C39.1102 90.7539 39.724 90.2091 40.3583 89.2428L40.7589 88.6324C41.3884 87.6734 41.7928 86.7839 41.9721 85.964C42.1445 85.1392 42.0061 84.499 41.5569 84.0433L34.9713 79.3894C34.4602 79.0281 34.3787 78.5823 34.7268 78.0519Z" fill="#503073"/>
<path d="M58.1089 68.1598C57.6772 68.6315 57.2341 68.6434 56.7795 68.1954L49.0023 60.5316C48.5538 60.0897 48.5454 59.6329 48.9772 59.1612C49.403 58.6959 49.8402 58.6842 50.2887 59.1261L51.247 60.0704C51.0451 59.1804 51.0772 58.3028 51.3433 57.4376C51.6152 56.566 52.1129 55.735 52.8363 54.9446C53.268 54.4729 53.7081 54.458 54.1566 54.8999C54.6112 55.3478 54.6226 55.8077 54.1909 56.2794C53.1699 57.3949 52.6032 58.4609 52.4907 59.4775C52.372 60.488 52.6608 61.3788 53.3571 62.1498L58.0659 66.7899C58.5204 67.2379 58.5348 67.6945 58.1089 68.1598Z" fill="#503073"/>
<path d="M70.1662 47.8089L70.5982 48.3957C71.2821 49.3249 71.9209 49.8307 72.5147 49.9132C73.1084 49.9957 73.8598 49.6768 74.7687 48.9565L76.425 47.6439C77.1656 47.0569 77.6484 46.5471 77.8735 46.1143C78.1002 45.6691 78.1124 45.2004 77.91 44.7082C77.7941 44.435 77.7472 44.1901 77.7691 43.9737C77.7977 43.7519 77.9298 43.5476 78.1655 43.3609C78.4146 43.1634 78.6545 43.0839 78.8853 43.1222C79.1109 43.1536 79.2987 43.3145 79.4485 43.605C79.9634 44.5797 80.0612 45.5309 79.742 46.4586C79.4244 47.374 78.6967 48.2826 77.5588 49.1843L75.9026 50.497C74.5897 51.5374 73.3777 51.9836 72.2666 51.8355C71.1622 51.682 70.1112 50.9276 69.1136 49.5722L67.3395 47.162C66.3214 45.7787 65.8888 44.5176 66.0419 43.3787C66.1965 42.2274 66.9354 41.1385 68.2586 40.112L69.9149 38.7993C71.2278 37.7589 72.4364 37.3154 73.5408 37.4688C74.64 37.6153 75.6936 38.3732 76.7014 39.7425L77.4728 40.7905C77.8533 41.3074 77.7978 41.7607 77.3063 42.1502L70.1662 47.8089ZM69.3925 41.6524C68.4733 42.3588 67.9739 43.02 67.8944 43.6361C67.8148 44.2522 68.1247 45.0353 68.8241 45.9855L69.0324 46.2684L75.4251 41.202L75.2169 40.9191C74.5227 39.9759 73.8813 39.4666 73.2926 39.3911C72.7056 39.3032 71.9577 39.6195 71.0487 40.3398L69.3925 41.6524Z" fill="#503073"/>
<path d="M116.881 11.3159C117.468 11.0873 117.87 11.2735 118.087 11.8743L121.855 22.2939C122.076 22.9029 121.892 23.3217 121.305 23.5503C120.726 23.7758 120.327 23.584 120.107 22.9749L119.87 22.3206C119.431 23.684 118.339 24.7054 116.594 25.3849L115.928 25.6444C114.381 26.2467 113.1 26.3087 112.086 25.8306C111.068 25.3442 110.27 24.2985 109.689 22.6936L107.296 16.0764C107.079 15.4756 107.259 15.0624 107.838 14.837C108.425 14.6084 108.828 14.7945 109.045 15.3953L111.438 22.0125C111.84 23.1236 112.314 23.8077 112.859 24.0648C113.412 24.3188 114.216 24.2404 115.271 23.8296L115.938 23.5702C116.985 23.1625 117.809 22.6771 118.411 22.1142C119.01 21.543 119.252 20.9369 119.138 20.296L116.338 12.5553C116.121 11.9545 116.302 11.5414 116.881 11.3159Z" fill="#503073"/>
<path d="M139.788 11.0759C139.58 11.1167 139.382 11.0704 139.194 10.9372C139.006 10.8041 138.892 10.6295 138.853 10.4135C138.812 10.1889 138.856 9.98339 138.986 9.79695C139.115 9.60187 139.283 9.48397 139.491 9.44325L146.384 8.09463C146.601 8.05228 146.799 8.09851 146.979 8.23333C147.165 8.35788 147.279 8.53245 147.319 8.75706C147.359 8.97302 147.314 9.17854 147.186 9.37362C147.066 9.56707 146.897 9.68497 146.681 9.72732L139.788 11.0759Z" fill="#503073"/>
<path d="M166.263 7.48696L166.275 8.22529C166.293 9.39431 166.518 10.1949 166.948 10.6272C167.379 11.0595 168.166 11.2658 169.309 11.2463L171.393 11.2108C172.325 11.1949 173.005 11.0821 173.434 10.8726C173.871 10.6541 174.149 10.2845 174.268 9.76377C174.331 9.47255 174.434 9.24661 174.575 9.08594C174.725 8.92513 174.948 8.84219 175.245 8.83713C175.558 8.83178 175.797 8.91563 175.96 9.08868C176.124 9.25293 176.183 9.4981 176.137 9.82419C175.994 10.9256 175.528 11.7512 174.74 12.301C173.961 12.8418 172.855 13.1244 171.424 13.1489L169.34 13.1844C167.688 13.2126 166.458 12.8248 165.649 12.0209C164.848 11.2169 164.434 9.96235 164.407 8.25716L164.359 5.22475C164.331 3.4844 164.705 2.20319 165.48 1.3811C166.263 0.55008 167.481 0.129266 169.133 0.118659L171.217 0.0831015C172.869 0.0549155 174.095 0.442817 174.896 1.24681C175.696 2.04201 176.11 3.30099 176.138 5.02376L176.158 6.3422C176.169 6.99263 175.865 7.32312 175.246 7.33367L166.263 7.48696ZM169.164 2.05677C168.02 2.0587 167.24 2.28302 166.823 2.72973C166.407 3.17644 166.208 3.99749 166.227 5.19287L166.232 5.54885L174.275 5.41161L174.27 5.05563C174.251 3.86903 174.026 3.064 173.596 2.64054C173.174 2.20814 172.391 2.0017 171.248 2.02121L169.164 2.05677Z" fill="#503073"/>
<path d="M197.223 19.5317C196.054 19.3203 195.233 18.8593 194.759 18.1489C194.292 17.4487 194.161 16.488 194.366 15.2669C194.473 14.6348 194.83 14.3738 195.44 14.484C196.057 14.5958 196.313 14.9678 196.207 15.6C196.09 16.2928 196.118 16.7706 196.288 17.0335C196.466 17.3066 196.885 17.5028 197.544 17.6221L202.226 18.4694C202.885 18.5887 203.343 18.5511 203.599 18.3565C203.854 18.1706 204.04 17.7313 204.156 17.0385L204.726 13.648C204.11 14.295 203.439 14.6779 202.714 14.7965C201.989 14.9151 201.209 14.899 200.375 14.7479L199.323 14.5576C197.712 14.2662 196.593 13.6577 195.966 12.7322C195.339 11.8067 195.165 10.5169 195.443 8.8628L196.633 1.78317C196.74 1.14232 197.099 0.877024 197.708 0.987272C198.326 1.09903 198.581 1.47533 198.473 2.11618L197.283 9.19581C197.094 10.3216 197.165 11.1286 197.495 11.6168C197.834 12.1065 198.551 12.4502 199.644 12.6481L200.696 12.8384C202.098 13.0921 203.161 13.0346 203.885 12.6659C204.617 12.2988 205.067 11.6216 205.233 10.6343L206.422 3.55469C206.53 2.91385 206.889 2.64854 207.498 2.75879C208.115 2.87055 208.37 3.24686 208.263 3.8877L205.997 17.3715C205.791 18.5926 205.351 19.4498 204.674 19.9431C203.997 20.4451 203.073 20.5904 201.905 20.3789L197.223 19.5317Z" fill="#503073"/>
<path d="M228.13 15.4057L227.878 16.0964C227.479 17.1899 227.403 18.0199 227.649 18.5866C227.896 19.1533 228.554 19.6466 229.623 20.0666L231.572 20.8319C232.444 21.1742 233.116 21.3301 233.589 21.2996C234.073 21.2641 234.463 21.0271 234.759 20.5887C234.921 20.3423 235.097 20.1715 235.286 20.0764C235.482 19.9844 235.719 19.9929 235.996 20.1018C236.29 20.2169 236.482 20.3862 236.572 20.6098C236.666 20.8251 236.633 21.0755 236.475 21.3611C235.949 22.3297 235.223 22.9185 234.295 23.1276C233.378 23.3316 232.25 23.1707 230.911 22.6449L228.962 21.8795C227.417 21.2728 226.412 20.4409 225.946 19.3839C225.487 18.3299 225.549 17.0054 226.131 15.4103L227.165 12.5738C227.759 10.9459 228.562 9.89839 229.575 9.43132C230.599 8.95915 231.88 9.03462 233.419 9.65775L235.368 10.4231C236.913 11.0298 237.915 11.8601 238.373 12.9141C238.834 13.9598 238.771 15.2885 238.183 16.8999L237.733 18.1332C237.512 18.7416 237.111 18.9323 236.533 18.7052L228.13 15.4057ZM232.758 11.4707C231.694 11.0342 230.889 10.9437 230.343 11.1993C229.797 11.4548 229.32 12.1417 228.913 13.2598L228.791 13.5928L236.315 16.5469L236.436 16.2139C236.841 15.104 236.919 14.2698 236.669 13.7113C236.431 13.1478 235.777 12.656 234.707 12.236L232.758 11.4707Z" fill="#503073"/>
<path d="M282.674 37.2718C283.171 37.6681 283.231 38.1207 282.855 38.6296L276.321 47.4556C275.939 47.9715 275.5 48.0313 275.003 47.635C274.512 47.2441 274.458 46.7907 274.84 46.2748L275.25 45.7206C273.903 46.0544 272.49 45.6323 271.012 44.4542L270.447 44.0044C269.137 42.9602 268.41 41.8649 268.265 40.7185C268.125 39.5652 268.558 38.3088 269.565 36.9493L273.714 31.3442C274.091 30.8353 274.524 30.7763 275.015 31.1672C275.512 31.5634 275.572 32.016 275.195 32.525L271.046 38.1301C270.35 39.0713 270.04 39.85 270.118 40.4663C270.203 41.088 270.692 41.755 271.585 42.4672L272.15 42.917C273.037 43.6238 273.869 44.0936 274.648 44.3261C275.432 44.5518 276.056 44.4449 276.52 44.0056L281.373 37.4488C281.75 36.9399 282.184 36.8809 282.674 37.2718Z" fill="#503073"/>
<path d="M294.976 57.3241C294.833 57.1623 294.766 56.9634 294.775 56.7274C294.785 56.4914 294.868 56.299 295.024 56.1503C295.186 55.9957 295.378 55.9263 295.599 55.9423C295.826 55.9522 296.012 56.0381 296.155 56.2L300.901 61.5596C301.05 61.7279 301.117 61.9268 301.102 62.1564C301.098 62.3864 301.016 62.5788 300.853 62.7334C300.697 62.8821 300.506 62.9515 300.278 62.9415C300.057 62.938 299.871 62.8521 299.722 62.6838L294.976 57.3241Z" fill="#503073"/>
<path d="M306.959 81.7717C306.602 81.2371 306.681 80.7844 307.196 80.4139L315.238 74.6297L314.68 73.7952C314.323 73.2606 314.402 72.8079 314.918 72.4374C315.426 72.0718 315.859 72.1563 316.216 72.6909L316.773 73.5254L317.139 73.2625C318.476 72.301 319.683 71.9247 320.76 72.1336C321.845 72.3376 322.851 73.1332 323.777 74.5203C324.091 74.9899 323.994 75.4075 323.485 75.7731C322.97 76.1437 322.556 76.0942 322.242 75.6246C321.61 74.6781 321.008 74.1481 320.438 74.0344C319.867 73.9208 319.122 74.1945 318.203 74.8556L317.837 75.1185L319.43 77.5027C319.787 78.0373 319.712 78.4874 319.203 78.853C318.688 79.2236 318.252 79.1416 317.895 78.6069L316.302 76.2227L308.26 82.0069C307.745 82.3775 307.311 82.2991 306.959 81.7717Z" fill="#503073"/>
<path d="M332.866 101.531C333.139 102.117 332.996 102.55 332.44 102.829L322.781 107.668C322.217 107.951 321.798 107.8 321.526 107.214C321.257 106.636 321.405 106.206 321.969 105.923L322.576 105.619C321.227 105.289 320.148 104.254 319.337 102.512L319.028 101.847C318.309 100.303 318.134 98.9858 318.5 97.8941C318.875 96.7985 319.806 95.878 321.294 95.1325L327.427 92.0589C327.984 91.7798 328.397 91.9292 328.666 92.5071C328.939 93.0928 328.796 93.5253 328.239 93.8044L322.106 96.878C321.076 97.3941 320.462 97.9456 320.265 98.5326C320.072 99.1274 320.22 99.9513 320.71 101.004L321.019 101.669C321.506 102.714 322.046 103.522 322.641 104.093C323.244 104.659 323.847 104.855 324.452 104.679L331.627 101.083C332.184 100.804 332.597 100.953 332.866 101.531Z" fill="#503073"/>
<path d="M330.669 131.771C330.2 130.145 330.224 128.835 330.741 127.839C331.258 126.843 332.296 126.103 333.854 125.619L339.576 123.841L339.193 122.515C339.014 121.892 339.224 121.487 339.824 121.3C340.417 121.116 340.803 121.336 340.983 121.959L341.366 123.285L343.423 122.646C344.024 122.459 344.413 122.673 344.59 123.288C344.77 123.911 344.56 124.316 343.959 124.503L341.902 125.142L342.766 128.136C342.943 128.751 342.735 129.15 342.143 129.334C341.542 129.521 341.153 129.307 340.976 128.692L340.112 125.698L334.39 127.476C333.319 127.809 332.647 128.238 332.374 128.763C332.112 129.294 332.14 130.112 332.458 131.215C332.546 131.518 332.539 131.772 332.439 131.978C332.348 132.18 332.148 132.33 331.839 132.426C331.239 132.612 330.848 132.394 330.669 131.771Z" fill="#503073"/>
<path d="M348.454 155.891C348.536 156.536 348.271 156.9 347.658 156.985L337.026 158.45C336.404 158.535 336.052 158.256 335.97 157.611C335.888 156.975 336.158 156.614 336.78 156.528L337.447 156.436C336.266 155.686 335.553 154.352 335.307 152.434L335.214 151.702C334.996 150.003 335.226 148.695 335.903 147.776C336.589 146.857 337.751 146.285 339.389 146.059L346.141 145.129C346.754 145.045 347.101 145.32 347.182 145.957C347.265 146.601 347 146.966 346.387 147.051L339.634 147.981C338.501 148.137 337.752 148.462 337.388 148.955C337.025 149.458 336.917 150.288 337.065 151.447L337.159 152.179C337.306 153.33 337.576 154.272 337.97 155.007C338.371 155.741 338.886 156.123 339.513 156.152L347.412 155.063C348.025 154.979 348.372 155.255 348.454 155.891Z" fill="#503073"/>
<path d="M337.384 179.441C337.403 178.791 337.725 178.475 338.352 178.495L349.073 178.825C349.691 178.844 349.991 179.179 349.972 179.829C349.954 180.47 349.635 180.782 349.017 180.762L347.696 180.722C348.419 181.245 348.959 181.922 349.316 182.75C349.674 183.588 349.837 184.552 349.806 185.641C349.787 186.292 349.469 186.607 348.851 186.588C348.224 186.569 347.92 186.234 347.938 185.584C347.982 184.046 347.72 182.86 347.15 182.024C346.59 181.189 345.802 180.725 344.787 180.632L338.297 180.432C337.67 180.413 337.366 180.082 337.384 179.441Z" fill="#503073"/>
<path d="M341.477 202.95L340.778 202.812C339.671 202.593 338.87 202.658 338.374 203.007C337.879 203.356 337.524 204.114 337.309 205.279L336.918 207.404C336.744 208.353 336.711 209.068 336.822 209.546C336.939 210.034 337.231 210.392 337.698 210.619C337.96 210.742 338.152 210.892 338.275 211.069C338.396 211.254 338.429 211.498 338.373 211.8C338.315 212.119 338.187 212.345 337.99 212.476C337.802 212.608 337.559 212.618 337.26 212.506C336.25 212.135 335.566 211.494 335.208 210.582C334.856 209.68 334.815 208.499 335.083 207.04L335.474 204.916C335.784 203.232 336.401 202.061 337.324 201.403C338.245 200.753 339.513 200.588 341.128 200.908L343.999 201.477C345.646 201.803 346.779 202.444 347.397 203.398C348.022 204.363 348.171 205.686 347.844 207.366L347.453 209.491C347.144 211.174 346.528 212.341 345.606 212.991C344.693 213.642 343.421 213.806 341.79 213.483L340.541 213.236C339.926 213.114 339.676 212.738 339.792 212.108L341.477 202.95ZM346.009 207.003C346.24 205.841 346.188 205.002 345.851 204.488C345.514 203.974 344.78 203.605 343.648 203.381L343.311 203.314L341.803 211.513L342.14 211.579C343.263 211.802 344.069 211.738 344.556 211.387C345.05 211.046 345.404 210.293 345.619 209.127L346.009 207.003Z" fill="#503073"/>
<path d="M330.113 262.467C329.823 263.044 329.403 263.183 328.855 262.886L319.351 257.728C318.796 257.427 318.663 256.988 318.954 256.411C319.24 255.843 319.661 255.709 320.217 256.011L320.814 256.334C320.265 255.015 320.422 253.498 321.286 251.784L321.616 251.13C322.381 249.611 323.296 248.679 324.359 248.333C325.43 247.992 326.697 248.218 328.161 249.012L334.197 252.288C334.745 252.585 334.876 253.018 334.589 253.587C334.299 254.164 333.879 254.303 333.331 254.006L327.296 250.73C326.282 250.18 325.489 249.998 324.918 250.184C324.342 250.377 323.793 250.992 323.271 252.028L322.941 252.683C322.423 253.711 322.121 254.643 322.034 255.479C321.955 256.319 322.164 256.938 322.661 257.337L329.721 261.168C330.269 261.466 330.4 261.899 330.113 262.467Z" fill="#503073"/>
<path d="M313.196 278.496C313.325 278.321 313.503 278.219 313.728 278.188C313.954 278.157 314.151 278.208 314.319 278.342C314.494 278.481 314.593 278.665 314.616 278.894C314.645 279.128 314.596 279.333 314.467 279.507L310.196 285.282C310.062 285.463 309.885 285.565 309.664 285.589C309.445 285.625 309.248 285.574 309.074 285.435C308.906 285.301 308.807 285.117 308.777 284.883C308.742 284.656 308.792 284.451 308.926 284.27L313.196 278.496Z" fill="#503073"/>
<path d="M295.771 299.489L295.288 298.946C294.523 298.088 293.841 297.647 293.243 297.622C292.644 297.598 291.925 297.989 291.085 298.795L289.555 300.263C288.871 300.92 288.436 301.474 288.251 301.927C288.066 302.392 288.096 302.86 288.342 303.33C288.483 303.591 288.551 303.83 288.549 304.048C288.541 304.272 288.428 304.488 288.21 304.697C287.98 304.918 287.748 305.02 287.515 305.004C287.288 304.995 287.086 304.853 286.911 304.579C286.31 303.659 286.126 302.721 286.36 301.766C286.593 300.824 287.236 299.849 288.287 298.84L289.817 297.372C291.03 296.208 292.196 295.645 293.316 295.685C294.429 295.73 295.544 296.378 296.66 297.63L298.644 299.857C299.783 301.135 300.328 302.348 300.278 303.497C300.229 304.658 299.592 305.815 298.367 306.965L296.837 308.434C295.624 309.598 294.461 310.157 293.348 310.112C292.24 310.073 291.123 309.421 289.995 308.156L289.132 307.188C288.707 306.711 288.721 306.254 289.175 305.818L295.771 299.489ZM297.099 305.542C297.95 304.75 298.387 304.043 298.411 303.421C298.434 302.8 298.055 302.051 297.272 301.173L297.04 300.912L291.134 306.579L291.367 306.84C292.143 307.712 292.828 308.156 293.421 308.174C294.013 308.204 294.729 307.816 295.569 307.011L297.099 305.542Z" fill="#503073"/>
<path d="M264.96 311.933C265.966 311.282 266.875 311.057 267.684 311.259C268.482 311.458 269.197 312.083 269.829 313.135C270.156 313.68 270.057 314.122 269.532 314.461C269 314.805 268.571 314.705 268.244 314.16C267.885 313.563 267.558 313.226 267.262 313.148C266.954 313.068 266.516 313.211 265.948 313.578L261.914 316.186C261.346 316.554 261.029 316.898 260.963 317.221C260.892 317.535 261.036 317.991 261.395 318.588L263.149 321.509C263.192 320.601 263.446 319.851 263.91 319.261C264.374 318.671 264.966 318.144 265.685 317.679L266.591 317.093C267.979 316.196 269.204 315.875 270.266 316.131C271.328 316.387 272.286 317.227 273.142 318.652L276.805 324.752C277.136 325.304 277.04 325.749 276.515 326.089C275.983 326.433 275.551 326.329 275.219 325.777L271.557 319.677C270.974 318.707 270.403 318.155 269.843 318.02C269.275 317.89 268.521 318.129 267.579 318.738L266.673 319.324C265.465 320.105 264.71 320.883 264.407 321.659C264.097 322.44 264.197 323.255 264.708 324.106L268.371 330.205C268.702 330.757 268.606 331.203 268.081 331.542C267.549 331.886 267.117 331.782 266.785 331.23L259.809 319.613C259.178 318.561 258.955 317.618 259.142 316.782C259.325 315.939 259.919 315.192 260.926 314.541L264.96 311.933Z" fill="#503073"/>
<path d="M244.577 336.393L244.321 335.704C243.915 334.613 243.439 333.941 242.891 333.69C242.343 333.438 241.536 333.525 240.469 333.952L238.524 334.731C237.655 335.079 237.054 335.428 236.721 335.778C236.383 336.139 236.245 336.585 236.306 337.117C236.343 337.413 236.322 337.661 236.243 337.863C236.155 338.067 235.973 338.225 235.697 338.336C235.404 338.453 235.152 338.459 234.941 338.355C234.733 338.26 234.596 338.051 234.531 337.728C234.3 336.643 234.463 335.701 235.02 334.904C235.572 334.117 236.516 333.457 237.852 332.922L239.797 332.144C241.338 331.527 242.622 331.451 243.648 331.917C244.667 332.385 245.472 333.415 246.064 335.006L247.116 337.836C247.719 339.46 247.794 340.796 247.339 341.845C246.88 342.905 245.876 343.735 244.329 344.336L242.384 345.114C240.843 345.731 239.563 345.805 238.544 345.337C237.529 344.876 236.722 343.842 236.125 342.235L235.667 341.005C235.442 340.398 235.617 339.979 236.194 339.748L244.577 336.393ZM243.657 342.527C244.73 342.117 245.388 341.627 245.63 341.059C245.873 340.491 245.787 339.649 245.373 338.533L245.249 338.201L237.744 341.205L237.868 341.537C238.279 342.644 238.757 343.32 239.302 343.564C239.842 343.819 240.645 343.733 241.712 343.306L243.657 342.527Z" fill="#503073"/>
</svg>
