<svg width="80" height="80" viewBox="0 0 80 80" fill="none" xmlns="http://www.w3.org/2000/svg">
<path d="M8.36377 27.6321C11.9397 27.6321 14.4812 24.2336 13.7424 20.835C11.4964 22.7559 9.70843 24.9724 8.36377 27.6321Z" fill="#121212"/>
<path d="M57.7612 28.5188C57.7612 32.0651 60.7461 35.0204 64.322 35.0204C65.8144 35.0204 67.3068 34.4293 68.5037 33.5428C66.8636 29.5531 64.7801 25.7112 62.0907 22.6082C59.4014 23.347 57.7612 25.859 57.7612 28.5188Z" fill="#121212"/>
<path d="M52.8411 44.1817C51.2009 44.3294 49.5607 43.7384 47.9206 42.704C43.1477 39.3054 36.4244 42.704 36.1289 48.4669C36.1289 50.0923 36.5722 51.7177 37.4736 53.0476C43.1477 49.7967 49.5607 48.1713 55.6782 47.4325C55.6782 47.2847 55.6782 46.9892 55.6782 46.8414C55.826 45.3638 54.4813 44.1817 52.8411 44.1817Z" fill="#121212"/>
<path d="M21.3516 56.2986C19.2681 56.2986 17.6279 57.924 17.6279 59.9927V79.3499H25.0901V59.9927C25.0753 57.924 23.4351 56.2986 21.3516 56.2986Z" fill="#121212"/>
<path d="M36.1286 21.2782C38.3599 20.2439 41.0492 20.2439 43.443 21.426C47.9203 23.4947 53.2989 20.6872 54.0377 15.8109C46.2801 11.5257 37.9166 11.8213 29.4201 13.7422C27.6321 14.1855 25.9919 14.6288 24.4995 15.2199C25.0758 20.3916 31.0455 23.6425 36.1286 21.2782Z" fill="#121212"/>
<path d="M8.36309 10.9344C10.4466 10.9344 12.0868 9.30898 12.0868 7.24027C12.0868 5.17156 10.4466 3.54614 8.36309 3.54614C6.2796 3.54614 4.6394 5.17156 4.6394 7.24027C4.6394 9.30898 6.2796 10.9344 8.36309 10.9344Z" fill="#121212"/>
<path d="M66.5683 61.7659C63.7313 61.7659 61.5 63.9823 61.5 66.7899C61.5 69.5974 63.7313 71.8139 66.5683 71.8139C69.4054 71.8139 71.6367 69.5974 71.6367 66.7899C71.7844 63.9823 69.4054 61.7659 66.5683 61.7659Z" fill="#121212"/>
<path d="M12.9889 56.1507C12.9889 54.6731 11.6443 53.4909 10.2996 53.4909C8.80718 53.4909 7.61028 52.6044 7.01922 51.4222C6.87145 51.1267 6.72369 50.8312 6.57593 50.5356V58.3672C7.47729 58.3672 8.36388 58.515 9.41301 58.8105C11.0532 59.4016 12.9889 58.0717 12.9889 56.1507Z" fill="#121212"/>
<path d="M69.9967 37.9757C69.9967 37.9757 69.7012 36.9414 69.2579 35.316C67.9132 36.3503 66.1252 36.9414 64.3373 36.9414C59.7122 36.9414 55.9738 33.2473 55.9738 28.6665C55.9738 25.4157 57.9095 22.4604 60.7466 21.1305C59.1064 19.5051 57.4662 18.0275 55.6783 16.8453C54.3336 22.4604 48.0684 25.5635 42.6897 23.0515C40.9017 22.1649 38.8035 22.1649 37.0155 22.9037C31.0458 25.7112 23.8792 22.0171 22.6823 15.6632C19.993 16.6976 17.614 18.0274 15.5157 19.5051C17.3037 24.5291 13.2697 29.8486 7.75804 29.2576C6.26561 33.395 6.56115 36.4981 6.70891 36.4981V36.6458V47.7282C7.61028 48.467 8.34911 49.5014 8.95495 50.5357C9.25048 51.1268 9.8563 51.5701 10.4474 51.5701C14.4814 51.7179 16.5648 56.4464 13.7278 59.4016C12.3831 60.7315 10.4474 61.1748 8.80717 60.5838C8.06835 60.2882 7.31475 60.1405 6.57593 60.1405V65.46H15.826V59.8449C15.826 56.7419 18.3676 54.2299 21.5002 54.2299C24.6328 54.2299 27.1744 56.7419 27.1744 59.8449V61.7659L27.6177 61.4704C30.7503 59.1061 31.5039 57.1852 36.2767 54.0821C35.0798 52.4567 34.4887 50.5358 34.6365 48.467C34.7843 43.7386 38.6705 39.8967 43.4433 39.6011C45.5268 39.4534 47.6251 40.0444 49.2653 41.2266C50.0041 41.8176 51.3487 42.4087 52.9889 42.4087C55.826 42.2609 58.0573 44.4774 57.9095 47.2849C64.618 46.6939 70.5878 47.1372 74.3262 47.4327C76.2619 47.5805 77.3111 45.364 75.9664 44.0341C69.8489 37.9757 69.9967 38.419 69.9967 37.9757ZM20.4511 49.7969C15.3827 49.7969 11.0532 45.6595 11.0532 40.4877C11.0532 35.316 15.235 31.1785 20.4511 31.1785C25.6672 31.1785 29.8489 35.316 29.8489 40.4877C29.8489 45.6595 25.5342 49.7969 20.4511 49.7969Z" fill="#121212"/>
<path d="M20.4507 33.0992C16.2689 33.0992 12.9885 36.3501 12.9885 40.4875C12.9885 44.6249 16.2689 47.8757 20.4507 47.8757C24.6324 47.8757 27.9128 44.6249 27.9128 40.4875C27.9128 36.3501 24.4847 33.0992 20.4507 33.0992ZM20.4507 43.7383C18.6627 43.7383 17.1703 42.2607 17.1703 40.4875C17.1703 38.7143 18.6627 37.2366 20.4507 37.2366C22.2386 37.2366 23.7311 38.7143 23.7311 40.4875C23.7311 42.2607 22.2386 43.7383 20.4507 43.7383Z" fill="#121212"/>
<path d="M59.9933 0C60.7322 0 61.338 0.591074 61.338 1.3299C61.338 2.06872 60.7322 2.65978 59.9933 2.65978C59.2545 2.65978 58.6487 2.06872 58.6487 1.3299C58.6635 0.591074 59.2545 0 59.9933 0Z" fill="#121212"/>
<path d="M77.7538 21.1305C78.4927 21.1305 79.0985 21.7215 79.0985 22.4604C79.0985 23.1992 78.4927 23.7903 77.7538 23.7903C77.015 23.7903 76.4092 23.1992 76.4092 22.4604C76.4092 21.7215 77.015 21.1305 77.7538 21.1305Z" fill="#121212"/>
<path d="M78.6557 56.2986C79.3945 56.2986 80.0004 56.8896 80.0004 57.6285C80.0004 58.3673 79.3945 58.9584 78.6557 58.9584C77.9169 58.9584 77.311 58.3673 77.311 57.6285C77.311 56.8896 77.9169 56.2986 78.6557 56.2986Z" fill="#121212"/>
<path d="M47.905 64.5732C48.6438 64.5732 49.2496 65.1643 49.2496 65.9031C49.2496 66.642 48.6438 67.233 47.905 67.233C47.1661 67.233 46.5603 66.642 46.5603 65.9031C46.5751 65.1643 47.1661 64.5732 47.905 64.5732Z" fill="#121212"/>
<path d="M5.98407 72.8483C6.7229 72.8483 7.32873 73.4393 7.32873 74.1781C7.32873 74.917 6.7229 75.508 5.98407 75.508C5.24525 75.508 4.6394 74.917 4.6394 74.1781C4.6394 73.4393 5.23047 72.8483 5.98407 72.8483Z" fill="#121212"/>
<path d="M20.8947 0C21.6335 0 22.2394 0.591074 22.2394 1.3299C22.2394 2.06872 21.6335 2.65978 20.8947 2.65978C20.1559 2.65978 19.55 2.06872 19.55 1.3299C19.5648 0.591074 20.1559 0 20.8947 0Z" fill="#121212"/>
<path d="M1.34467 23.0515C2.08349 23.0515 2.68932 23.6426 2.68932 24.3814C2.68932 25.1202 2.08349 25.7113 1.34467 25.7113C0.605842 25.7113 0 25.1202 0 24.3814C0.0147765 23.6426 0.605842 23.0515 1.34467 23.0515Z" fill="#121212"/>
</svg>
