<svg width="290" height="291" viewBox="0 0 290 291" fill="none" xmlns="http://www.w3.org/2000/svg">
<path d="M120.233 289.288C119.701 289.211 119.473 288.906 119.55 288.374L121.091 277.694C121.168 277.161 121.473 276.933 122.006 277.01C122.538 277.087 122.766 277.392 122.689 277.925L122.552 278.876C123.549 277.829 125.041 277.449 127.028 277.735L127.739 277.838C129.354 278.071 130.487 278.623 131.138 279.494C131.789 280.365 131.998 281.608 131.765 283.223L130.787 289.996C130.71 290.529 130.406 290.757 129.873 290.68C129.34 290.603 129.112 290.298 129.189 289.765L130.167 282.992C130.335 281.825 130.228 280.981 129.846 280.46C129.454 279.946 128.675 279.605 127.508 279.436L126.798 279.334C125.589 279.159 124.582 279.195 123.778 279.441C122.965 279.695 122.458 280.187 122.257 280.918L121.148 288.604C121.071 289.137 120.766 289.365 120.233 289.288Z" fill="#503073"/>
<path d="M105.423 279.469C105.61 279.53 105.751 279.648 105.847 279.823C105.932 280.003 105.945 280.187 105.884 280.374C105.821 280.569 105.703 280.71 105.53 280.798C105.35 280.883 105.166 280.895 104.98 280.834L98.252 278.648C98.057 278.585 97.9156 278.467 97.8278 278.295C97.7401 278.123 97.7279 277.939 97.7912 277.744C97.852 277.557 97.9698 277.416 98.1447 277.32C98.3169 277.232 98.5005 277.22 98.6955 277.283L105.423 279.469Z" fill="#503073"/>
<path d="M84.8452 270.88L85.2292 270.141C85.7688 269.102 85.942 268.278 85.749 267.667C85.5483 267.053 84.9249 266.474 83.8786 265.93L82.0136 264.961C81.1114 264.493 80.4005 264.258 79.8808 264.258C79.3536 264.253 78.9086 264.489 78.5458 264.965C78.3746 265.165 78.2026 265.292 78.0298 265.347C77.857 265.401 77.6569 265.37 77.4294 265.252C77.1944 265.129 77.0497 264.972 76.9954 264.781C76.9295 264.592 76.9786 264.387 77.1425 264.164C77.7561 263.279 78.528 262.785 79.4582 262.681C80.3768 262.58 81.4767 262.863 82.758 263.529L84.623 264.497C86.0711 265.25 86.959 266.144 87.2869 267.181C87.6147 268.218 87.4065 269.453 86.6621 270.885L85.3151 273.478C84.551 274.949 83.6526 275.845 82.6197 276.165C81.5829 276.493 80.3444 276.273 78.9043 275.506L77.0392 274.537C75.5836 273.78 74.6957 272.886 74.3754 271.853C74.0436 270.824 74.2558 269.581 75.012 268.126L75.6028 266.989C75.8509 266.511 76.2138 266.396 76.6914 266.644L84.8452 270.88ZM79.6486 274.073C80.687 274.631 81.5152 274.816 82.1334 274.627C82.7439 274.434 83.3269 273.803 83.8822 272.734L84.1008 272.313L76.6635 268.449L76.4449 268.87C75.8974 269.924 75.7202 270.756 75.9133 271.367C76.1064 271.977 76.7298 272.556 77.7836 273.104L79.6486 274.073Z" fill="#503073"/>
<path d="M68.7372 248.71C69.6539 249.424 70.1614 250.177 70.2598 250.968C70.3514 251.754 70.0376 252.609 69.3184 253.532C68.9876 253.957 68.6099 254.004 68.1853 253.673C67.7607 253.342 67.7137 252.965 68.0445 252.54C68.4855 251.974 68.6843 251.517 68.6411 251.169C68.6031 250.815 68.3044 250.42 67.745 249.984L64.1053 247.149C63.5459 246.713 63.0897 246.52 62.7367 246.57C62.389 246.614 61.9947 246.918 61.5537 247.484L59.4433 250.194C60.2475 249.954 61.0088 249.957 61.7272 250.202C62.4456 250.448 63.1688 250.854 63.8967 251.421L64.6044 251.972C65.8783 252.964 66.5808 253.988 66.712 255.043C66.8431 256.098 66.4179 257.256 65.4362 258.517L61.1524 264.016C60.8216 264.441 60.4439 264.488 60.0193 264.157C59.5947 263.827 59.5477 263.449 59.8785 263.024L64.1623 257.524C64.871 256.614 65.1873 255.854 65.1113 255.242C65.0286 254.625 64.5289 253.96 63.6122 253.246L62.9045 252.695C61.7452 251.792 60.7411 251.329 59.8921 251.307C59.0364 251.279 58.2962 251.667 57.6715 252.469L53.3877 257.969C53.057 258.393 52.6793 258.44 52.2547 258.11C51.83 257.779 51.7831 257.401 52.1138 256.977L60.2798 246.492C60.999 245.569 61.7543 245.058 62.5457 244.96C63.3303 244.856 64.1809 245.161 65.0975 245.875L68.7372 248.71Z" fill="#503073"/>
<path d="M44.104 241.146L44.7266 240.593C45.6016 239.815 46.0579 239.107 46.0956 238.468C46.1277 237.822 45.7521 237.059 44.969 236.177L43.573 234.606C42.8977 233.846 42.3174 233.373 41.8322 233.187C41.3412 232.995 40.8414 233.056 40.3326 233.371C40.1013 233.497 39.8952 233.554 39.7143 233.544C39.5334 233.533 39.3578 233.432 39.1875 233.24C39.0116 233.042 38.9325 232.844 38.9503 232.645C38.956 232.446 39.0753 232.271 39.308 232.122C40.1971 231.514 41.0946 231.328 42.0006 231.563C42.8945 231.798 43.821 232.454 44.78 233.534L46.176 235.105C47.2599 236.325 47.7698 237.477 47.7058 238.563C47.6417 239.648 47.0062 240.727 45.7992 241.8L43.615 243.741C42.376 244.842 41.217 245.357 40.1379 245.287C39.0524 245.223 37.9741 244.576 36.9029 243.345L35.5069 241.774C34.4174 240.547 33.9075 239.395 33.9772 238.316C34.0349 237.236 34.6768 236.151 35.903 235.062L36.8609 234.21C37.2633 233.853 37.6432 233.875 38.0007 234.278L44.104 241.146ZM38.11 242.272C38.8803 243.165 39.588 243.633 40.2329 243.677C40.8721 243.715 41.642 243.334 42.5425 242.534L42.8969 242.219L37.33 235.954L36.9755 236.269C36.0878 237.057 35.6251 237.771 35.5874 238.411C35.5496 239.05 35.9252 239.813 36.714 240.701L38.11 242.272Z" fill="#503073"/>
<path d="M1.21065 169.358C1.10877 168.83 1.32208 168.515 1.85058 168.413L12.4458 166.37C12.9743 166.268 13.2895 166.482 13.3914 167.01C13.4933 167.539 13.28 167.854 12.7515 167.956L11.8077 168.138C13.1239 168.737 13.972 170.022 14.352 171.993L14.4878 172.698C14.7967 174.3 14.6464 175.552 14.037 176.452C13.4275 177.353 12.3216 177.957 10.7193 178.266L3.99979 179.562C3.47128 179.664 3.15609 179.45 3.05421 178.922C2.95233 178.393 3.16564 178.078 3.69414 177.976L10.4137 176.681C11.5714 176.458 12.3339 176.08 12.7011 175.548C13.0584 175.009 13.1255 174.161 12.9023 173.004L12.7665 172.299C12.5352 171.099 12.1715 170.16 11.6752 169.481C11.1689 168.796 10.5378 168.478 9.78178 168.528L2.15623 169.998C1.62772 170.1 1.31253 169.887 1.21065 169.358Z" fill="#503073"/>
<path d="M5.63188 152.146C5.63573 152.342 5.57075 152.514 5.43693 152.662C5.2944 152.802 5.12491 152.873 4.92844 152.877C4.72344 152.881 4.55127 152.816 4.41192 152.682C4.2724 152.54 4.20072 152.37 4.19686 152.174L4.05812 145.101C4.0541 144.896 4.11908 144.724 4.25307 144.585C4.38705 144.445 4.55655 144.374 4.76155 144.37C4.95801 144.366 5.13019 144.431 5.27808 144.565C5.41743 144.699 5.48911 144.868 5.49313 145.073L5.63188 152.146Z" fill="#503073"/>
<path d="M7.0055 129.892L7.82971 130.013C8.98782 130.182 9.82367 130.076 10.3373 129.693C10.8521 129.302 11.1949 128.524 11.3656 127.357L11.6699 125.277C11.8172 124.271 11.8058 123.523 11.6359 123.032C11.4673 122.532 11.0987 122.189 10.5303 122.002C10.2854 121.906 10.1088 121.785 10.0005 121.64C9.89228 121.494 9.85672 121.295 9.89383 121.041C9.93218 120.779 10.0331 120.591 10.1966 120.477C10.3529 120.353 10.5632 120.332 10.8275 120.414C11.8644 120.704 12.5844 121.271 12.9874 122.116C13.3833 122.951 13.4767 124.083 13.2676 125.511L12.9633 127.591C12.727 129.205 12.1728 130.337 11.3006 130.987C10.4285 131.636 9.19357 131.844 7.59589 131.61L4.70484 131.187C3.06489 130.947 1.92441 130.392 1.28341 129.521C0.633948 128.649 0.435818 127.407 0.689017 125.794L0.993352 123.715C1.23088 122.092 1.7851 120.96 2.65601 120.319C3.5197 119.668 4.76307 119.462 6.38611 119.699L7.65411 119.885C8.18667 119.963 8.41398 120.268 8.33604 120.8L7.0055 129.892ZM2.2867 126.028C2.09907 127.192 2.19586 128.035 2.57709 128.557C2.95955 129.071 3.74674 129.415 4.93866 129.59L5.40782 129.658L6.62145 121.365L6.15229 121.297C4.97727 121.125 4.13297 121.23 3.61937 121.613C3.10578 121.995 2.763 122.774 2.59104 123.949L2.2867 126.028Z" fill="#503073"/>
<path d="M22.6739 107.408C22.2997 108.508 21.7549 109.234 21.0395 109.586C20.3268 109.93 19.4164 109.914 18.3084 109.537C17.7988 109.364 17.6307 109.022 17.804 108.513C17.9774 108.003 18.3189 107.835 18.8284 108.008C19.5078 108.239 20.0047 108.278 20.319 108.123C20.6415 107.971 20.9169 107.559 21.1453 106.888L22.6312 102.52C22.8595 101.849 22.8923 101.355 22.7295 101.038C22.5747 100.723 22.1576 100.45 21.4782 100.219L18.2268 99.1132C18.717 99.7943 18.9638 100.514 18.9672 101.274C18.9706 102.033 18.8238 102.849 18.5266 103.723L18.2377 104.572C17.7176 106.101 16.9806 107.1 16.0267 107.569C15.0728 108.039 13.8396 108.017 12.3272 107.502L5.72722 105.257C5.21767 105.083 5.04957 104.742 5.22292 104.232C5.39627 103.723 5.73772 103.555 6.24728 103.728L12.8472 105.973C13.9391 106.345 14.7615 106.395 15.3143 106.122C15.8699 105.842 16.3348 105.152 16.709 104.052L16.9979 103.203C17.4712 101.812 17.5793 100.711 17.3222 99.9019C17.0679 99.0844 16.4595 98.5119 15.497 98.1845L8.89707 95.9392C8.38752 95.7658 8.21942 95.4244 8.39277 94.9148C8.56612 94.4053 8.90757 94.2372 9.41713 94.4105L21.9983 98.6906C23.1063 99.0676 23.8365 99.6138 24.1887 100.329C24.5437 101.037 24.534 101.94 24.1598 103.04L22.6739 107.408Z" fill="#503073"/>
<path d="M21.7504 81.6571L22.4772 82.0641C23.4984 82.636 24.3171 82.8351 24.9334 82.6613C25.5539 82.48 26.1522 81.8751 26.7283 80.8464L27.7553 79.0127C28.252 78.1257 28.5088 77.4225 28.5255 76.9031C28.5464 76.3762 28.3247 75.924 27.8605 75.5465C27.6661 75.3691 27.5443 75.1932 27.4951 75.0188C27.4459 74.8443 27.4839 74.6453 27.6092 74.4217C27.7386 74.1906 27.9 74.0509 28.0936 74.0026C28.2838 73.9427 28.4877 73.9982 28.7054 74.169C29.5703 74.8101 30.0402 75.5972 30.115 76.5301C30.1866 77.4515 29.8696 78.542 29.1641 79.8017L28.1371 81.6354C27.3398 83.0591 26.4178 83.9186 25.3712 84.2137C24.3247 84.5089 23.097 84.2619 21.6882 83.4729L19.1389 82.0452C17.6928 81.2354 16.8259 80.3092 16.5382 79.2668C16.2431 78.2203 16.5016 76.9893 17.3139 75.5739L18.3408 73.7402C19.1423 72.309 20.0643 71.4496 21.1067 71.1619C22.1458 70.8626 23.381 71.1137 24.8122 71.9152L25.9303 72.5414C26.3999 72.8044 26.5032 73.1707 26.2402 73.6403L21.7504 81.6571ZM18.7227 76.3629C18.1317 77.3832 17.921 78.2053 18.0906 78.829C18.2645 79.4453 18.8769 80.0478 19.9279 80.6364L20.3416 80.8681L24.4369 73.5557L24.0232 73.324C22.987 72.7438 22.1608 72.5405 21.5445 72.7143C20.9282 72.8881 20.3299 73.4931 19.7496 74.5292L18.7227 76.3629Z" fill="#503073"/>
<path d="M75.521 17.609C75.987 17.3396 76.3547 17.4378 76.6241 17.9038L82.0253 27.245C82.2947 27.7109 82.1964 28.0786 81.7305 28.348C81.2645 28.6174 80.8969 28.5192 80.6274 28.0532L80.1463 27.2212C80.0117 28.6609 79.0753 29.8833 77.3372 30.8883L76.716 31.2475C75.3033 32.0643 74.0718 32.3323 73.0212 32.0516C71.9707 31.7708 71.037 30.9241 70.2202 29.5115L66.7948 23.5872C66.5253 23.1213 66.6236 22.7536 67.0895 22.4842C67.5555 22.2148 67.9232 22.313 68.1926 22.779L71.6181 28.7032C72.2082 29.7238 72.8148 30.3205 73.4377 30.4933C74.0637 30.6543 74.8871 30.4398 75.9077 29.8496L76.529 29.4904C77.5866 28.8789 78.3548 28.2275 78.8334 27.5362C79.3151 26.8333 79.4085 26.1329 79.1136 25.435L75.2262 18.712C74.9568 18.2461 75.0551 17.8784 75.521 17.609Z" fill="#503073"/>
<path d="M93.2287 16.1467C93.0443 16.2147 92.8603 16.2097 92.6768 16.1317C92.4983 16.0428 92.375 15.9061 92.307 15.7218C92.236 15.5294 92.241 15.3454 92.3219 15.1699C92.4109 14.9913 92.5475 14.8681 92.7319 14.8001L99.3686 12.3517C99.561 12.2807 99.7449 12.2857 99.9205 12.3666C100.096 12.4476 100.219 12.5842 100.29 12.7766C100.358 12.961 100.353 13.1449 100.275 13.3285C100.194 13.504 100.058 13.6273 99.8654 13.6983L93.2287 16.1467Z" fill="#503073"/>
<path d="M114.706 10.155L114.862 10.9733C115.082 12.123 115.456 12.8778 115.986 13.2377C116.524 13.5961 117.372 13.6648 118.53 13.4438L120.595 13.05C121.593 12.8595 122.297 12.6036 122.705 12.2822C123.122 11.9591 123.325 11.4985 123.316 10.9002C123.326 10.6372 123.383 10.4308 123.484 10.2809C123.586 10.131 123.763 10.0321 124.015 9.98405C124.275 9.93442 124.486 9.96813 124.647 10.0852C124.816 10.1922 124.904 10.384 124.914 10.6606C124.979 11.7352 124.679 12.6013 124.013 13.2589C123.354 13.9065 122.315 14.3656 120.897 14.6361L118.833 15.03C117.23 15.3357 115.979 15.183 115.079 14.5718C114.18 13.9606 113.579 12.8619 113.276 11.2758L112.729 8.40572C112.418 6.77766 112.569 5.51814 113.182 4.62717C113.793 3.72781 114.902 3.13364 116.508 2.84466L118.573 2.45085C120.184 2.14348 121.435 2.29621 122.326 2.90902C123.224 3.51184 123.826 4.61889 124.134 6.23016L124.374 7.48898C124.475 8.01768 124.261 8.33245 123.732 8.43331L114.706 10.155ZM116.811 4.43076C115.649 4.63489 114.885 5.00257 114.516 5.5338C114.156 6.06343 114.089 6.91988 114.315 8.10316L114.404 8.56892L122.636 6.99849L122.548 6.53273C122.325 5.36623 121.949 4.60301 121.419 4.24308C120.89 3.88314 120.042 3.81443 118.875 4.03695L116.811 4.43076Z" fill="#503073"/>
<path d="M141.084 17.5909C139.922 17.5978 139.057 17.3209 138.49 16.7604C137.931 16.1998 137.649 15.3343 137.642 14.1639C137.638 13.6256 137.906 13.3549 138.444 13.3518C138.982 13.3486 139.253 13.6161 139.256 14.1544C139.261 14.872 139.387 15.354 139.636 15.6002C139.886 15.8551 140.365 15.9804 141.074 15.9762L145.687 15.9491C146.396 15.9449 146.874 15.8139 147.12 15.5562C147.367 15.307 147.488 14.8235 147.483 14.1059L147.463 10.6715C146.98 11.3578 146.381 11.827 145.665 12.079C144.948 12.331 144.129 12.4597 143.206 12.4651L142.309 12.4704C140.695 12.4799 139.509 12.111 138.753 11.3636C137.997 10.6162 137.614 9.44372 137.604 7.84614L137.563 0.874842C137.56 0.336617 137.828 0.0659197 138.366 0.0627493C138.904 0.0595789 139.175 0.327106 139.178 0.865331L139.219 7.83662C139.226 8.98996 139.448 9.7832 139.887 10.2163C140.334 10.6494 141.138 10.8626 142.3 10.8557L143.197 10.8504C144.666 10.8418 145.741 10.5834 146.422 10.0753C147.111 9.5672 147.452 8.80481 147.446 7.78816L147.405 0.816869C147.402 0.278644 147.67 0.00794662 148.208 0.00477622C148.746 0.00160582 149.017 0.269133 149.02 0.807358L149.098 14.0964C149.105 15.2668 148.828 16.1356 148.268 16.7028C147.716 17.2699 146.859 17.5569 145.697 17.5637L141.084 17.5909Z" fill="#503073"/>
<path d="M165.109 8.2805L164.963 9.10051C164.757 10.2527 164.837 11.0915 165.203 11.6169C165.578 12.1437 166.345 12.5108 167.506 12.718L169.575 13.0875C170.576 13.2662 171.324 13.2784 171.821 13.124C172.325 12.9711 172.68 12.6135 172.884 12.0512C172.988 11.8094 173.115 11.6367 173.263 11.5331C173.412 11.4295 173.612 11.4002 173.865 11.4452C174.125 11.4918 174.31 11.5986 174.419 11.7656C174.538 11.9257 174.553 12.1365 174.463 12.3981C174.14 13.4254 173.551 14.1272 172.694 14.5036C171.847 14.873 170.712 14.9309 169.291 14.677L167.222 14.3076C165.616 14.0207 164.502 13.4312 163.88 12.5391C163.258 11.647 163.089 10.4062 163.373 8.81665L163.887 5.94031C164.178 4.3087 164.769 3.18622 165.66 2.57287C166.552 1.95111 167.8 1.79206 169.403 2.09574L171.472 2.46521C173.087 2.75357 174.201 3.34305 174.814 4.23365C175.437 5.11734 175.605 6.36657 175.316 7.98136L175.091 9.24292C174.997 9.77277 174.684 9.99038 174.154 9.89577L165.109 8.2805ZM169.119 3.6853C167.961 3.46122 167.116 3.5315 166.582 3.89615C166.057 4.2623 165.688 5.0383 165.476 6.22416L165.393 6.69094L173.644 8.16428L173.727 7.69751C173.936 6.52847 173.857 5.68127 173.491 5.15593C173.125 4.63058 172.357 4.26352 171.188 4.05476L169.119 3.6853Z" fill="#503073"/>
<path d="M243.241 38.097C243.648 38.4489 243.676 38.8285 243.324 39.2357L236.268 47.3994C235.916 47.8066 235.537 47.8342 235.129 47.4823C234.722 47.1303 234.695 46.7507 235.047 46.3435L235.675 45.6164C234.271 45.9609 232.809 45.4767 231.29 44.1638L230.747 43.6946C229.512 42.6275 228.856 41.5517 228.777 40.4672C228.698 39.3827 229.192 38.2231 230.259 36.9886L234.734 31.8111C235.086 31.4039 235.465 31.3763 235.873 31.7283C236.28 32.0802 236.307 32.4598 235.955 32.867L231.481 38.0444C230.71 38.9364 230.345 39.705 230.385 40.3501C230.438 40.9944 230.911 41.702 231.803 42.4729L232.346 42.9422C233.27 43.7411 234.137 44.2534 234.947 44.4791C235.769 44.704 236.461 44.5627 237.024 44.0554L242.102 38.1799C242.454 37.7727 242.834 37.745 243.241 38.097Z" fill="#503073"/>
<path d="M250.426 54.3531C250.301 54.2012 250.246 54.0258 250.259 53.8268C250.285 53.629 250.373 53.4678 250.525 53.3431C250.684 53.213 250.859 53.1574 251.052 53.1764C251.249 53.2019 251.411 53.2907 251.535 53.4426L256.023 58.9107C256.153 59.0692 256.209 59.2447 256.19 59.4371C256.171 59.6294 256.082 59.7907 255.924 59.9208C255.772 60.0454 255.596 60.101 255.397 60.0875C255.205 60.0685 255.044 59.9798 254.914 59.8213L250.426 54.3531Z" fill="#503073"/>
<path d="M263.124 72.68L262.402 73.0955C261.388 73.6794 260.797 74.2806 260.631 74.8989C260.469 75.5246 260.682 76.3484 261.27 77.3702L262.318 79.1916C262.825 80.0727 263.298 80.6535 263.735 80.934C264.177 81.2219 264.679 81.2633 265.241 81.058C265.493 80.982 265.706 80.9676 265.881 81.0147C266.056 81.0618 266.208 81.1965 266.336 81.4186C266.468 81.6481 266.505 81.8584 266.447 82.0493C266.401 82.2433 266.249 82.3901 265.991 82.4894C264.997 82.9037 264.081 82.904 263.241 82.4902C262.413 82.0795 261.639 81.2485 260.919 79.9972L259.87 78.1757C259.056 76.7615 258.791 75.5294 259.073 74.4794C259.356 73.4294 260.197 72.5017 261.597 71.6961L264.129 70.2385C265.565 69.4116 266.805 69.1417 267.848 69.4288C268.898 69.7116 269.822 70.5644 270.621 71.9871L271.67 73.8086C272.488 75.2302 272.754 76.4623 272.467 77.5049C272.191 78.5506 271.343 79.4826 269.921 80.301L268.811 80.9403C268.344 81.2088 267.977 81.1098 267.708 80.6433L263.124 72.68ZM269.222 72.7927C268.649 71.7623 268.051 71.1602 267.428 70.9863C266.81 70.8197 265.979 71.0369 264.935 71.6379L264.524 71.8744L268.705 79.1381L269.116 78.9015C270.145 78.3091 270.743 77.7037 270.909 77.0854C271.076 76.4671 270.863 75.6433 270.27 74.6141L269.222 72.7927Z" fill="#503073"/>
<path d="M264.737 100.037C264.35 98.9417 264.329 98.0342 264.672 97.3147C265.019 96.6032 265.744 96.0525 266.848 95.6625C267.355 95.4832 267.699 95.6472 267.878 96.1547C268.057 96.6622 267.893 97.0056 267.386 97.1849C266.709 97.4241 266.295 97.7017 266.144 98.0179C265.985 98.3369 266.024 98.8306 266.26 99.4992L267.797 103.849C268.033 104.518 268.314 104.926 268.638 105.074C268.954 105.225 269.45 105.181 270.127 104.942L273.365 103.798C272.559 103.566 271.919 103.154 271.446 102.559C270.973 101.965 270.583 101.233 270.276 100.363L269.977 99.5176C269.439 97.9952 269.399 96.7543 269.857 95.7949C270.316 94.8356 271.298 94.0897 272.804 93.5574L279.377 91.2345C279.885 91.0551 280.228 91.2192 280.408 91.7267C280.587 92.2341 280.423 92.5776 279.915 92.7569L273.342 95.0798C272.255 95.4641 271.578 95.9343 271.313 96.4903C271.05 97.0543 271.112 97.8841 271.499 98.9796L271.798 99.8254C272.288 101.211 272.884 102.142 273.587 102.618C274.293 103.103 275.125 103.176 276.084 102.837L282.657 100.514C283.164 100.335 283.508 100.499 283.687 101.006C283.866 101.514 283.702 101.857 283.195 102.036L270.665 106.465C269.561 106.855 268.65 106.878 267.93 106.534C267.214 106.198 266.662 105.483 266.275 104.387L264.737 100.037Z" fill="#503073"/>
<path d="M281.407 119.687L280.584 119.817C279.428 120.001 278.662 120.351 278.286 120.869C277.911 121.396 277.815 122.241 278 123.406L278.329 125.482C278.488 126.486 278.722 127.197 279.03 127.615C279.34 128.042 279.794 128.26 280.392 128.269C280.655 128.288 280.859 128.35 281.006 128.457C281.152 128.563 281.246 128.743 281.286 128.996C281.327 129.258 281.287 129.468 281.165 129.625C281.053 129.79 280.858 129.873 280.581 129.873C279.505 129.906 278.649 129.578 278.013 128.892C277.386 128.213 276.96 127.16 276.734 125.734L276.405 123.658C276.15 122.047 276.342 120.801 276.981 119.921C277.62 119.041 278.737 118.475 280.332 118.223L283.218 117.766C284.855 117.506 286.109 117.697 286.98 118.337C287.86 118.976 288.419 120.103 288.657 121.718L288.986 123.793C289.243 125.413 289.051 126.659 288.41 127.53C287.78 128.409 286.654 128.976 285.034 129.233L283.768 129.434C283.237 129.518 282.929 129.294 282.845 128.762L281.407 119.687ZM287.063 121.97C286.895 120.803 286.551 120.027 286.032 119.642C285.514 119.266 284.66 119.172 283.47 119.36L283.002 119.435L284.313 127.712L284.782 127.638C285.954 127.452 286.729 127.1 287.105 126.582C287.482 126.064 287.577 125.219 287.391 124.046L287.063 121.97Z" fill="#503073"/>
<path d="M278.839 203.274C278.64 203.774 278.29 203.924 277.79 203.725L267.765 199.734C267.265 199.535 267.115 199.185 267.314 198.685C267.513 198.185 267.862 198.034 268.362 198.234L269.255 198.589C268.47 197.375 268.448 195.835 269.191 193.97L269.456 193.303C270.06 191.787 270.861 190.814 271.86 190.384C272.859 189.955 274.116 190.041 275.632 190.645L281.99 193.177C282.49 193.376 282.641 193.725 282.442 194.225C282.242 194.725 281.893 194.876 281.393 194.677L275.035 192.145C273.94 191.709 273.094 191.616 272.498 191.866C271.906 192.127 271.393 192.805 270.957 193.901L270.691 194.567C270.239 195.703 270.039 196.69 270.091 197.529C270.148 198.379 270.509 198.987 271.172 199.352L278.387 202.225C278.887 202.424 279.038 202.774 278.839 203.274Z" fill="#503073"/>
<path d="M265.833 215.388C265.936 215.22 266.083 215.11 266.276 215.058C266.471 215.017 266.652 215.048 266.82 215.151C266.995 215.258 267.105 215.405 267.15 215.593C267.19 215.788 267.159 215.97 267.057 216.137L263.361 222.169C263.254 222.344 263.106 222.454 262.918 222.499C262.73 222.544 262.549 222.513 262.374 222.406C262.206 222.303 262.096 222.156 262.044 221.963C261.999 221.775 262.03 221.594 262.137 221.419L265.833 215.388Z" fill="#503073"/>
<path d="M252.677 233.388L252.048 232.842C251.164 232.075 250.402 231.714 249.764 231.76C249.119 231.811 248.411 232.282 247.638 233.173L246.261 234.76C245.594 235.528 245.2 236.165 245.079 236.67C244.951 237.182 245.077 237.669 245.455 238.133C245.609 238.346 245.693 238.543 245.706 238.724C245.718 238.905 245.641 239.092 245.473 239.286C245.299 239.486 245.113 239.59 244.914 239.598C244.715 239.618 244.527 239.522 244.348 239.311C243.631 238.508 243.331 237.642 243.447 236.713C243.563 235.796 244.095 234.793 245.041 233.702L246.418 232.115C247.488 230.882 248.565 230.227 249.65 230.151C250.734 230.074 251.886 230.564 253.106 231.623L255.313 233.538C256.565 234.624 257.226 235.707 257.296 236.786C257.373 237.87 256.87 239.023 255.788 240.245L254.411 241.832C253.336 243.071 252.258 243.726 251.179 243.796C250.101 243.878 248.943 243.382 247.704 242.307L246.736 241.467C246.329 241.114 246.302 240.735 246.655 240.328L252.677 233.388ZM254.568 239.186C255.354 238.307 255.727 237.545 255.687 236.9C255.642 236.261 255.164 235.547 254.255 234.757L253.896 234.446L248.404 240.777L248.762 241.087C249.659 241.866 250.427 242.232 251.065 242.187C251.704 242.142 252.413 241.671 253.191 240.774L254.568 239.186Z" fill="#503073"/>
<path d="M227.357 243.879C228.266 243.155 229.116 242.837 229.908 242.926C230.694 243.02 231.452 243.525 232.182 244.44C232.518 244.86 232.475 245.239 232.055 245.574C231.634 245.91 231.256 245.868 230.92 245.447C230.472 244.886 230.074 244.586 229.726 244.547C229.373 244.501 228.919 244.699 228.365 245.141L224.759 248.019C224.204 248.461 223.91 248.86 223.876 249.215C223.837 249.563 224.042 250.018 224.489 250.578L226.631 253.263C226.586 252.425 226.766 251.685 227.172 251.044C227.579 250.403 228.143 249.794 228.864 249.219L229.565 248.659C230.827 247.652 231.987 247.208 233.043 247.327C234.1 247.445 235.126 248.129 236.123 249.378L240.471 254.827C240.807 255.248 240.764 255.626 240.344 255.962C239.923 256.297 239.545 256.255 239.209 255.834L234.861 250.385C234.141 249.484 233.475 248.998 232.863 248.93C232.244 248.866 231.48 249.197 230.572 249.922L229.871 250.481C228.722 251.398 228.038 252.266 227.818 253.086C227.592 253.912 227.796 254.722 228.43 255.517L232.778 260.966C233.114 261.387 233.071 261.765 232.651 262.1C232.23 262.436 231.852 262.394 231.516 261.973L223.227 251.586C222.497 250.671 222.177 249.817 222.266 249.025C222.348 248.238 222.843 247.482 223.751 246.757L227.357 243.879Z" fill="#503073"/>
<path d="M214.254 266.067L213.861 265.332C213.309 264.3 212.727 263.691 212.114 263.505C211.494 263.323 210.664 263.51 209.624 264.066L207.771 265.057C206.874 265.536 206.279 265.99 205.985 266.418C205.683 266.851 205.626 267.351 205.814 267.919C205.882 268.173 205.889 268.387 205.837 268.561C205.784 268.734 205.645 268.881 205.419 269.002C205.185 269.127 204.974 269.158 204.785 269.094C204.592 269.042 204.451 268.885 204.359 268.624C203.976 267.618 204.005 266.701 204.445 265.875C204.881 265.061 205.736 264.313 207.01 263.633L208.863 262.642C210.302 261.872 211.542 261.646 212.583 261.961C213.623 262.277 214.524 263.147 215.285 264.571L216.663 267.148C217.444 268.609 217.675 269.857 217.355 270.89C217.04 271.93 216.158 272.828 214.711 273.582L212.858 274.573C211.411 275.346 210.171 275.573 209.138 275.253C208.102 274.945 207.197 274.068 206.423 272.621L205.819 271.491C205.565 271.016 205.676 270.652 206.151 270.398L214.254 266.067ZM213.95 272.158C214.998 271.617 215.618 271.038 215.812 270.421C215.998 269.809 215.807 268.971 215.239 267.909L215.015 267.491L207.624 271.442L207.847 271.86C208.407 272.907 208.994 273.524 209.606 273.71C210.219 273.895 211.049 273.708 212.096 273.149L213.95 272.158Z" fill="#503073"/>
</svg>
