<svg width="64" height="63" viewBox="0 0 64 63" fill="none" xmlns="http://www.w3.org/2000/svg">
<path d="M52.8317 47.615C51.9971 47.615 51.1741 47.7273 50.3395 47.9519C49.5048 44.4706 46.1779 42 42.3807 42C41.4284 42 40.4762 42.1123 39.6532 42.4492C38.4659 39.1925 35.5034 36.9465 31.9413 36.4973C32.4115 31.893 34.0809 27.8503 35.9736 24.369C37.7488 25.492 39.8884 26.1658 42.1455 26.1658C44.6378 26.1658 47.0125 25.2674 48.917 23.8075C52.244 21.2246 52.8318 17.0695 53.4313 13.3636C53.9016 10.3315 54.3836 7.41176 56.1587 6.17647C56.3938 5.95187 56.5114 5.61498 56.3939 5.39038C56.2763 5.05348 55.9236 4.94117 55.5592 4.94117C55.0889 4.94117 54.4894 5.05348 53.9016 5.05348C52.9493 5.05348 51.9971 5.05347 50.939 4.94117C49.7517 4.82887 48.5643 4.82888 47.2594 4.82888C43.8149 4.82888 39.3005 5.27808 35.1507 8.53477C33.011 10.2193 31.7061 12.6898 31.471 15.385C31.2359 18.0802 32.0588 20.6631 33.9633 22.7968C34.1984 23.1337 34.5511 23.3583 34.9155 23.6952C33.6106 25.9412 32.3057 28.6364 31.471 31.5562C31.3534 24.2567 29.449 18.8663 27.7913 15.4973C26.9567 13.9251 26.2513 12.6898 25.4166 11.6791L25.5342 11.5668C26.7216 10.2193 27.3093 8.53476 27.1918 6.73797C27.0742 5.05348 26.2396 3.48128 24.8171 2.47058C22.2073 0.449194 19.3505 0.112306 17.2227 0.112306C16.5055 0.112306 15.9177 0.112306 15.2006 0.112306C14.6128 0.112306 14.1308 0.112306 13.543 0.112306C13.0728 0.112306 12.5908 0.112299 12.3556 0C12.0029 0 11.6386 0.112293 11.521 0.449191C11.4034 0.786089 11.5209 1.123 11.7561 1.2353C14.1308 2.80749 14.0133 3.59358 13.7781 5.05348C13.6606 5.83957 13.543 6.73797 13.6605 7.86096C13.8957 9.43315 14.7304 10.8931 16.0353 11.9037C17.2226 12.9144 18.8802 13.4759 20.432 13.4759C21.8545 13.4759 23.1595 13.0267 24.2293 12.3529C24.9464 13.2513 25.6517 14.4866 26.3688 15.8342C28.3909 19.7647 30.5305 26.3904 29.8134 35.7112C27.9089 32.1176 25.1815 29.3102 23.0419 27.5134C23.0419 27.4011 23.1595 27.4011 23.1595 27.2888C24.2293 25.6043 24.4644 23.6952 23.8766 21.8984C23.4063 20.1016 22.0897 18.6417 20.3145 17.7433C18.6569 16.8449 16.87 16.3957 14.8479 16.3957C12.9434 16.3957 11.0507 16.8449 9.38139 17.1818C8.19402 17.4064 7.12422 17.631 6.28954 17.7433C5.93685 17.7433 5.70168 17.9679 5.57236 18.3048C5.4548 18.6417 5.68995 18.9786 6.04263 19.0909C9.01692 20.4385 9.01692 21.2246 9.13448 22.9091C9.13448 23.6952 9.25207 24.7059 9.60475 25.9412C10.1926 27.6257 11.3799 28.9733 13.0493 29.7594C14.2366 30.4332 15.424 30.77 16.7289 30.77C18.751 30.77 20.6437 29.984 21.9486 28.6364C23.9707 30.4332 26.5804 33.1283 28.3556 36.4973C25.0286 37.1711 22.4188 39.3048 21.2314 42.3369C20.3968 42 19.4563 41.8877 18.504 41.8877C14.7068 41.8877 11.3799 44.3583 10.5452 47.8396C10.4277 47.8396 10.3101 47.7273 10.1926 47.7273C10.1926 47.7273 10.1925 47.7273 10.075 47.7273C9.95739 47.7273 9.83982 47.7273 9.83982 47.615C9.83982 47.615 9.83985 47.615 9.72229 47.615C9.48716 47.615 9.25206 47.5027 9.00518 47.5027C9.00518 47.5027 9.00514 47.5027 8.88758 47.5027C8.77002 47.5027 8.65252 47.5027 8.65252 47.5027H8.54668C8.42912 47.5027 8.31157 47.5027 8.19401 47.5027C3.67968 47.5027 0 50.9839 0 55.2513C0 59.5187 3.67968 63 8.19401 63H52.8317C57.3461 63 61.0258 59.5187 61.0258 55.2513C61.0258 51.0962 57.3461 47.615 52.8317 47.615ZM22.6775 57.7219C22.0779 58.2834 21.1374 58.2834 20.5379 57.7219C19.9501 57.1604 19.9501 56.262 20.5379 55.7005C21.1257 55.139 22.0779 55.139 22.6775 55.7005C23.277 56.262 23.277 57.1604 22.6775 57.7219ZM27.1918 50.6471C26.604 51.2086 25.6517 51.2086 25.0522 50.6471C24.4644 50.0856 24.4644 49.1872 25.0522 48.6257C25.64 48.0642 26.5922 48.0642 27.1918 48.6257C27.7796 49.2995 27.7796 50.0856 27.1918 50.6471ZM36.0911 54.9144C35.5033 55.4759 34.5511 55.4759 33.9515 54.9144C33.3637 54.3529 33.3637 53.4545 33.9515 52.8931C34.5393 52.3316 35.4916 52.3316 36.0911 52.8931C36.6907 53.4545 36.6907 54.3529 36.0911 54.9144ZM44.6378 53.9037C44.2851 53.9037 43.9207 53.5668 43.9207 53.2299C43.9207 50.8716 41.8986 48.9626 39.4063 48.9626C39.0537 48.9626 38.6892 48.6257 38.6892 48.2888C38.6892 47.9519 39.0419 47.615 39.4063 47.615C42.7333 47.615 45.3431 50.0855 45.3431 53.2299C45.4725 53.5668 45.1198 53.9037 44.6378 53.9037Z" fill="#121212"/>
<path d="M5.34866 39.1923C7.3707 39.1923 9.02824 37.6201 9.02824 35.711C9.02824 33.8019 7.3707 32.2297 5.34866 32.2297C3.32662 32.2297 1.66901 33.8019 1.66901 35.711C1.65725 37.6201 3.32662 39.1923 5.34866 39.1923Z" fill="#121212"/>
<path d="M59.4851 23.6953C56.9928 23.6953 54.9707 25.6044 54.9707 27.9627C54.9707 30.321 56.9928 32.2301 59.4851 32.2301C61.9773 32.2301 63.9993 30.321 63.9993 27.9627C63.9993 25.6044 61.9773 23.6953 59.4851 23.6953Z" fill="#121212"/>
<path d="M2.58691 10.9829L4.69122 8.99524L6.78384 10.9829L4.69122 12.9706L2.58691 10.9829Z" fill="#121212"/>
<path d="M14.46 36.2504L16.5525 34.2627L18.6568 36.2504L16.5525 38.2381L14.46 36.2504Z" fill="#121212"/>
<path d="M42.4512 33.3865L44.5555 31.41L46.6598 33.3865L44.5555 35.3742L42.4512 33.3865Z" fill="#121212"/>
</svg>
