<?xml version="1.0" encoding="iso-8859-1"?>
<!-- Uploaded to: SVG Repo, www.svgrepo.com, Generator: SVG Repo Mixer Tools -->
<svg fill="#000000" version="1.1" id="Layer_1" xmlns="http://www.w3.org/2000/svg" xmlns:xlink="http://www.w3.org/1999/xlink" 
	 viewBox="0 0 512 512" xml:space="preserve">
<g>
	<g>
		<path d="M119.467,4.267H85.333c-5.12,0-8.533,3.413-8.533,8.533s3.413,8.533,8.533,8.533h34.133c5.12,0,8.533,3.413,8.533,8.533
			s-3.413,8.533-8.533,8.533H85.333C66.56,38.4,51.2,53.76,51.2,72.533c0,5.12,3.413,8.533,8.533,8.533s8.533-3.413,8.533-8.533
			c0-9.387,7.68-17.067,17.067-17.067h34.133c14.507,0,25.6-11.093,25.6-25.6S133.973,4.267,119.467,4.267z"/>
	</g>
</g>
<g>
	<g>
		<path d="M247.467,4.267h-25.6c-5.12,0-8.533,3.413-8.533,8.533s3.413,8.533,8.533,8.533h25.6c5.12,0,8.533,3.413,8.533,8.533
			s-3.413,8.533-8.533,8.533h-25.6c-18.773,0-34.133,15.36-34.133,34.133c0,5.12,3.413,8.533,8.533,8.533s8.533-3.413,8.533-8.533
			c0-9.387,7.68-17.067,17.067-17.067h25.6c14.507,0,25.6-11.093,25.6-25.6S261.973,4.267,247.467,4.267z"/>
	</g>
</g>
<g>
	<g>
		<path d="M409.6,234.667h-34.133c-5.12,0-8.533,3.413-8.533,8.533s3.413,8.533,8.533,8.533H409.6c5.12,0,8.533-3.413,8.533-8.533
			S414.72,234.667,409.6,234.667z"/>
	</g>
</g>
<g>
	<g>
		<path d="M409.6,345.6h-34.133c-5.12,0-8.533,3.413-8.533,8.533c0,5.12,3.413,8.533,8.533,8.533H409.6
			c5.12,0,8.533-3.413,8.533-8.533C418.133,349.013,414.72,345.6,409.6,345.6z"/>
	</g>
</g>
<g>
	<g>
		<path d="M409.6,166.4h-34.133c-5.12,0-8.533,3.413-8.533,8.533v34.133c0,5.12,3.413,8.533,8.533,8.533H409.6
			c5.12,0,8.533-3.413,8.533-8.533v-34.133C418.133,169.813,414.72,166.4,409.6,166.4z"/>
	</g>
</g>
<g>
	<g>
		<path d="M409.6,277.333h-34.133c-5.12,0-8.533,3.413-8.533,8.533V320c0,5.12,3.413,8.533,8.533,8.533H409.6
			c5.12,0,8.533-3.413,8.533-8.533v-34.133C418.133,280.747,414.72,277.333,409.6,277.333z"/>
	</g>
</g>
<g>
	<g>
		<path d="M409.6,388.267h-34.133c-5.12,0-8.533,3.413-8.533,8.533v34.133c0,5.12,3.413,8.533,8.533,8.533H409.6
			c5.12,0,8.533-3.413,8.533-8.533V396.8C418.133,391.68,414.72,388.267,409.6,388.267z"/>
	</g>
</g>
<g>
	<g>
		<path d="M409.6,456.533h-34.133c-5.12,0-8.533,3.413-8.533,8.533s3.413,8.533,8.533,8.533H409.6c5.12,0,8.533-3.413,8.533-8.533
			S414.72,456.533,409.6,456.533z"/>
	</g>
</g>
<g>
	<g>
		<rect x="238.933" y="362.667" width="17.067" height="17.067"/>
	</g>
</g>
<g>
	<g>
		<rect x="153.6" y="362.667" width="17.067" height="17.067"/>
	</g>
</g>
<g>
	<g>
		<rect x="68.267" y="362.667" width="17.067" height="17.067"/>
	</g>
</g>
<g>
	<g>
		<path d="M503.467,302.933h-34.133v-153.6H486.4c5.12,0,8.533-3.413,8.533-8.533v-34.133c0-5.12-3.413-8.533-8.533-8.533H298.667
			c-5.12,0-8.533,3.413-8.533,8.533V140.8c0,5.12,3.413,8.533,8.533,8.533h17.067v153.6H230.4v-153.6h8.533
			c5.12,0,8.533-3.413,8.533-8.533v-34.133c0-5.12-3.413-8.533-8.533-8.533H153.6c-5.12,0-8.533,3.413-8.533,8.533V140.8
			c0,5.12,3.413,8.533,8.533,8.533h8.533v153.6H93.867v-153.6h8.533c5.12,0,8.533-3.413,8.533-8.533v-34.133
			c0-5.12-3.413-8.533-8.533-8.533H17.067c-5.12,0-8.533,3.413-8.533,8.533V140.8c0,5.12,3.413,8.533,8.533,8.533H25.6v153.6H8.533
			c-5.12,0-8.533,3.413-8.533,8.533V499.2c0,5.12,3.413,8.533,8.533,8.533h315.733H460.8h42.667c5.12,0,8.533-3.413,8.533-8.533
			V311.467C512,306.347,508.587,302.933,503.467,302.933z M42.667,149.333H76.8v153.6H42.667V149.333z M93.867,465.067H59.733
			c-5.12,0-8.533-3.413-8.533-8.533S54.613,448,59.733,448h34.133c5.12,0,8.533,3.413,8.533,8.533S98.987,465.067,93.867,465.067z
			 M93.867,430.933H59.733c-5.12,0-8.533-3.413-8.533-8.533s3.413-8.533,8.533-8.533h34.133c5.12,0,8.533,3.413,8.533,8.533
			S98.987,430.933,93.867,430.933z M102.4,388.267c0,5.12-3.413,8.533-8.533,8.533H59.733c-5.12,0-8.533-3.413-8.533-8.533v-34.133
			c0-5.12,3.413-8.533,8.533-8.533h34.133c5.12,0,8.533,3.413,8.533,8.533V388.267z M179.2,465.067h-34.133
			c-5.12,0-8.533-3.413-8.533-8.533s3.413-8.533,8.533-8.533H179.2c5.12,0,8.533,3.413,8.533,8.533S184.32,465.067,179.2,465.067z
			 M179.2,430.933h-34.133c-5.12,0-8.533-3.413-8.533-8.533s3.413-8.533,8.533-8.533H179.2c5.12,0,8.533,3.413,8.533,8.533
			S184.32,430.933,179.2,430.933z M187.733,388.267c0,5.12-3.413,8.533-8.533,8.533h-34.133c-5.12,0-8.533-3.413-8.533-8.533
			v-34.133c0-5.12,3.413-8.533,8.533-8.533H179.2c5.12,0,8.533,3.413,8.533,8.533V388.267z M213.333,302.933H179.2v-153.6h34.133
			V302.933z M264.533,465.067H230.4c-5.12,0-8.533-3.413-8.533-8.533S225.28,448,230.4,448h34.133c5.12,0,8.533,3.413,8.533,8.533
			S269.653,465.067,264.533,465.067z M264.533,430.933H230.4c-5.12,0-8.533-3.413-8.533-8.533s3.413-8.533,8.533-8.533h34.133
			c5.12,0,8.533,3.413,8.533,8.533S269.653,430.933,264.533,430.933z M273.067,388.267c0,5.12-3.413,8.533-8.533,8.533H230.4
			c-5.12,0-8.533-3.413-8.533-8.533v-34.133c0-5.12,3.413-8.533,8.533-8.533h34.133c5.12,0,8.533,3.413,8.533,8.533V388.267z
			 M452.267,311.467v179.2H332.8v-179.2V149.333h119.467V311.467z"/>
	</g>
</g>
</svg>