<svg width="257" height="570" viewBox="0 0 257 570" fill="none" xmlns="http://www.w3.org/2000/svg">
<path d="M120.299 556.804C151.258 574.484 201.6 574.376 232.75 556.615C263.901 538.826 264.064 510.106 233.105 492.425C202.146 474.745 151.804 474.853 120.654 492.614C89.5035 510.376 89.3397 539.123 120.299 556.804Z" fill="#C7D0E1" fill-opacity="0.19"/>
<path d="M65.9976 134.099C65.9976 134.099 70.0537 142.733 71.8364 145.313C73.6191 147.868 75.4018 150.422 79.3805 151.521C83.3851 152.619 85.7103 151.24 87.7255 152.006C89.7407 152.798 104.08 156.655 108.472 155.224C109.195 154.969 110.099 154.279 111.055 153.258C115.887 148.2 122.526 135.53 119.865 135.453C116.636 135.351 97.2073 136.04 95.9413 135.146C94.7012 134.252 88.5005 126.129 86.8729 124.494C85.2452 122.86 79.3289 122.579 79.3289 122.579C79.3289 122.579 78.1145 120.56 78.0629 118.696C78.0112 116.831 76.3836 116.141 75.2726 116.652C74.5234 116.984 73.645 118.108 73.2574 119.743C73.0507 120.586 72.9732 121.557 73.0766 122.579C73.4641 125.669 75.5826 127.1 75.5826 127.1L65.9976 134.099Z" fill="#FEA5A4"/>
<path d="M65.9976 134.099C65.9976 134.099 70.0537 142.733 71.8364 145.313C73.6191 147.868 75.4018 150.422 79.3805 151.521C83.3851 152.619 85.7103 151.24 87.7255 152.006C89.7407 152.798 104.08 156.655 108.472 155.225C109.195 154.969 110.099 154.279 111.055 153.258C107.619 152.21 101.263 151.393 99.5842 151.393C97.1298 151.367 90.7741 150.141 90.7741 150.141C90.7741 150.141 92.3243 145.722 92.7635 144.343C93.1768 142.963 89.689 148.583 89.689 148.583C89.689 148.583 86.8213 150.243 86.4337 150.269C86.0462 150.269 83.2042 149.809 83.2042 149.809L79.2771 148.353L81.1891 146.207L89.534 143.985C89.534 143.985 88.2939 143.27 87.4413 142.555C86.5887 141.839 85.5294 139.157 84.8318 138.084C84.1601 137.037 83.7985 132.771 82.7909 131.059C81.8091 129.348 82.0158 130.012 80.2848 129.322C78.5538 128.633 75.1693 126.027 75.1693 126.027C74.6784 123.166 74.0325 121.123 73.2574 119.692C73.0507 120.535 72.9732 121.506 73.0766 122.528C73.4641 125.618 75.5826 127.049 75.5826 127.049L65.9976 134.099Z" fill="url(#paint0_linear_182_18)"/>
<path d="M30.6552 87.8121L32.5154 86.7137L32.0504 85.0022L30.1902 86.1262L30.6552 87.8121Z" fill="#80848E"/>
<path d="M30.1894 86.1265L32.0496 85.0025L30.7061 84.415L28.8459 85.5134L30.1894 86.1265Z" fill="#4C5260"/>
<path d="M30.1894 86.1263L30.6544 87.8123L29.311 87.1993L28.8459 85.5133L30.1894 86.1263Z" fill="#4C5260"/>
<path d="M21.6651 93.1511L23.551 92.0527L23.086 90.3413L21.2258 91.4652L21.6651 93.1511Z" fill="#80848E"/>
<path d="M21.2245 91.4647L23.0847 90.3408L21.7413 89.7533L19.8811 90.8517L21.2245 91.4647Z" fill="#4C5260"/>
<path d="M21.2245 91.4651L21.6638 93.151L21.7671 97.8768L19.8811 90.8521L21.2245 91.4651Z" fill="#4C5260"/>
<path d="M35.2015 130.957V122.323L33.5481 122.399V130.957C33.5481 130.982 33.5481 131.008 33.5481 131.008V131.033C33.5739 131.136 33.6514 131.238 33.7806 131.314C34.1165 131.493 34.6332 131.493 34.969 131.314C35.1241 131.212 35.2015 131.084 35.2015 130.957Z" fill="url(#paint1_linear_182_18)"/>
<path d="M44.1948 126.563V117.929L42.5413 118.006V126.563C42.5413 126.589 42.5413 126.614 42.5413 126.614V126.64C42.5671 126.742 42.6446 126.844 42.7738 126.921C43.1096 127.1 43.6264 127.1 43.9623 126.921C44.1173 126.819 44.1948 126.691 44.1948 126.563Z" fill="url(#paint2_linear_182_18)"/>
<path d="M34.298 127.099L45.1491 120.662L44.8908 119.691L30.0093 125.158L34.298 127.099Z" fill="#39404F"/>
<path d="M33.8844 125.618L44.7355 119.155L40.4467 117.214L29.5957 123.676L33.8844 125.618Z" fill="#535454"/>
<path d="M33.2391 165.672C27.6328 160.18 22.879 150.601 22.5948 147.689C22.5948 147.561 22.2589 146.693 22.6723 144.189C22.7756 143.499 23.1374 142.452 23.6799 141.558C24.145 140.792 26.5477 140.843 26.9869 139.796C28.382 136.398 37.6571 135.913 37.6571 135.913C37.6571 135.913 52.8744 126.896 56.8015 127.713C60.7285 128.505 81.1905 131.315 81.6039 132.005C86.5643 139.821 83.7224 147.28 80.2346 148.353C78.4519 148.889 74.4732 149.4 70.0036 148.072C65.534 146.744 65.0431 146.207 63.493 146.897C61.9428 147.587 58.6617 151.342 56.6465 152.542C54.6313 153.717 48.8182 155.276 47.5522 156.221C46.2863 157.166 49.2574 154.228 49.7483 157.83C50.6784 164.88 47.8364 167.562 46.1571 168.354C44.6327 168.993 38.8455 171.164 33.2391 165.672Z" fill="#B8B8C7"/>
<path d="M34.325 159.542C28.7186 154.05 23.9649 144.471 23.6807 141.559C23.6548 141.252 25.7217 138.059 25.98 137.65C28.3052 134.074 38.7688 129.783 38.7688 129.783C38.7688 129.783 53.9861 120.765 57.9132 121.583C61.8402 122.375 74.0089 127.611 80.442 132.644C82.0438 133.895 82.3797 133.027 82.8447 134.074C84.2399 137.242 82.1213 141.456 81.4754 142.197C80.6229 143.193 78.3493 144.087 73.8797 142.785C69.4101 141.456 66.1548 140.077 64.6046 140.767C63.0545 141.456 59.7733 145.211 57.7582 146.412C55.743 147.587 49.9298 149.145 48.6639 150.09C47.3979 151.036 48.6639 153.59 49.5682 156.987C50.4724 160.385 48.8189 162.684 47.2946 163.067C45.7444 163.45 39.9314 165.034 34.325 159.542Z" fill="#E7E7EC"/>
<path d="M42.8232 157.421C40.3688 157.293 38.1211 156.22 36.1059 154.253C30.9129 149.17 26.5466 140.434 25.9524 137.624C27.2183 135.785 33.9873 131.136 39.8779 127.738C45.2776 124.545 54.9402 119.539 57.8596 119.692C57.9371 119.692 57.9888 119.692 58.0405 119.717C61.735 120.458 73.8262 125.669 80.0527 130.548C82.6363 132.592 82.8946 134.022 82.8688 134.533C82.8429 135.325 82.1712 136.091 81.4995 136.781C81.3445 136.934 81.2152 137.088 81.1119 137.19C81.1119 137.19 80.4401 137.88 78.2958 137.777C77.3657 137.726 76.2806 137.522 75.118 137.19C74.0846 136.883 73.1286 136.577 72.2502 136.296C70.0025 135.58 68.2456 135.018 66.8246 134.942C66.0754 134.891 65.4554 134.993 64.9128 135.248C63.8535 135.734 62.5876 136.909 61.0891 138.288C59.9781 139.335 58.7122 140.511 57.8855 140.97C57.0329 141.481 55.121 142.145 53.4417 142.733C50.9873 143.602 49.4372 144.138 48.6104 144.777C46.3368 146.488 47.2411 149.4 48.042 151.98C48.2487 152.67 48.4812 153.385 48.6879 154.126C49.0238 155.377 48.8171 155.888 48.7654 156.016C48.6362 156.271 48.4296 156.91 47.9904 157.038C47.8354 157.089 47.6545 157.14 47.422 157.191C46.4661 157.472 44.7351 157.523 42.8232 157.421Z" fill="#F6F6F8"/>
<path d="M33.6782 130.6L31.7405 132.873L33.2389 131.851C33.2389 131.851 34.4274 133.052 35.59 132.873C36.7526 132.694 44.7359 127.892 44.7359 127.892C44.7359 127.892 46.0794 126.717 46.0536 125.363C44.1159 125.746 33.6782 130.6 33.6782 130.6Z" fill="#80848E"/>
<path d="M39.2074 127.227C39.2074 127.227 41.7134 125.746 44.9429 124.034L45.6664 124.673C45.6664 124.673 45.6663 124.673 45.6921 124.673C46.3122 125.235 46.1055 126.052 45.2788 126.512C42.8502 127.84 41.1192 128.862 41.1192 128.862C41.1192 128.862 39.3624 129.859 37.063 131.315C36.2621 131.8 35.0994 131.774 34.4535 131.238C34.4535 131.238 34.4536 131.238 34.4277 131.238L33.7043 130.599C36.6755 128.684 39.2074 127.227 39.2074 127.227Z" fill="#4C5260"/>
<path d="M60.0058 132.157C62.4602 134.508 66.9298 134.967 70.0043 133.179C73.0787 131.391 73.5696 128.019 71.1411 125.669C68.6867 123.319 64.2171 122.859 61.1426 124.647C58.0681 126.435 57.5773 129.807 60.0058 132.157Z" fill="#4C5260"/>
<path d="M61.7377 131.161C63.417 132.796 66.5173 133.103 68.61 131.876C70.7286 130.65 71.0645 128.326 69.3851 126.691C67.7058 125.056 64.6055 124.75 62.5128 125.976C60.3943 127.202 60.0583 129.526 61.7377 131.161Z" fill="#333333"/>
<path d="M64.1377 129.756C64.7577 130.37 65.9203 130.472 66.7212 130.012C67.5221 129.552 67.6513 128.684 67.0054 128.07C66.3853 127.457 65.2227 127.355 64.4218 127.815C63.6467 128.275 63.5176 129.143 64.1377 129.756Z" fill="#4C5260"/>
<path d="M45.8461 131.289C46.4661 131.825 47.6029 131.877 48.378 131.417C49.1789 130.957 49.3081 130.14 48.7139 129.603C48.0938 129.067 46.957 129.016 46.182 129.475C45.381 129.961 45.226 130.753 45.8461 131.289Z" fill="#B8B8C7"/>
<path d="M46.4139 131.34C46.7498 131.647 47.3699 131.672 47.8091 131.417C48.2483 131.161 48.3516 130.625 48.0157 130.344C47.6799 130.037 47.0598 130.012 46.6206 130.267C46.1814 130.497 46.078 131.034 46.4139 131.34Z" fill="#FFB531"/>
<path d="M46.7775 130.804C46.9841 130.983 47.3717 131.008 47.6559 130.855C47.9401 130.702 47.9659 130.421 47.7592 130.242C47.5525 130.063 47.1649 130.038 46.8807 130.191C46.6224 130.344 46.5708 130.625 46.7775 130.804Z" fill="#FFFF4F"/>
<path d="M46.2339 140.204C48.5333 142.58 47.8875 146.233 44.7613 148.353C41.6352 150.473 37.2431 150.243 34.9179 147.868C32.6185 145.492 33.2643 141.839 36.3905 139.719C39.5166 137.599 43.9345 137.829 46.2339 140.204Z" fill="#4C5260"/>
<path d="M44.4769 141.405C46.0787 143.04 45.6136 145.569 43.4434 147.025C41.2991 148.481 38.2504 148.327 36.6745 146.693C35.0726 145.058 35.5377 142.529 37.7079 141.073C39.8522 139.591 42.875 139.744 44.4769 141.405Z" fill="#333333"/>
<path d="M39.078 145.032C39.6722 145.645 40.809 145.696 41.61 145.159C42.4109 144.623 42.5917 143.678 41.9975 143.065C41.4033 142.452 40.2664 142.401 39.4655 142.937C38.6646 143.473 38.4838 144.419 39.078 145.032Z" fill="#4C5260"/>
<path d="M10.4242 134.584L13.1628 135.401L14.0929 132.413L14.7646 131.493L54.0868 107.762C55.8178 106.715 56.8771 104.493 56.4379 102.807L50.4956 80.3274L52.4591 77.6452L50.0305 76.6489C49.2813 76.3679 47.3953 77.3131 46.4394 77.8751L4.53365 103.266C2.80265 104.314 1.74337 106.536 2.18258 108.222L8.7449 132.617C8.95159 133.486 9.33911 134.099 10.4242 134.584Z" fill="#B8B8C7"/>
<path d="M48.7383 77.6199L6.29 103.215C4.55899 104.263 3.49971 106.485 3.93892 108.171L10.6046 133.384C10.7855 134.022 11.1472 134.507 11.638 134.788L12.1806 134.993C12.2064 134.993 12.2065 134.993 12.2323 135.018L13.1882 135.402L14.1183 132.413L14.79 131.493L54.1122 107.762C55.8432 106.715 56.9025 104.493 56.4633 102.807L50.521 80.3276L52.4845 77.6454L51.4252 77.2367C50.6502 76.9302 49.6684 77.0323 48.7383 77.6199Z" fill="#E7E7EC"/>
<path d="M60.4681 104.39L53.8025 79.1779C53.3633 77.492 51.5806 76.9811 49.8237 78.0539L7.37544 103.65C5.64444 104.697 4.58516 106.919 5.02437 108.605L11.69 133.818C12.1292 135.504 13.9119 135.989 15.6687 134.942L58.117 109.346C59.848 108.299 60.9073 106.076 60.4681 104.39Z" fill="#F6F6F8"/>
<path d="M13.3966 134.687C13.4999 134.789 13.6808 134.942 14.0684 134.942C14.5076 134.967 14.9984 134.814 15.4893 134.508L57.9634 109.014C59.4878 108.095 60.4437 106.128 60.082 104.697L53.4164 79.4848C53.3389 79.2294 53.2355 78.9995 53.0805 78.8462C52.9772 78.744 52.7963 78.5908 52.4088 78.5908C51.9695 78.5652 51.4787 78.7184 50.962 79.025L8.48781 104.518C6.9635 105.438 6.00755 107.405 6.36925 108.835L13.0349 134.048C13.1383 134.303 13.2674 134.533 13.3966 134.687Z" fill="#3A3B3B"/>
<path d="M13.9648 133.767C13.8356 133.639 13.7323 133.46 13.6806 133.23L7.45417 109.729L7.19579 108.784C7.01494 108.069 7.22161 107.226 7.66082 106.46C7.99669 105.923 8.43592 105.438 8.97847 105.131L48.8432 81.196C49.2565 80.9406 49.6958 80.8129 50.0575 80.8384C50.3933 80.864 50.5483 80.9661 50.6259 81.0683C50.755 81.196 50.8584 81.3748 50.9101 81.6047L57.369 106.051C57.6791 107.251 56.8523 108.937 55.5864 109.704L15.7216 133.639C15.3082 133.894 14.869 134.022 14.5073 133.997C14.2231 133.971 14.0681 133.843 13.9648 133.767Z" fill="#0B0B0B"/>
<path d="M53.312 87.0199L56.8515 100.431C57.3424 102.296 58.4791 103.675 60.0035 104.211H60.236L53.9837 80.9148L53.9062 81.0681C53.0277 83.0094 52.8211 85.1551 53.312 87.0199Z" fill="#F6F6F8"/>
<path d="M58.1938 101.172C58.478 100.993 58.6589 100.585 58.5814 100.252C58.5039 99.9204 58.1939 99.7925 57.9097 99.9713C57.6255 100.15 57.4446 100.559 57.5222 100.891C57.5997 101.223 57.9096 101.351 58.1938 101.172Z" fill="#3A3B3B"/>
<path d="M54.2673 85.7428C54.4998 85.5895 54.6548 85.2575 54.5773 84.9765C54.5256 84.6955 54.2673 84.5933 54.0348 84.7466C53.8022 84.8999 53.6472 85.2319 53.7248 85.5129C53.7764 85.7939 54.0348 85.8961 54.2673 85.7428Z" fill="#3A3B3B"/>
<path d="M57.8071 99.1027C58.0138 98.975 58.143 98.694 58.0655 98.4641C58.0138 98.2342 57.8071 98.1576 57.6004 98.2597C57.3938 98.3875 57.2646 98.6684 57.3421 98.8983C57.3937 99.1538 57.6004 99.2305 57.8071 99.1027Z" fill="#743B3B"/>
<path d="M54.9138 88.9869L57.084 96.9313C57.1099 97.008 57.1874 97.0335 57.2649 96.9824C57.3424 96.9313 57.3941 96.8291 57.3683 96.7525L55.198 88.8082C55.1721 88.7315 55.0947 88.7059 55.0172 88.757C54.9397 88.8081 54.9138 88.9103 54.9138 88.9869Z" fill="#3A3B3B"/>
<path d="M36.1072 86.9948L28.0205 91.7972C27.1679 92.3081 25.9537 92.2826 24.8169 91.7717L19.8306 90.8776L19.5205 89.7281L24.8944 89.8559C25.9795 90.3412 27.1679 90.3412 27.9947 89.8559L32.3351 87.2758C32.981 86.8927 32.4643 86.7394 31.6117 86.3818L28.7698 85.5388L28.4598 84.3893L35.6163 85.3089C35.9521 85.4622 35.8746 84.5681 36.0038 84.8236C36.0296 84.8747 36.3655 86.0752 36.3655 86.1263C36.5205 86.4584 36.443 86.7904 36.1072 86.9948Z" fill="#4C5260"/>
<path d="M35.8237 85.8449L27.7371 90.6472C26.8845 91.1581 25.6702 91.1326 24.5334 90.6217L19.5471 89.7276L21.4073 88.6292L24.6109 88.7058C25.696 89.1912 26.8845 89.1912 27.7113 88.7058L32.0517 86.1258C32.6976 85.7426 31.4574 85.5128 30.6049 85.1296L28.5122 84.3888L30.3723 83.2904L35.3586 84.1845C36.2112 84.5421 36.4437 85.4617 35.8237 85.8449Z" fill="#3A3B3B"/>
<path d="M34.2986 127.1L45.1497 120.662L44.2713 117.418L33.446 123.881L34.2986 127.1Z" fill="#80848E"/>
<path d="M33.4458 123.881L44.271 117.419L43.5476 117.112L32.6965 123.549L33.4458 123.881Z" fill="#4C5260"/>
<path d="M33.4458 123.882L33.885 125.619L33.1616 125.286L32.6965 123.549L33.4458 123.882Z" fill="#39404F"/>
<path d="M9.05666 141.916C7.17064 141.916 5.25876 141.533 3.45025 140.562C1.56423 139.566 0.169128 137.292 0.0141133 134.891C-0.115066 132.796 0.659997 131.034 2.26182 129.91C4.07033 128.633 6.62811 127.176 6.73145 127.125L7.53236 128.505C7.50652 128.53 4.94879 129.961 3.19195 131.187C1.69347 132.26 1.56425 133.869 1.61592 134.738C1.7451 136.577 2.80437 138.365 4.19951 139.08C11.6661 142.989 20.5019 136.245 24.2998 133.384C24.894 132.924 25.3591 132.592 25.6433 132.388C28.0719 130.829 29.8545 130.932 30.6813 131.136C31.4822 131.34 32.1281 131.775 32.4639 132.362L31.0688 133.154C30.9654 132.95 30.6813 132.796 30.3196 132.694C29.8545 132.592 28.5369 132.464 26.5475 133.741C26.2633 133.92 25.85 134.252 25.3074 134.661C22.388 136.909 15.7998 141.916 9.05666 141.916Z" fill="#7C747E"/>
<path d="M87.9064 497.138C87.9064 497.138 87.0797 502.885 87.3639 504.239C87.6481 505.593 88.6299 512.669 100.773 518.391C112.916 524.113 120.02 521.916 122.165 522.223C124.309 522.529 128.753 523.883 128.934 524.879C129.089 525.875 129.89 527.204 129.89 527.204C129.89 527.204 137.589 531.444 142.653 532.415C147.716 533.386 152.729 532.108 156.32 530.141C159.911 528.174 161.099 525.773 161.022 523.525C160.944 521.277 160.815 517.063 160.815 517.063C160.815 517.063 161.099 513.818 153.323 510.804C145.546 507.815 98.215 492.31 93.4612 492.948C88.6816 493.613 87.9064 497.138 87.9064 497.138Z" fill="#6F403C"/>
<path d="M138.443 478.159C140.665 479.845 150.741 484.596 155.004 485.388C159.293 486.205 166.501 487.278 168.309 487.789C169.007 487.993 169.679 488.479 170.402 489.092C171.487 490.088 172.624 491.416 173.942 492.464C176.086 494.175 179.057 501.557 187.867 502.579C196.677 503.627 201.095 499.463 201.767 497.215C202.464 494.941 202.335 490.854 201.483 488.351C201.354 487.942 201.173 487.559 200.966 487.227C199.855 485.337 197.943 484.085 197.943 484.085C197.943 484.085 184.405 477.009 174.122 471.747C168.335 468.758 163.607 466.357 162.91 466.102C161.308 465.514 156.735 461.427 152.756 460.635C152.033 460.482 151.309 460.456 150.664 460.584C150.457 460.61 150.276 460.661 150.069 460.712C145.884 461.81 140.923 466.51 140.484 467.047C140.2 467.404 138.521 471.211 137.952 474.301C137.616 476.013 137.668 477.546 138.443 478.159Z" fill="#6F403C"/>
<path d="M109.249 491.263C109.249 491.263 96.124 490.037 93.8763 490.599C91.6286 491.161 87.9082 492.974 88.3991 500.714C88.89 508.454 94.9356 512.592 101.498 515.121C106.484 517.037 107.311 517.574 117.697 519.132C121.391 519.694 126.61 520.435 129.866 521.507C135.756 523.449 139.141 525.876 143.352 525.825C148.778 525.773 154.746 525.927 157.691 521.022C160.636 516.118 159.474 514.636 159.344 509.144C159.034 496.959 158.104 495.222 153.867 492.617C150.379 490.496 140.562 487.84 132.553 489.321C124.466 490.803 115.088 492.336 109.249 491.263Z" fill="#5F587E"/>
<path d="M137.927 474.302C138.263 475.4 138.831 476.371 139.632 477.06C143.249 480.228 160.895 483.14 167.277 484.724C168.336 484.979 169.343 485.388 170.299 485.924C175.027 488.402 178.67 493.383 185.207 495.657C193.035 498.416 200.036 493.256 200.656 491.646C201.018 490.701 201.096 489.449 200.967 487.227C200.863 485.643 200.631 483.549 200.321 480.739C199.649 475.119 199.571 473.586 197.944 470.265C197.634 469.627 197.246 468.886 196.781 468.069C194.973 464.748 178.799 460.405 176.138 459.92C175.906 459.869 175.647 459.843 175.441 459.843C173.245 459.767 171.953 461.35 169.266 461.504C169.033 461.504 168.698 461.529 168.258 461.504C165.442 461.376 158.777 460.61 152.757 460.635C151.827 460.661 150.922 460.661 150.07 460.712C146.944 460.865 144.205 461.325 142.603 462.321C138.34 464.927 136.739 470.47 137.927 474.302Z" fill="#5F587E"/>
<path d="M125.523 492.004C125.523 492.004 120.098 497.598 128.727 502.579C137.331 507.586 145.831 508.965 151.308 507.279C156.785 505.619 159.084 503.754 158.128 497.598C157.379 492.668 140.017 484.57 125.523 492.004Z" fill="#312C5E"/>
<path d="M172.311 461.325C172.311 461.325 174.611 460.635 182.439 462.423C190.293 464.211 193.368 465.795 195.538 467.813C197.708 469.831 198.509 472.028 197.475 475.4C196.442 478.772 191.43 481.198 182.904 477.622C174.378 474.046 171.33 471.21 168.927 469.065C166.524 466.919 167.842 462.627 172.311 461.325Z" fill="#312C5E"/>
<path d="M164.794 369.236C169.728 387.27 168.643 459.97 168.643 459.97C168.643 459.97 168.282 460.507 168.256 461.503C168.178 463.265 169.134 466.459 174.947 470.495C184.042 476.83 194.841 474.428 197.915 471.746C197.89 471.286 197.915 470.801 197.941 470.239C198.329 459.97 203.16 418.971 203.238 392.686C203.315 365.047 192.516 358.277 198.639 324.277C199.285 320.676 199.491 317.278 200.499 314.29C204.581 302.258 209.464 294.697 208.921 275.334C208.896 274.772 208.896 274.185 208.844 273.597C208.741 270.915 208.508 268.028 208.198 264.886C208.121 264.222 208.043 263.584 207.966 262.894C207.785 261.387 207.604 259.803 207.371 258.168C203.883 233.211 186.108 232.854 186.108 232.854C186.108 232.854 157.741 247.363 156.113 277.812C156.087 278.144 156.061 278.476 156.061 278.834C155.984 280.903 155.958 283.023 155.932 285.194C155.906 285.731 155.932 286.267 155.932 286.778C155.906 288.745 155.932 290.712 155.958 292.73L156.01 294.212C156.526 322.464 160.66 354.063 164.794 369.236Z" fill="url(#paint3_linear_182_18)"/>
<path d="M137.927 474.301C137.617 476.013 137.643 477.545 138.444 478.133C140.666 479.819 150.742 484.57 155.005 485.362C159.293 486.179 166.501 487.252 168.31 487.763C169.008 487.967 169.679 488.453 170.403 489.066C170.377 487.942 170.325 486.869 170.299 485.898C170.196 483.88 170.093 482.297 169.886 481.632C169.292 479.487 172.547 474.122 174.123 471.696C174.614 470.955 174.95 470.469 174.95 470.469C174.95 470.469 175.208 466.306 175.441 459.792C175.88 447.786 175.854 411.564 174.511 395.292C172.418 370.207 173.71 352.224 172.78 339.068C171.875 325.913 177.585 297.584 177.585 297.584C177.585 297.584 168.62 286.753 156.09 277.787C156.064 278.145 156.038 278.451 156.038 278.809C155.004 309.973 159.888 351.151 164.796 369.185C169.731 387.22 168.646 459.92 168.646 459.92C168.646 459.92 168.284 460.456 168.258 461.452C165.442 461.324 158.777 460.558 152.757 460.584C152.033 460.43 151.31 460.405 150.664 460.533C150.457 460.558 150.277 460.609 150.07 460.66C146.944 460.814 144.205 461.273 142.603 462.27C138.34 464.926 136.739 470.469 137.927 474.301Z" fill="#69423B"/>
<path d="M180.738 288.49C180.738 288.925 180.712 289.384 180.686 289.819C180.634 292.501 180.427 295.285 180.066 298.172C177.327 319.91 165.624 322.72 163.918 340.116C162.187 357.537 155.754 379.582 159.216 399.66C162.704 419.713 160.353 502.017 160.353 502.017C160.353 502.017 157.976 509.016 141.39 506.666C134.646 505.721 130.59 503.933 128.084 501.941C127.49 501.481 126.973 500.97 126.56 500.484C124.364 497.981 124.105 495.401 123.795 493.894C123.175 490.854 122.219 383.976 119.894 368.087C117.646 352.76 110.438 312.758 113.332 286.191C113.383 285.68 113.461 285.144 113.538 284.659C113.564 284.301 113.616 283.969 113.668 283.611C113.952 281.67 114.494 279.907 115.269 278.247C115.45 277.864 115.657 277.506 115.838 277.123C126.844 257.377 172.78 258.808 176.449 260.161C176.449 260.161 179.601 268.259 180.505 280.674C180.557 281.108 180.582 281.568 180.608 282.028C180.712 284.097 180.763 286.242 180.738 288.49Z" fill="url(#paint4_linear_182_18)"/>
<path d="M197.608 288.618L207.89 282.462L208.02 286.012L197.349 293.063L187.377 296.537L187.248 292.322L197.608 288.618Z" fill="#AD7168"/>
<path d="M146.838 300.011C146.838 300.011 166.655 299.04 172.08 296.996C172.338 299.219 172.338 299.219 172.338 299.219L172.416 301.645C172.416 301.645 155.519 304.583 150.972 304.532C146.425 304.481 142.472 304.813 142.472 304.813L142.317 300.138L146.838 300.011Z" fill="#AD7168"/>
<path d="M128.056 501.966C127.461 501.507 126.945 500.996 126.531 500.51C126.273 479.257 124.619 371.919 119.633 346.604C114.543 320.983 115.965 291.019 117.024 282.998L118.522 283.203C117.437 291.147 116.068 320.881 121.106 346.298C126.247 372.404 127.849 484.775 128.056 501.966Z" fill="#AD7168"/>
<path d="M112.761 279.268C113.045 279.907 113.381 280.495 113.717 281.031C113.975 281.414 114.259 281.797 114.569 282.129C117.101 284.914 120.718 285.731 124.568 287.162C133.171 290.406 142.162 290.023 151.204 290.61C161.875 291.325 172.803 290.942 183.267 288.669C191.663 286.855 201.352 279.09 206.493 271.784C209.103 264.504 208.767 242.638 208.689 223.837C208.612 205.036 210.679 190.373 218.481 162.147C226.283 133.895 224.837 130.216 224.449 117.699C224.062 105.182 216.776 98.0555 211.014 95.6033C205.279 93.1765 191.818 94.607 191.818 94.607L161.668 102.807C161.668 102.807 124.258 116.729 118.961 124.852C115.318 130.472 115.758 151.98 116.068 176.196C116.119 181.535 116.197 187.002 116.223 192.443C116.223 192.596 116.223 192.775 116.223 192.928C116.223 195.406 116.223 197.832 116.197 200.285C116.197 200.412 116.197 200.54 116.197 200.668C116.197 202.022 116.171 203.376 116.145 204.729C116.119 206.186 116.094 207.667 116.068 209.098C115.99 211.959 115.861 214.845 115.706 217.732C115.473 221.768 115.189 225.778 114.879 229.763C114.802 230.708 114.724 231.654 114.647 232.599C114.543 233.569 114.466 234.54 114.363 235.511C114.259 236.481 114.182 237.426 114.078 238.397C113.432 244.732 112.735 250.812 111.986 256.406C111.701 258.526 111.366 260.698 111.133 262.869C110.565 268.463 110.487 274.108 112.761 279.268Z" fill="#DDE8F6"/>
<path d="M112.761 279.268C113.045 279.907 113.381 280.495 113.717 281.031C113.975 281.414 114.259 281.797 114.569 282.129C118.729 246.725 123.069 199.442 123.069 199.442C128.03 189.582 145.03 163.986 145.03 163.986C135.264 145.16 127.926 160.716 127.926 160.716C127.926 160.716 121.287 168.354 116.094 176.222C116.145 181.561 116.223 187.027 116.249 192.468C116.249 192.621 116.249 192.8 116.249 192.954C116.249 193.618 116.249 194.256 116.223 194.921C116.223 196.734 116.223 198.522 116.197 200.31C116.197 200.438 116.197 200.566 116.197 200.694C116.197 202.047 116.171 203.401 116.145 204.755C116.119 206.211 116.094 207.693 116.068 209.123C115.99 211.984 115.861 214.871 115.706 217.757C115.473 221.793 115.189 225.804 114.879 229.789C114.802 230.734 114.698 231.679 114.647 232.624C114.543 233.595 114.466 234.566 114.363 235.536C114.259 236.507 114.182 237.452 114.078 238.423C113.432 244.758 112.735 250.837 111.986 256.432C111.701 258.654 111.417 260.825 111.133 262.895C110.565 268.463 110.487 274.108 112.761 279.268Z" fill="#D9CFCF"/>
<path d="M113.487 284.684C118.008 287.519 124.416 289.767 132.657 291.402C138.961 292.654 145.859 293.139 152.887 292.935C153.894 292.909 154.902 292.858 155.909 292.807C164.306 292.322 172.806 290.866 180.712 288.515C191.951 285.22 202.027 280.162 208.821 273.674C208.718 270.992 208.485 268.105 208.175 264.963C208.098 264.299 208.02 263.661 207.943 262.971C203.396 270.711 192.932 276.842 180.479 280.724C172.754 283.151 164.254 284.709 155.909 285.271C148.288 285.757 140.796 285.425 134.156 284.096C123.641 282.002 118.422 279.345 115.812 277.199C115.606 277.557 115.425 277.94 115.244 278.323C114.469 279.958 113.926 281.746 113.642 283.688C113.59 283.994 113.539 284.326 113.487 284.684Z" fill="#7D5147"/>
<path d="M113.304 286.191C117.825 289.078 124.31 291.377 132.732 293.037C138.597 294.212 145.108 294.646 151.851 294.442C153.22 294.391 154.59 294.34 155.985 294.238C164.252 293.65 172.778 292.169 180.71 289.818C191.897 286.523 201.998 281.619 208.922 275.386C208.897 274.824 208.897 274.236 208.845 273.649C208.742 270.967 208.509 268.08 208.199 264.938C203.549 271.963 193.111 278.042 180.606 282.053C172.881 284.505 164.381 286.217 155.933 286.83C148.415 287.366 140.974 287.085 134.231 285.731C122.812 283.483 117.618 280.52 115.267 278.298C114.492 279.933 113.95 281.721 113.666 283.662C113.614 283.994 113.562 284.326 113.536 284.684C113.407 285.169 113.356 285.68 113.304 286.191Z" fill="#E7928E"/>
<path d="M206.855 280.418L204.452 279.856C205.046 277.353 204.504 269.638 204.22 266.879L206.674 266.649C206.726 267.084 207.656 277.021 206.855 280.418Z" fill="#7D5147"/>
<path d="M184.794 293.702L182.391 293.14C182.985 290.636 182.443 282.922 182.158 280.163L184.613 279.933C184.665 280.342 185.62 290.304 184.794 293.702Z" fill="#7D5147"/>
<path d="M146.063 297.61C144.538 294.187 145.184 286.549 145.262 285.68L148.259 285.961C148.052 288.081 147.794 294.084 148.827 296.409L146.063 297.61Z" fill="#7D5147"/>
<path d="M118.187 292.245C117.179 288.618 118.988 281.184 119.195 280.341L122.114 281.056C121.597 283.126 120.409 289.026 121.081 291.453L118.187 292.245Z" fill="#7D5147"/>
<path d="M26.0567 156.016C26.4959 157.958 28.7695 161.329 28.7695 161.329C28.7695 161.329 27.736 164.344 27.7877 166.132C27.8394 167.92 29.6995 169.708 29.6995 169.708C29.6995 169.708 29.6737 171.471 30.7329 172.748C31.818 174.025 37.657 177.014 41.0156 178.495C44.3743 179.977 47.8363 179.211 47.8363 179.211C47.8363 179.211 68.1175 212.368 72.9229 216.787C74.5247 218.268 79.6919 221.793 86.8226 220.465C93.9533 219.137 119.608 189.709 119.608 189.709C132.268 158.571 105.269 157.753 103.59 158.826C103.203 159.082 102.169 159.848 100.826 160.87C100.826 160.895 100.826 160.895 100.826 160.895C96.4594 164.267 80.7253 191.728 80.7253 191.728C80.7253 191.728 56.9306 168.022 56.233 166.822C56.078 166.566 55.9487 166.081 55.8454 165.442C55.4578 163.347 55.0703 159.797 53.1327 158.034C50.6007 155.786 45.0202 152.133 41.9974 151.929C38.9746 151.725 36.8561 150.703 34.4017 150.371C31.9214 150.09 31.7664 151.01 31.7664 151.01L30.9397 152.159L30.888 152.057L28.9503 148.404C28.9503 148.404 27.0126 149.86 26.9093 150.243C26.8318 150.677 25.6174 154.075 26.0567 156.016Z" fill="#FEA5A4"/>
<path d="M135.598 47.3241C136.503 49.3421 136.399 55.2429 136.632 56.2647C136.864 57.2609 138.44 66.0228 139.19 71.9747C139.706 76.0107 139.422 80.5832 140.74 83.3931C141.36 84.7469 142.342 85.6921 143.943 86.0242C148.956 86.9949 154.588 87.0714 154.588 87.0714C154.588 87.0714 155.647 92.8701 156.37 104.902C162.571 102.373 170.218 104.007 182.62 101.657C195.021 99.2818 197.346 94.9903 197.372 93.6109C197.372 92.257 191.972 86.0497 191.611 78.3352C191.507 76.3683 191.636 73.7372 191.895 70.8762C192.618 62.5231 194.323 52.3564 194.323 52.3564C187.27 8.11324 141.076 13.8097 138.776 15.1125C136.451 16.3897 134.436 21.0388 134.048 30.2093C133.661 39.3543 134.694 45.3061 135.598 47.3241Z" fill="#FEB9B8"/>
<path d="M154.28 53.2506C154.28 53.2506 156.864 56.9801 157.407 58.1552C157.949 59.3302 158.647 61.8592 158.233 64.2348C157.794 66.6105 155.676 69.1649 155.624 69.8035C155.572 70.4166 154.978 71.0807 154.332 71.0807C153.712 71.1063 152.084 68.8583 151.645 68.2452C151.206 67.6322 152.446 58.5128 152.446 58.5128L154.28 53.2506Z" fill="url(#paint5_linear_182_18)"/>
<path d="M140.742 83.3929C141.362 84.7467 142.343 85.6919 143.945 86.0239C148.957 86.9946 154.59 87.0712 154.59 87.0712C154.59 87.0712 155.649 92.8699 156.372 104.901C162.573 102.372 170.22 104.007 182.622 101.657C195.023 99.2816 197.348 94.9901 197.374 93.6107C197.374 92.2568 191.974 86.0495 191.612 78.335C191.509 76.3681 191.638 73.737 191.897 70.876C191.897 70.876 189.778 78.6415 191.923 84.3891C194.093 90.111 194.351 92.6144 194.351 92.6144C194.351 92.6144 189.21 97.519 176.214 98.3875C163.219 99.256 158.155 100.329 158.155 100.329C158.155 100.329 156.062 94.0194 155.881 88.2463C155.701 82.4732 155.701 82.4732 155.701 82.4732C155.701 82.4732 145.754 84.619 141.982 84.1081C141.517 84.057 141.129 83.8016 140.742 83.3929Z" fill="url(#paint6_linear_182_18)"/>
<path d="M79.7421 192.903L80.7238 191.753C80.7238 191.753 56.9291 168.048 56.2315 166.847C56.0765 166.592 55.9472 166.106 55.8439 165.468L53.5962 167.026L55.1205 168.38L79.7421 192.903Z" fill="url(#paint7_linear_182_18)"/>
<path d="M26.0567 156.016C26.496 157.957 28.7696 161.329 28.7696 161.329C28.7696 161.329 27.7361 164.344 27.7878 166.132C27.8395 167.92 29.6996 169.708 29.6996 169.708C29.6996 169.708 29.6738 171.471 30.733 172.748C31.8181 174.025 37.6571 177.014 41.0157 178.495C44.3744 179.977 47.8364 179.211 47.8364 179.211C47.8364 179.211 61.9428 204.959 69.5902 214.053C74.7832 220.235 79.692 221.793 86.8227 220.465C93.9534 219.137 119.608 189.709 119.608 189.709C132.268 158.57 105.269 157.753 103.59 158.826C103.203 159.081 102.169 159.848 100.826 160.87C100.826 160.895 100.826 160.895 100.826 160.895C100.567 162.709 92.6874 171.368 93.0233 172.722C97.0279 188.202 108.938 193.311 108.938 193.311C108.938 193.311 111.083 198.292 101.162 207.667C91.4473 216.863 88.0886 220.772 81.1388 219.673C74.189 218.575 72.3029 216.301 67.1616 208.868C62.0203 201.434 47.8364 177.55 47.7847 176.324C47.7589 175.098 47.7072 173.821 47.7072 173.821C47.7072 173.821 47.0872 175.277 47.0872 176.784C47.0613 178.291 46.7254 177.78 46.7254 177.78C46.7254 177.78 45.0203 179.338 40.7316 177.601C36.4687 175.864 30.9139 171.777 30.9139 171.777C30.9139 171.777 31.5082 170.628 31.689 170.576C31.8957 170.5 32.7741 170.551 32.7741 170.551C32.7741 170.551 30.578 168.993 30.113 168.022C29.6479 167.026 29.5188 165.238 29.5188 165.238L31.3273 164.293L33.0066 164.241C33.0066 164.241 28.9762 160.205 28.5112 159.158C28.0203 158.111 27.0386 156.834 27.0127 155.301C26.9611 153.743 27.2969 152.235 27.4003 152.057C27.5294 151.878 29.4155 152.261 29.4155 152.261L30.7589 154.305L34.2984 156.706L41.8166 157.728L39.1814 155.965L34.8151 155.096C34.8151 155.096 32.6191 155.173 31.4306 154.024C30.9914 153.589 30.8623 152.9 30.8623 152.184L28.9246 148.531C28.9246 148.531 26.9869 149.988 26.8835 150.371C26.8318 150.677 25.6175 154.075 26.0567 156.016Z" fill="url(#paint8_linear_182_18)"/>
<path d="M129.762 11.2807C130.072 9.13497 132.94 4.28147 136.014 5.73751C139.089 7.19355 142.577 5.53319 142.577 5.53319C153.454 0.296559 167.56 -0.904016 176.37 0.603112C189.753 2.90212 197.452 13.2221 199.958 18.1011C202.464 22.9801 203.808 51.028 201.173 57.4652C198.537 63.9024 191.768 72.3322 191.768 72.3322C191.768 72.3322 189.882 73.6094 186.989 74.4268C184.095 75.2442 178.437 75.8062 173.451 73.4305C168.464 71.0549 165.571 66.3803 164.847 64.4389C164.124 62.4975 156.632 49.6486 150.818 51.0536C149.217 51.4368 147.873 52.3819 147.279 53.9401C146.685 55.4473 146.866 57.082 146.788 58.6658C145.987 58.4359 145.186 58.1805 144.54 57.6696C144.127 57.3631 143.559 57.031 143.197 56.6733C142.887 56.3668 142.861 55.907 142.758 55.4727C142.525 54.4254 142.267 53.3781 142.034 52.3308C141.647 50.6449 141.285 48.9334 140.768 47.273C140.252 45.5104 138.056 44.7441 136.557 42.6494C135.084 40.5548 135.549 37.2595 135.42 33.7088C135.317 30.1581 136.919 21.2431 136.919 21.2431C136.919 21.2431 135.859 20.911 133.948 20.1191C132.966 19.7104 131.803 18.944 130.899 18.2799C126.404 16.4151 129.452 13.4265 129.762 11.2807Z" fill="#7C3F4E"/>
<path d="M148.415 52.3564C148.415 52.3564 148.673 48.4226 152.342 51.2069C156.011 53.9913 156.269 58.6403 156.45 61.4502C156.631 64.2346 154.176 70.3909 152.833 69.3946C151.489 68.3984 150.172 66.1249 150.017 64.2601C149.862 62.3954 149.707 57.7208 149.681 56.699C149.655 55.6772 148.415 52.3564 148.415 52.3564Z" fill="url(#paint9_linear_182_18)"/>
<path d="M148.647 53.0202C148.647 53.0202 150.145 52.2283 151.153 54.2974C152.186 56.3921 153.297 60.1982 153.504 62.1907C153.685 64.1832 153.117 66.1756 152.367 66.2778C151.618 66.38 149.887 62.0118 149.887 62.0118C149.887 62.0118 149.525 53.6077 148.647 53.0202Z" fill="url(#paint10_linear_182_18)"/>
<path d="M91.5776 166.413C91.5776 166.413 89.7432 171.19 97.1065 181.407C104.47 191.625 113.047 193.975 117.078 194.001C121.134 194.026 139.426 173.131 145.084 167.128C150.716 161.125 148.365 136.986 135.292 129.143C122.219 121.301 120.281 123.983 118.989 124.852C117.698 125.72 91.5776 166.413 91.5776 166.413Z" fill="#E6F1FF"/>
<path fill-rule="evenodd" clip-rule="evenodd" d="M39.512 110.225L34.1659 100.93L31.621 99.7612L30.9175 100.166L30.6475 102.953L35.9936 112.249L38.5385 113.417L39.242 113.013L39.512 110.225Z" fill="#FFCE48"/>
<path fill-rule="evenodd" clip-rule="evenodd" d="M39.512 110.225L34.1659 100.93L31.621 99.7612L30.9175 100.166L30.6475 102.953L35.9936 112.249L38.5385 113.417L39.242 113.013L39.512 110.225Z" fill="url(#paint11_radial_182_18)"/>
<path fill-rule="evenodd" clip-rule="evenodd" d="M30.7002 100.041L31.6225 99.5107L34.3365 100.757L39.7472 110.165L39.4593 113.137L38.537 113.668L35.823 112.422L30.4123 103.014L30.7002 100.041ZM31.1348 100.29L30.8828 102.893L36.1642 112.076L38.5401 113.167L39.0247 112.888L39.2768 110.286L33.9953 101.103L31.6194 100.012L31.1348 100.29Z" fill="white"/>
<path fill-rule="evenodd" clip-rule="evenodd" d="M38.6511 115.641L34.3135 113.629L32.5481 110.522L26.3577 99.7578L28.2195 117.247L31.8021 119.61L32.2024 119.349L38.6511 115.641Z" fill="#37468C"/>
<path fill-rule="evenodd" clip-rule="evenodd" d="M38.6511 115.641L34.3135 113.629L32.5481 110.522L26.3577 99.7578L28.2195 117.247L31.8021 119.61L32.2024 119.349L38.6511 115.641Z" fill="url(#paint12_linear_182_18)"/>
<path fill-rule="evenodd" clip-rule="evenodd" d="M25.9724 98.5661L32.7739 110.393L34.5039 113.438L39.1873 115.61L32.329 119.554L31.7868 119.907L27.9766 117.394L25.9724 98.5661ZM28.4623 117.1L31.8173 119.313L32.0758 119.145L38.1149 115.672L34.1231 113.82L32.3226 110.651L26.743 100.95L28.4623 117.1Z" fill="white"/>
<path fill-rule="evenodd" clip-rule="evenodd" d="M40.9665 114.309L41.4091 109.548L39.6112 106.459L33.4209 95.6957L47.601 106.1L47.842 110.385L47.4153 110.6L40.9665 114.309Z" fill="#37468C"/>
<path fill-rule="evenodd" clip-rule="evenodd" d="M40.9665 114.309L41.4091 109.548L39.6112 106.459L33.4209 95.6957L47.601 106.1L47.842 110.385L47.4153 110.6L40.9665 114.309Z" fill="url(#paint13_linear_182_18)"/>
<path fill-rule="evenodd" clip-rule="evenodd" d="M32.5847 94.7633L39.3862 106.59L41.1481 109.616L40.6702 114.757L47.5285 110.812L48.1064 110.521L47.8501 105.964L32.5847 94.7633ZM47.3521 106.236L47.5778 110.249L47.3023 110.388L41.2631 113.861L41.6704 109.48L39.8368 106.33L34.2573 96.628L47.3521 106.236Z" fill="white"/>
<defs>
<linearGradient id="paint0_linear_182_18" x1="89.0059" y1="155.583" x2="87.0719" y2="104.22" gradientUnits="userSpaceOnUse">
<stop offset="0.2656" stop-color="#F07A7A"/>
<stop offset="0.9922" stop-color="#FEA5A4"/>
</linearGradient>
<linearGradient id="paint1_linear_182_18" x1="33.5357" y1="126.876" x2="35.2021" y2="126.876" gradientUnits="userSpaceOnUse">
<stop offset="0.2676" stop-color="#B0B0B0"/>
<stop offset="0.4568" stop-color="#BBBBBB"/>
<stop offset="0.6757" stop-color="#DFDFDF"/>
<stop offset="0.8405" stop-color="#B9B9B9"/>
</linearGradient>
<linearGradient id="paint2_linear_182_18" x1="42.5374" y1="122.482" x2="44.2041" y2="122.482" gradientUnits="userSpaceOnUse">
<stop offset="0.2676" stop-color="#B0B0B0"/>
<stop offset="0.4568" stop-color="#BBBBBB"/>
<stop offset="0.6757" stop-color="#DFDFDF"/>
<stop offset="0.8405" stop-color="#B9B9B9"/>
</linearGradient>
<linearGradient id="paint3_linear_182_18" x1="182.41" y1="474.54" x2="182.41" y2="232.891" gradientUnits="userSpaceOnUse">
<stop offset="0.138" stop-color="#784C42"/>
<stop offset="0.9453" stop-color="#7D5147"/>
</linearGradient>
<linearGradient id="paint4_linear_182_18" x1="146.678" y1="507.166" x2="146.678" y2="259.502" gradientUnits="userSpaceOnUse">
<stop offset="0.138" stop-color="#784C42"/>
<stop offset="0.9453" stop-color="#7D5147"/>
</linearGradient>
<linearGradient id="paint5_linear_182_18" x1="154.498" y1="62.3949" x2="161.126" y2="68.1477" gradientUnits="userSpaceOnUse">
<stop offset="0.2656" stop-color="#F07A7A"/>
<stop offset="0.9922" stop-color="#FEA5A4"/>
</linearGradient>
<linearGradient id="paint6_linear_182_18" x1="166.495" y1="103.165" x2="172.457" y2="68.4076" gradientUnits="userSpaceOnUse">
<stop offset="0.2656" stop-color="#F07A7A"/>
<stop offset="0.9922" stop-color="#FEA5A4"/>
</linearGradient>
<linearGradient id="paint7_linear_182_18" x1="61.2329" y1="205.806" x2="77.6425" y2="131.129" gradientUnits="userSpaceOnUse">
<stop offset="0.2656" stop-color="#F07A7A"/>
<stop offset="0.9922" stop-color="#FEA5A4"/>
</linearGradient>
<linearGradient id="paint8_linear_182_18" x1="74.3511" y1="183.259" x2="74.9477" y2="91.7518" gradientUnits="userSpaceOnUse">
<stop offset="0.2656" stop-color="#F07A7A"/>
<stop offset="0.9922" stop-color="#FEA5A4"/>
</linearGradient>
<linearGradient id="paint9_linear_182_18" x1="149.776" y1="60.2941" x2="157.883" y2="58.26" gradientUnits="userSpaceOnUse">
<stop offset="0.0495" stop-color="#FEB9B8"/>
<stop offset="0.9922" stop-color="#FEC8C7"/>
</linearGradient>
<linearGradient id="paint10_linear_182_18" x1="159.247" y1="58.748" x2="142.303" y2="60.4219" gradientUnits="userSpaceOnUse">
<stop offset="0.2656" stop-color="#F07A7A"/>
<stop offset="0.9922" stop-color="#FEB9B8"/>
</linearGradient>
<radialGradient id="paint11_radial_182_18" cx="0" cy="0" r="1" gradientUnits="userSpaceOnUse" gradientTransform="translate(34.6126 105.939) rotate(60.0964) scale(10.6993 11.4629)">
<stop stop-color="white"/>
<stop offset="0.0001" stop-color="#FBF8B0"/>
<stop offset="1" stop-color="white" stop-opacity="0"/>
</radialGradient>
<linearGradient id="paint12_linear_182_18" x1="29.2786" y1="96.6647" x2="39.9466" y2="115.214" gradientUnits="userSpaceOnUse">
<stop stop-color="#BED3F9"/>
<stop offset="1" stop-color="#293A8B"/>
</linearGradient>
<linearGradient id="paint13_linear_182_18" x1="29.2786" y1="96.6647" x2="39.9466" y2="115.214" gradientUnits="userSpaceOnUse">
<stop stop-color="#BED3F9"/>
<stop offset="1" stop-color="#293A8B"/>
</linearGradient>
</defs>
</svg>
