<svg width="24" height="24" viewBox="0 0 24 24" fill="none" xmlns="http://www.w3.org/2000/svg">
<path d="M23.5 12.0621C23.5 17.7168 19.4583 22.4116 14.1248 23.4128V15.7586H16.7304H17.1595L17.2246 15.3345L17.7118 12.1634L17.8003 11.5875H17.2176H14.1236V10.3541C14.1236 9.73594 14.2264 9.21413 14.4255 8.86478C14.6059 8.54831 14.8622 8.36812 15.2784 8.36812H17.2488H17.7488V7.86812V5.10107V4.66432L17.316 4.60561L17.3006 4.60351C16.9338 4.55372 16.1808 4.4515 14.7876 4.4515C13.2586 4.4515 11.9616 4.85858 11.0523 5.80907C10.1469 6.75558 9.706 8.15784 9.706 9.97779V11.5875H7.2372H6.7372V12.0875V15.2586V15.7586H7.2372H9.706V23.3784C4.45661 22.3093 0.5 17.6564 0.5 12.0621C0.5 5.67392 5.65097 0.5 12 0.5C18.349 0.5 23.5 5.67392 23.5 12.0621Z" stroke="#AAAAAA"/>
</svg>
