<svg width="17" height="17" viewBox="0 0 17 17" fill="none" xmlns="http://www.w3.org/2000/svg">
<path d="M13.4119 13.3798L12.4121 13.4014L12.413 13.4429L12.4173 13.4843L13.4119 13.3798ZM12.9036 12.7271L12.1781 13.4153L12.1946 13.4327L12.2119 13.4493L12.9036 12.7271ZM11.6986 11.4568L10.9461 12.1154L10.9524 12.1226L10.9588 12.1297L11.6986 11.4568ZM8.21251 11.2749L8.94929 10.5987L8.94204 10.5908L8.93462 10.5831L8.21251 11.2749ZM5.80398 6.70651L6.78275 6.50155L6.78056 6.49106L6.77813 6.48061L5.80398 6.70651ZM7.6235 3.72741L6.65036 3.95761L6.65256 3.96693L6.65494 3.97621L7.6235 3.72741ZM7.2562 2.01543L6.26953 2.17814L6.27343 2.20178L6.27845 2.2252L7.2562 2.01543ZM7.00482 1.22727L6.35671 1.98881L6.38838 2.01577L6.42219 2.04001L7.00482 1.22727ZM5.56622 1.04363L5.6707 2.03815L5.68151 2.03702L5.6923 2.03565L5.56622 1.04363ZM4.33999 1.80431L3.64851 1.08184L3.64127 1.08892L4.33999 1.80431ZM3.31062 5.67293L4.30957 5.62702L4.30939 5.62345L3.31062 5.67293ZM3.55647 7.3847L4.52462 7.13431L4.52452 7.13393L3.55647 7.3847ZM6.38311 12.7461L7.13695 12.0891L7.1367 12.0888L6.38311 12.7461ZM7.65657 13.9161L8.2617 13.12L8.25884 13.1178L7.65657 13.9161ZM11.4301 15.2525L11.6256 16.2333L11.6355 16.2312L11.4301 15.2525ZM12.7506 14.6706L12.0033 14.0061L11.9961 14.0142L11.989 14.0225L12.7506 14.6706ZM14.3373 13.8626C14.3484 13.8268 14.4381 13.5768 14.4064 13.2753L12.4173 13.4843C12.4079 13.3949 12.4174 13.3238 12.4252 13.284C12.4288 13.2654 12.4322 13.2534 12.4326 13.2519C12.4329 13.251 12.4327 13.2518 12.4317 13.2551C12.4305 13.2589 12.4292 13.2631 12.4267 13.2711L14.3373 13.8626ZM14.4116 13.3583C14.4048 13.042 14.2704 12.8005 14.2034 12.6912C14.1226 12.5594 14.029 12.4466 13.9553 12.3642C13.8128 12.205 13.6382 12.046 13.5953 12.0049L12.2119 13.4493C12.2339 13.4704 12.2602 13.495 12.281 13.5147C12.3039 13.5362 12.3261 13.5572 12.3485 13.5789C12.3943 13.6231 12.4337 13.6631 12.4651 13.6981C12.4804 13.7152 12.491 13.728 12.4977 13.7366C12.5048 13.7457 12.5039 13.7455 12.4984 13.7366C12.4938 13.7291 12.4769 13.7008 12.4593 13.6543C12.4425 13.6098 12.4147 13.5215 12.4121 13.4014L14.4116 13.3583ZM13.6291 12.0389C13.2071 11.594 12.8206 11.2042 12.4383 10.7839L10.9588 12.1297C11.3575 12.568 11.7967 13.0133 12.1781 13.4153L13.6291 12.0389ZM12.4511 10.7982C12.4318 10.7762 12.4067 10.744 12.3541 10.6755C12.3094 10.6172 12.2433 10.5305 12.1701 10.4452C12.0438 10.2982 11.7738 10.0033 11.3566 9.87418L10.7652 11.7847C10.6782 11.7578 10.6298 11.7202 10.6213 11.7133C10.6132 11.7068 10.6228 11.7133 10.6531 11.7485C10.6838 11.7843 10.7163 11.8262 10.7666 11.892C10.8092 11.9475 10.8756 12.0349 10.9461 12.1154L12.4511 10.7982ZM11.3566 9.87418C11.0585 9.78189 10.7858 9.81609 10.6038 9.85936C10.4167 9.90385 10.248 9.97662 10.1137 10.0436C9.84994 10.175 9.57853 10.3567 9.37312 10.4942C9.1386 10.6513 8.97485 10.7613 8.84232 10.8315C8.77847 10.8654 8.76259 10.8675 8.78268 10.8619C8.79174 10.8594 8.93709 10.8169 9.13877 10.8793L8.54732 12.7899C8.86415 12.888 9.14891 12.8357 9.31581 12.7896C9.49374 12.7403 9.65413 12.6648 9.77914 12.5986C10.0243 12.4686 10.2887 12.2881 10.4861 12.156C10.7125 12.0043 10.8767 11.8979 11.0056 11.8337C11.0676 11.8028 11.0845 11.8008 11.0664 11.8051C11.0535 11.8082 10.9332 11.8367 10.7652 11.7847L11.3566 9.87418ZM9.13877 10.8793C9.18291 10.893 9.21445 10.9083 9.23248 10.918C9.25062 10.9278 9.26029 10.9349 9.26121 10.9356C9.26233 10.9364 9.25836 10.9335 9.24907 10.9253C9.23992 10.9172 9.22779 10.9058 9.21237 10.8904C9.18029 10.8582 9.14432 10.8188 9.09899 10.7675C9.06204 10.7257 8.99967 10.6536 8.94929 10.5987L7.47573 11.951C7.49843 11.9758 7.67712 12.1832 7.79627 12.3027C7.91899 12.4258 8.1817 12.6767 8.54732 12.7899L9.13877 10.8793ZM8.93462 10.5831C7.77838 9.37618 7.12531 8.13747 6.78275 6.50155L4.82521 6.91146C5.24445 8.91355 6.07536 10.4896 7.4904 11.9667L8.93462 10.5831ZM6.77813 6.48061C6.7613 6.40802 6.73712 6.31587 6.72347 6.26175C6.70673 6.19534 6.69456 6.14341 6.68615 6.09877C6.6821 6.07732 6.67958 6.06088 6.67807 6.04875C6.67654 6.03645 6.67643 6.03157 6.67648 6.03295C6.67651 6.03409 6.67687 6.04606 6.67472 6.06657C6.67258 6.08695 6.66735 6.1216 6.65369 6.16574L4.74314 5.57429C4.62996 5.93991 4.68856 6.29845 4.72075 6.46922C4.75201 6.63503 4.82225 6.8997 4.82983 6.9324L6.77813 6.48061ZM6.65369 6.16574C6.59125 6.36742 6.47405 6.46332 6.46685 6.46939C6.45092 6.48282 6.46162 6.4709 6.52563 6.43734C6.65848 6.36769 6.84173 6.29472 7.10383 6.18996C7.3334 6.09821 7.63666 5.97692 7.89411 5.83355C8.02524 5.76052 8.18059 5.66245 8.323 5.53321C8.46154 5.40748 8.64384 5.2018 8.73612 4.90369L6.82557 4.31224C6.87759 4.14421 6.96907 4.06113 6.97895 4.05216C6.9927 4.03968 6.98154 4.05253 6.92103 4.08623C6.7952 4.1563 6.61465 4.23165 6.36157 4.3328C6.14102 4.42095 5.84277 4.53715 5.59697 4.66602C5.47165 4.73172 5.31873 4.82139 5.1776 4.9404C5.04521 5.05203 4.84122 5.25747 4.74314 5.57429L6.65369 6.16574ZM8.73612 4.90369C8.86526 4.48655 8.77449 4.09721 8.72453 3.90987C8.69558 3.8013 8.6614 3.69776 8.63853 3.62794C8.61165 3.54586 8.59934 3.50699 8.59205 3.47861L6.65494 3.97621C6.68156 4.07983 6.71611 4.18398 6.73788 4.25044C6.76366 4.32917 6.77993 4.37969 6.79207 4.42521C6.80405 4.47013 6.80396 4.48168 6.80317 4.47132C6.80235 4.4604 6.79864 4.39924 6.82557 4.31224L8.73612 4.90369ZM8.59664 3.4972C8.46586 2.94435 8.36258 2.40521 8.23395 1.80566L6.27845 2.2252C6.39469 2.76697 6.51394 3.38093 6.65036 3.95761L8.59664 3.4972ZM8.24288 1.85272C8.23321 1.79413 8.20067 1.56023 8.14986 1.35276C8.12355 1.24534 8.08333 1.10437 8.02026 0.963263C7.96795 0.846209 7.84461 0.598886 7.58746 0.414536L6.42219 2.04001C6.32453 1.97 6.26738 1.89716 6.24015 1.8581C6.21171 1.81733 6.19795 1.78743 6.19433 1.77934C6.19008 1.76981 6.19041 1.76899 6.19393 1.77998C6.19724 1.79034 6.20183 1.8063 6.20728 1.82857C6.21848 1.87431 6.2292 1.92938 6.23982 1.99217C6.24501 2.02289 6.24981 2.05311 6.25466 2.08414C6.25907 2.11242 6.26457 2.14806 6.26953 2.17814L8.24288 1.85272ZM7.65294 0.46573C7.42208 0.269252 7.16518 0.202052 7.12936 0.190962L6.53791 2.10151C6.5459 2.10398 6.55017 2.10531 6.55389 2.10649C6.55726 2.10756 6.55796 2.10781 6.55709 2.10751C6.55562 2.10701 6.54382 2.103 6.52639 2.09549C6.48918 2.07945 6.42515 2.04706 6.35671 1.98881L7.65294 0.46573ZM7.12936 0.190962C6.87087 0.110943 6.54829 0.0680193 6.28411 0.0471025C6.017 0.0259528 5.69913 0.0186897 5.44014 0.0516051L5.6923 2.03565C5.75438 2.02776 5.91669 2.02427 6.12625 2.04086C6.33875 2.05769 6.48934 2.08647 6.53791 2.10151L7.12936 0.190962ZM5.46173 0.0490989C4.98815 0.0988542 4.60158 0.3116 4.32634 0.50442C4.04964 0.69826 3.81054 0.926832 3.64855 1.08188L5.03143 2.52674C5.20149 2.36398 5.33881 2.23708 5.47387 2.14246C5.61039 2.04682 5.6709 2.03813 5.6707 2.03815L5.46173 0.0490989ZM3.64127 1.08892C3.12331 1.59481 2.69579 2.19421 2.45861 2.96036L4.36916 3.55181C4.48579 3.17504 4.69924 2.85127 5.03872 2.5197L3.64127 1.08892ZM2.45861 2.96036C2.14625 3.96937 2.27741 5.02731 2.31184 5.72241L4.30939 5.62345C4.26388 4.70487 4.19041 4.12923 4.36916 3.55181L2.45861 2.96036ZM2.31167 5.71883C2.34075 6.35164 2.42294 6.99663 2.58842 7.63546L4.52452 7.13393C4.40046 6.655 4.33364 6.15096 4.30956 5.62702L2.31167 5.71883ZM2.58833 7.63508C3.07395 9.51278 4.35462 11.9419 5.62952 13.4035L7.1367 12.0888C6.06615 10.8615 4.9324 8.71104 4.52462 7.13431L2.58833 7.63508ZM5.62926 13.4032C6.06286 13.9006 6.5486 14.3329 7.05429 14.7144L8.25884 13.1178C7.84015 12.8019 7.46203 12.462 7.13695 12.0891L5.62926 13.4032ZM7.05144 14.7122C7.6055 15.1334 8.4043 15.8393 9.41331 16.1517L10.0048 14.2411C9.42734 14.0624 8.9939 13.6765 8.2617 13.12L7.05144 14.7122ZM9.41331 16.1517C10.1795 16.3889 10.9156 16.3748 11.6256 16.2332L11.2346 14.2718C10.7693 14.3646 10.3815 14.3578 10.0048 14.2411L9.41331 16.1517ZM11.6355 16.2312C11.855 16.1852 12.1787 16.117 12.4949 15.9982C12.8096 15.8801 13.2035 15.6813 13.5121 15.3187L11.989 14.0225C11.9892 14.0223 11.9478 14.0673 11.7918 14.1259C11.6374 14.1839 11.4551 14.2255 11.2247 14.2739L11.6355 16.2312ZM13.4979 15.3351C13.6713 15.14 13.8449 14.8736 13.9784 14.6413C14.1104 14.4115 14.2573 14.1211 14.3373 13.8626L12.4267 13.2711C12.4117 13.3197 12.3504 13.4602 12.2442 13.6451C12.1395 13.8273 12.0449 13.9593 12.0033 14.0061L13.4979 15.3351Z" fill="#FFD562"/>
</svg>
