<svg width="21" height="21" viewBox="0 0 21 21" fill="none" xmlns="http://www.w3.org/2000/svg">
<path d="M6.88955 14.2008C7.75441 15.4202 8.61788 16.5108 9.19013 17.2132C9.27343 17.3154 9.35148 17.4103 9.42708 17.5016H7.70019C7.50688 17.5016 7.3502 17.6583 7.3502 17.8516C7.3502 18.0449 7.50688 18.2016 7.70019 18.2016H13.3002C13.4935 18.2016 13.6501 18.0449 13.6501 17.8516C13.6501 17.6583 13.4935 17.5016 13.3002 17.5016H11.5733C11.6489 17.4103 11.7269 17.3154 11.8106 17.2132C12.3825 16.5132 13.2456 15.4202 14.1108 14.2008C14.9692 13.0152 15.7419 11.7699 16.4229 10.4743C17.1376 9.07081 17.5002 7.90568 17.5002 7.01109C17.5026 5.15221 16.765 3.36884 15.4502 2.0547C15.3624 1.96364 15.2323 1.92706 15.1099 1.95901C14.9875 1.99096 14.8919 2.08645 14.8598 2.2088C14.8277 2.33115 14.864 2.46129 14.955 2.54923C16.1384 3.73229 16.8023 5.33768 16.8002 7.01104C16.8002 7.79436 16.4635 8.85273 15.7992 10.1565C15.1336 11.422 14.3784 12.6385 13.5396 13.7965C12.6863 15.0002 11.8333 16.0785 11.2681 16.7715C11.0802 17.0018 10.9111 17.2055 10.7669 17.3777C10.6996 17.4546 10.6024 17.4987 10.5002 17.4987C10.398 17.4987 10.3008 17.4546 10.2335 17.3777C10.0893 17.2056 9.92029 17.0018 9.73232 16.7715C9.16708 16.0789 8.31411 15.0005 7.46082 13.7965C6.62201 12.6385 5.86687 11.422 5.20122 10.1565C4.53623 8.85273 4.20023 7.79436 4.20023 7.01104C4.20003 4.4759 5.71613 2.18648 8.05026 1.19718C9.61862 0.539536 11.3854 0.539536 12.9538 1.19718C13.0689 1.24599 13.2014 1.22971 13.3013 1.15436C13.4011 1.07906 13.4532 0.956174 13.4379 0.832019C13.4226 0.707865 13.3423 0.601306 13.2271 0.552497C9.66292 -0.950813 5.55486 0.719103 4.05044 4.2828C3.68561 5.14602 3.49849 6.07392 3.50026 7.01104C3.50026 7.90564 3.86288 9.07082 4.57758 10.4761C5.25852 11.771 6.03122 13.0158 6.88955 14.2008Z" fill="#FFD562"/>
<path d="M10.5002 3.85159C10.6935 3.85159 10.8502 3.69491 10.8502 3.5016C10.8502 3.30829 10.6935 3.15161 10.5002 3.15161C8.83043 3.15157 7.39315 4.3311 7.06737 5.96878C6.74158 7.60646 7.61804 9.24619 9.16069 9.88521C10.7033 10.5242 12.4826 9.98451 13.4102 8.59617C14.3379 7.20783 14.1557 5.35748 12.975 4.17676C12.8871 4.08579 12.757 4.04928 12.6346 4.08132C12.5123 4.11335 12.4167 4.20892 12.3847 4.33127C12.3527 4.45366 12.3892 4.58376 12.4801 4.67166C13.4247 5.61621 13.5705 7.09643 12.8284 8.20713C12.0863 9.31784 10.663 9.74965 9.42885 9.23852C8.19472 8.72738 7.49352 7.41561 7.75405 6.10544C8.01458 4.79528 9.16438 3.85163 10.5002 3.85159Z" fill="#FFD562"/>
<path d="M20.8682 19.1013L18.7157 15.2513C18.5211 14.9092 18.1569 14.699 17.7634 14.7014H15.2689C15.0756 14.7014 14.9189 14.8581 14.9189 15.0514C14.9189 15.2447 15.0756 15.4014 15.2689 15.4014H17.7634C17.9035 15.3987 18.0342 15.4718 18.1053 15.5925L20.2571 19.4425C20.3158 19.5427 20.3145 19.6669 20.254 19.7659C20.1825 19.8841 20.0532 19.9548 19.9152 19.9515H1.08514C0.947245 19.9547 0.818128 19.8839 0.746678 19.7659C0.686139 19.6669 0.684949 19.5427 0.74352 19.4425L2.89533 15.5925C2.96633 15.4718 3.09692 15.3987 3.23691 15.4014H5.73137C5.92467 15.4014 6.08135 15.2447 6.08135 15.0514C6.08135 14.8581 5.92467 14.7014 5.73137 14.7014H3.23695C2.8432 14.6989 2.47873 14.9091 2.28391 15.2513L0.131729 19.1013C-0.0477153 19.4183 -0.0435727 19.8071 0.142598 20.1202C0.338735 20.4536 0.698403 20.6563 1.08514 20.6515H19.9152C20.3018 20.6562 20.6614 20.4535 20.8574 20.1202C21.0436 19.8071 21.0477 19.4183 20.8682 19.1013Z" fill="#FFD562"/>
<path d="M17.1502 16.4519H15.7502C15.6811 16.452 15.6135 16.4725 15.5559 16.5107L14.5059 17.2107C14.3451 17.318 14.3017 17.5354 14.409 17.6962C14.5163 17.857 14.7336 17.9004 14.8944 17.7932L15.8552 17.152H17.1502C17.3435 17.152 17.5002 16.9952 17.5002 16.802C17.5002 16.6086 17.3435 16.4519 17.1502 16.4519Z" fill="#FFD562"/>
<path d="M15.05 18.9017C15.05 19.0951 15.2067 19.2517 15.4 19.2517H18.2001C18.3934 19.2517 18.55 19.0951 18.55 18.9017C18.55 18.7084 18.3934 18.5518 18.2001 18.5518H15.4C15.2067 18.5518 15.05 18.7084 15.05 18.9017Z" fill="#FFD562"/>
<path d="M6.30023 17.8519C6.45453 17.8521 6.59074 17.7512 6.63557 17.6036C6.6804 17.4559 6.62323 17.2963 6.49485 17.2107L5.44484 16.5107C5.38717 16.4724 5.31946 16.4519 5.25022 16.4519H3.85023C3.65692 16.4519 3.50024 16.6086 3.50024 16.8019C3.50024 16.9952 3.65697 17.1519 3.85023 17.1519H5.14522L6.10704 17.7931C6.16426 17.8313 6.23148 17.8518 6.30023 17.8519Z" fill="#FFD562"/>
<path d="M2.80043 18.5518C2.60712 18.5518 2.45044 18.7084 2.45044 18.9017C2.45044 19.0951 2.60712 19.2517 2.80043 19.2517H5.60045C5.79376 19.2517 5.95044 19.0951 5.95044 18.9017C5.95044 18.7084 5.79376 18.5518 5.60045 18.5518H2.80043Z" fill="#FFD562"/>
</svg>
