<svg width="17" height="17" viewBox="0 0 17 17" fill="none" xmlns="http://www.w3.org/2000/svg">
<path d="M17 11.3333V8.5C17 3.80558 13.1944 0 8.49999 0C3.80557 0 0 3.80558 0 8.5C0 13.1944 3.80557 17 8.49999 17C8.89121 17 9.2083 16.6829 9.2083 16.2917C9.2083 15.9005 8.89121 15.5834 8.49999 15.5834C4.588 15.5834 1.41669 12.4121 1.41669 8.50008C1.41669 4.58809 4.588 1.41678 8.49999 1.41678C12.412 1.41678 15.5833 4.58809 15.5833 8.50008V11.3334C15.5833 12.1158 14.949 12.7501 14.1666 12.7501C13.3842 12.7501 12.7499 12.1158 12.7499 11.3334V8.50008C12.7499 8.10887 12.4328 7.79178 12.0416 7.79178C11.6504 7.79178 11.3333 8.10887 11.3333 8.50008C11.3333 10.0649 10.0648 11.3334 8.49999 11.3334C6.93521 11.3334 5.66669 10.0649 5.66669 8.50008C5.66669 6.9353 6.93521 5.66678 8.49999 5.66678C8.89121 5.66678 9.2083 5.34969 9.2083 4.95847C9.2083 4.56726 8.89121 4.25017 8.49999 4.25017C6.59787 4.24593 4.92452 5.50607 4.40323 7.3354C3.88194 9.16473 4.63955 11.1177 6.2582 12.1167C7.87685 13.1158 9.96218 12.9178 11.3638 11.6317C11.518 13.1297 12.82 14.2435 14.3237 14.1639C15.8276 14.0842 17.0047 12.8392 17 11.3333Z" fill="#FFD562"/>
</svg>
