<svg width="23" height="23" viewBox="0 0 23 23" fill="none" xmlns="http://www.w3.org/2000/svg">
<path d="M0.35 6.38889C0.35 3.05936 3.05936 0.35 6.38889 0.35H16.6111C19.9406 0.35 22.65 3.05936 22.65 6.38889V16.6111C22.65 19.9406 19.9406 22.65 16.6111 22.65H6.38889C3.05936 22.65 0.35 19.9406 0.35 16.6111V6.38889ZM16.6111 2.20556H6.38889C4.08214 2.20556 2.20556 4.08214 2.20556 6.38889V16.6111C2.20556 18.9179 4.08214 20.7944 6.38889 20.7944H16.6111C18.9179 20.7944 20.7944 18.9179 20.7944 16.6111V6.38889C20.7944 4.08214 18.9179 2.20556 16.6111 2.20556ZM17.2329 4.45507C17.4068 4.28108 17.6428 4.18333 17.8889 4.18333C18.135 4.18333 18.3709 4.28108 18.5449 4.45507C18.7189 4.62906 18.8167 4.86505 18.8167 5.11111C18.8167 5.35717 18.7189 5.59316 18.5449 5.76715C18.3709 5.94114 18.135 6.03889 17.8889 6.03889C17.6428 6.03889 17.4068 5.94114 17.2329 5.76715C17.0589 5.59316 16.9611 5.35717 16.9611 5.11111C16.9611 4.86505 17.0589 4.62907 17.2329 4.45507ZM5.46111 11.5C5.46111 8.17047 8.17047 5.46111 11.5 5.46111C14.8295 5.46111 17.5389 8.17047 17.5389 11.5C17.5389 14.8295 14.8295 17.5389 11.5 17.5389C8.17047 17.5389 5.46111 14.8295 5.46111 11.5ZM15.6833 11.5C15.6833 9.19326 13.8067 7.31667 11.5 7.31667C9.19326 7.31667 7.31667 9.19326 7.31667 11.5C7.31667 13.8067 9.19326 15.6833 11.5 15.6833C13.8067 15.6833 15.6833 13.8067 15.6833 11.5Z" fill="url(#paint0_linear_1_674)" stroke="#AAAAAA" stroke-width="0.7"/>
<defs>
<linearGradient id="paint0_linear_1_674" x1="3.36835" y1="3.36835" x2="19.6316" y2="19.6316" gradientUnits="userSpaceOnUse">
<stop stop-color="#141719"/>
<stop offset="1" stop-color="#141719"/>
</linearGradient>
</defs>
</svg>
