<svg width="216" height="173" viewBox="0 0 216 173" fill="none" xmlns="http://www.w3.org/2000/svg">
<path d="M47.8301 0.947266H48.0301V0.747266H47.8301V0.947266ZM47.2441 66.4258L47.4416 66.4578L47.4416 66.4574L47.2441 66.4258ZM43.7773 73.8965L43.9369 74.0171L43.9376 74.0162L43.7773 73.8965ZM36.1602 79.707L36.2371 79.8916L36.238 79.8913L36.1602 79.707ZM1.29688 65.3027L1.09821 65.3258L1.09824 65.3261L1.29688 65.3027ZM0.808594 0.947266V0.747266H0.608594V0.947266H0.808594ZM21.3652 0.947266H21.5652V0.747266H21.3652V0.947266ZM21.9023 66.8652L21.7144 66.9341L21.7175 66.9417L21.9023 66.8652ZM26.6875 66.7188L26.4995 66.6504L26.4984 66.6537L26.6875 66.7188ZM27.2734 0.947266V0.747266H27.0734V0.947266H27.2734ZM47.6301 0.947266V53.7793H48.0301V0.947266H47.6301ZM47.6301 53.7793C47.6301 59.769 47.4345 63.9701 47.0467 66.3942L47.4416 66.4574C47.835 63.9986 48.0301 59.7688 48.0301 53.7793H47.6301ZM47.0467 66.3938C46.6626 68.7624 45.5243 71.2232 43.6171 73.7768L43.9376 74.0162C45.8716 71.4266 47.0444 68.9069 47.4416 66.4578L47.0467 66.3938ZM43.6178 73.7758C41.72 76.2848 39.2101 78.2008 36.0823 79.5228L36.238 79.8913C39.4253 78.544 41.9935 76.5863 43.9369 74.0171L43.6178 73.7758ZM36.0832 79.5224C32.988 80.8121 29.3207 81.4602 25.0762 81.4602V81.8602C29.3603 81.8602 33.0823 81.2062 36.2371 79.8916L36.0832 79.5224ZM25.0762 81.4602C20.3781 81.4602 16.2393 80.6826 12.6556 79.1328L12.4968 79.5C16.1396 81.0752 20.3341 81.8602 25.0762 81.8602V81.4602ZM12.6556 79.1328C9.06653 77.5808 6.39754 75.5664 4.63345 73.0966L4.30796 73.3291C6.12459 75.8724 8.85926 77.927 12.4968 79.5L12.6556 79.1328ZM4.63345 73.0966C2.86057 70.6146 1.81668 68.0094 1.49551 65.2794L1.09824 65.3261C1.42811 68.13 2.50011 70.7981 4.30796 73.3291L4.63345 73.0966ZM1.49554 65.2796C1.17159 62.4937 1.00859 56.6463 1.00859 47.7246H0.608594C0.608594 56.6415 0.771114 62.5128 1.09821 65.3258L1.49554 65.2796ZM1.00859 47.7246V0.947266H0.608594V47.7246H1.00859ZM0.808594 1.14727H21.3652V0.747266H0.808594V1.14727ZM21.1652 0.947266V60.2246H21.5652V0.947266H21.1652ZM21.1652 60.2246C21.1652 61.9527 21.21 63.3746 21.3002 64.4888C21.3899 65.598 21.5256 66.4186 21.7146 66.9341L22.0901 66.7964C21.921 66.3353 21.7882 65.5609 21.6989 64.4565C21.6099 63.3572 21.5652 61.9471 21.5652 60.2246H21.1652ZM21.7175 66.9417C21.9266 67.447 22.241 67.8364 22.664 68.0975C23.0855 68.3575 23.6003 68.4812 24.1973 68.4812V68.0813C23.6549 68.0813 23.2176 67.969 22.8741 67.757C22.5321 67.5461 22.2687 67.2274 22.0871 66.7888L21.7175 66.9417ZM24.1973 68.4812C24.8739 68.4812 25.4469 68.346 25.9027 68.06C26.3613 67.7723 26.6847 67.3422 26.8766 66.7838L26.4984 66.6537C26.3322 67.137 26.0616 67.4881 25.6901 67.7212C25.3158 67.9561 24.8228 68.0813 24.1973 68.0813V68.4812ZM26.8755 66.7871C27.0808 66.2225 27.2286 65.3038 27.3263 64.0487C27.4246 62.7883 27.4734 61.1713 27.4734 59.1992H27.0734C27.0734 61.166 27.0247 62.7716 26.9276 64.0177C26.83 65.2691 26.6849 66.1408 26.4995 66.6504L26.8755 66.7871ZM27.4734 59.1992V0.947266H27.0734V59.1992H27.4734ZM27.2734 1.14727H47.8301V0.747266H27.2734V1.14727ZM79.373 40.791H79.573V40.591H79.373V40.791ZM79.373 54.4141V54.6141H79.573V54.4141H79.373ZM53.4453 54.4141H53.2453V54.6141H53.4453V54.4141ZM53.4453 40.791V40.591H53.2453V40.791H53.4453ZM79.173 40.791V54.4141H79.573V40.791H79.173ZM79.373 54.2141H53.4453V54.6141H79.373V54.2141ZM53.6453 54.4141V40.791H53.2453V54.4141H53.6453ZM53.4453 40.991H79.373V40.591H53.4453V40.991ZM85.2812 0.947266V0.747266H85.0813V0.947266H85.2812ZM119.559 0.947266H119.759V0.747266H119.559V0.947266ZM119.559 16.7676V16.9676H119.759V16.7676H119.559ZM105.838 16.7676V16.5676H105.638V16.7676H105.838ZM105.838 31.7578H105.638V31.9578H105.838V31.7578ZM118.68 31.7578H118.88V31.5578H118.68V31.7578ZM118.68 46.7969V46.9969H118.88V46.7969H118.68ZM105.838 46.7969V46.5969H105.638V46.7969H105.838ZM105.838 64.1797H105.638V64.3797H105.838V64.1797ZM120.926 64.1797H121.126V63.9797H120.926V64.1797ZM120.926 80V80.2H121.126V80H120.926ZM85.2812 80H85.0813V80.2H85.2812V80ZM85.2812 1.14727H119.559V0.747266H85.2812V1.14727ZM119.359 0.947266V16.7676H119.759V0.947266H119.359ZM119.559 16.5676H105.838V16.9676H119.559V16.5676ZM105.638 16.7676V31.7578H106.038V16.7676H105.638ZM105.838 31.9578H118.68V31.5578H105.838V31.9578ZM118.48 31.7578V46.7969H118.88V31.7578H118.48ZM118.68 46.5969H105.838V46.9969H118.68V46.5969ZM105.638 46.7969V64.1797H106.038V46.7969H105.638ZM105.838 64.3797H120.926V63.9797H105.838V64.3797ZM120.726 64.1797V80H121.126V64.1797H120.726ZM120.926 79.8H85.2812V80.2H120.926V79.8ZM85.4812 80V0.947266H85.0813V80H85.4812ZM167.605 15.2051L167.804 15.2291L167.831 15.0051H167.605V15.2051ZM161.941 62.0801L161.743 62.0561L161.743 62.0566L161.941 62.0801ZM159.695 77.2656L159.5 77.221L159.5 77.2232L159.695 77.2656ZM150.857 87.8125L150.796 87.6223L150.793 87.6233L150.857 87.8125ZM126.98 89.082H126.78V89.282H126.98V89.082ZM126.98 78.7305V78.5305H126.78V78.7305H126.98ZM132.889 78.291L132.952 78.4809L132.958 78.4786L132.889 78.291ZM132.986 69.4043L132.79 69.4434L132.79 69.4441L132.986 69.4043ZM122.195 15.2051V15.0051H121.952L121.999 15.2441L122.195 15.2051ZM140.115 15.2051L140.313 15.1759L140.288 15.0051H140.115V15.2051ZM146.561 58.9062L146.363 58.9354L146.76 58.9205L146.561 58.9062ZM149.686 15.2051V15.0051H149.499L149.486 15.1908L149.686 15.2051ZM167.407 15.1811L161.743 62.0561L162.14 62.1041L167.804 15.2291L167.407 15.1811ZM161.743 62.0566C160.864 69.4794 160.116 74.5311 159.5 77.221L159.89 77.3103C160.511 74.5965 161.261 69.5245 162.14 62.1036L161.743 62.0566ZM159.5 77.2232C158.919 79.9018 157.937 82.1016 156.56 83.8305L156.873 84.0797C158.296 82.2929 159.3 80.0331 159.891 77.308L159.5 77.2232ZM156.56 83.8305C155.189 85.5526 153.271 86.8185 150.796 87.6223L150.919 88.0027C153.456 87.1789 155.445 85.8732 156.873 84.0797L156.56 83.8305ZM150.793 87.6233C148.352 88.4583 144.409 88.882 138.943 88.882V89.282C144.415 89.282 148.415 88.8594 150.922 88.0017L150.793 87.6233ZM138.943 88.882H126.98V89.282H138.943V88.882ZM127.18 89.082V78.7305H126.78V89.082H127.18ZM126.98 78.9305C128.513 78.9305 129.776 78.8938 130.767 78.8201C131.754 78.7466 132.487 78.6356 132.952 78.4808L132.825 78.1013C132.411 78.2394 131.72 78.3481 130.738 78.4212C129.76 78.4939 128.508 78.5305 126.98 78.5305V78.9305ZM132.958 78.4786C133.433 78.3027 133.801 78.0205 134.047 77.6283C134.292 77.2383 134.407 76.7551 134.407 76.1914H134.007C134.007 76.702 133.903 77.1058 133.708 77.4156C133.515 77.7233 133.223 77.9539 132.819 78.1035L132.958 78.4786ZM134.407 76.1914C134.407 75.9088 134.301 75.192 134.099 74.0686C133.895 72.9352 133.589 71.367 133.182 69.3645L132.79 69.4441C133.197 71.4455 133.502 73.0104 133.705 74.1394C133.91 75.2784 134.007 75.9532 134.007 76.1914H134.407ZM133.182 69.3652L122.391 15.166L121.999 15.2441L132.79 69.4434L133.182 69.3652ZM122.195 15.4051H140.115V15.0051H122.195V15.4051ZM139.917 15.2343L146.363 58.9354L146.758 58.8771L140.313 15.1759L139.917 15.2343ZM146.76 58.9205L149.885 15.2193L149.486 15.1908L146.361 58.892L146.76 58.9205ZM149.686 15.4051H167.605V15.0051H149.686V15.4051ZM215.799 48.75V48.95H215.999V48.75H215.799ZM190.262 48.75V48.55H190.062V48.75H190.262ZM196.316 68.0371L196.134 67.9539L196.133 67.9564L196.316 68.0371ZM197.098 52.9492V52.7492H196.898V52.9492H197.098ZM215.799 52.9492H215.999V52.7492H215.799V52.9492ZM215.018 66.9629L214.823 66.9158L214.823 66.9186L215.018 66.9629ZM204.422 79.3652L204.5 79.5493L204.501 79.5488L204.422 79.3652ZM175.223 74.4336L175.069 74.5614L175.071 74.5639L175.223 74.4336ZM171.561 67.5L171.367 67.552L171.368 67.5526L171.561 67.5ZM172.83 24.1895L173.011 24.2745L173.011 24.2738L172.83 24.1895ZM180.35 16.6699L180.438 16.8491L180.44 16.8485L180.35 16.6699ZM206.033 17.207L205.931 17.3792L205.933 17.3803L206.033 17.207ZM213.602 25.5566L213.417 25.6327L213.417 25.6348L213.602 25.5566ZM196.023 38.2031V38.4031H196.223V38.2031H196.023ZM190.75 26.7773L190.936 26.8516L190.937 26.8491L190.75 26.7773ZM190.262 38.2031H190.062V38.4031H190.262V38.2031ZM215.799 48.55H190.262V48.95H215.799V48.55ZM190.062 48.75V62.7637H190.462V48.75H190.062ZM190.062 62.7637C190.062 64.2324 190.115 65.445 190.222 66.3992C190.328 67.3479 190.489 68.061 190.718 68.5172L191.075 68.3383C190.88 67.9482 190.724 67.294 190.619 66.3547C190.515 65.4209 190.462 64.2246 190.462 62.7637H190.062ZM190.718 68.5172C191.184 69.4508 192.082 69.8973 193.338 69.8973V69.4973C192.185 69.4973 191.455 69.0974 191.075 68.3383L190.718 68.5172ZM193.338 69.8973C194.11 69.8973 194.769 69.7547 195.303 69.4569C195.84 69.1576 196.239 68.7083 196.499 68.1178L196.133 67.9564C195.906 68.4727 195.564 68.8534 195.108 69.1075C194.65 69.3632 194.063 69.4973 193.338 69.4973V69.8973ZM196.498 68.1203C196.771 67.5227 196.97 66.6686 197.101 65.5706C197.232 64.4695 197.298 63.1101 197.298 61.4941H196.898C196.898 63.1008 196.833 64.4432 196.704 65.5232C196.574 66.6061 196.382 67.4122 196.135 67.954L196.498 68.1203ZM197.298 61.4941V52.9492H196.898V61.4941H197.298ZM197.098 53.1492H215.799V52.7492H197.098V53.1492ZM215.599 52.9492V57.7344H215.999V52.9492H215.599ZM215.599 57.7344C215.599 61.733 215.338 64.7905 214.823 66.9158L215.212 67.01C215.738 64.8384 215.999 61.7436 215.999 57.7344H215.599ZM214.823 66.9186C214.343 69.0305 213.187 71.2996 211.343 73.7266L211.661 73.9687C213.528 71.5129 214.716 69.1921 215.213 67.0072L214.823 66.9186ZM211.343 73.7266C209.508 76.1402 207.176 77.958 204.343 79.1816L204.501 79.5488C207.397 78.2985 209.785 76.438 211.661 73.9687L211.343 73.7266ZM204.344 79.1812C201.544 80.3718 198.008 80.9719 193.729 80.9719V81.3719C198.042 81.3719 201.636 80.7675 204.5 79.5493L204.344 79.1812ZM193.729 80.9719C189.581 80.9719 185.927 80.3724 182.764 79.1781L182.623 79.5523C185.84 80.767 189.543 81.3719 193.729 81.3719V80.9719ZM182.764 79.1781C179.598 77.9827 177.138 76.3557 175.374 74.3032L175.071 74.5639C176.888 76.6781 179.409 78.3389 182.623 79.5523L182.764 79.1781ZM175.376 74.3058C173.636 72.2106 172.429 69.9247 171.753 67.4474L171.368 67.5526C172.059 70.0883 173.294 72.4249 175.069 74.5614L175.376 74.3058ZM171.754 67.448C171.077 64.9345 170.735 61.277 170.735 56.4648H170.335C170.335 61.2881 170.677 64.9874 171.367 67.552L171.754 67.448ZM170.735 56.4648V37.5684H170.335V56.4648H170.735ZM170.735 37.5684C170.735 31.9186 171.499 27.4922 173.011 24.2745L172.649 24.1044C171.101 27.3971 170.335 31.89 170.335 37.5684H170.735ZM173.011 24.2738C174.521 21.0304 176.993 18.5558 180.438 16.8491L180.261 16.4907C176.74 18.2346 174.199 20.773 172.649 24.1051L173.011 24.2738ZM180.44 16.8485C183.891 15.1069 187.863 14.2332 192.361 14.2332V13.8332C187.81 13.8332 183.775 14.7174 180.26 16.4914L180.44 16.8485ZM192.361 14.2332C197.871 14.2332 202.39 15.2866 205.931 17.3792L206.135 17.0348C202.515 14.8957 197.92 13.8332 192.361 13.8332V14.2332ZM205.933 17.3803C209.513 19.444 212.003 22.195 213.417 25.6327L213.787 25.4806C212.336 21.9522 209.78 19.1367 206.133 17.0338L205.933 17.3803ZM213.417 25.6348C214.867 29.0494 215.599 33.8848 215.599 40.1562H215.999C215.999 33.8626 215.266 28.965 213.786 25.4785L213.417 25.6348ZM215.599 40.1562V48.75H215.999V40.1562H215.599ZM196.223 38.2031V33.4668H195.823V38.2031H196.223ZM196.223 33.4668C196.223 31.7875 196.179 30.4021 196.088 29.3121C195.999 28.2269 195.863 27.4189 195.674 26.9038L195.299 27.0415C195.468 27.503 195.601 28.2656 195.69 29.3451C195.779 30.4199 195.823 31.7933 195.823 33.4668H196.223ZM195.674 26.9038C195.483 26.3831 195.187 25.9794 194.779 25.7076C194.373 25.4365 193.872 25.3078 193.289 25.3078V25.7078C193.813 25.7078 194.232 25.8232 194.558 26.0404C194.882 26.257 195.131 26.5856 195.299 27.0415L195.674 26.9038ZM193.289 25.3078C191.888 25.3078 190.933 25.7446 190.563 26.7055L190.937 26.8491C191.218 26.1174 191.956 25.7078 193.289 25.7078V25.3078ZM190.564 26.7031C190.389 27.1423 190.266 27.9322 190.184 29.0455C190.102 30.1673 190.062 31.6416 190.062 33.4668H190.462C190.462 31.6461 190.502 30.1826 190.583 29.0746C190.665 27.9581 190.786 27.2262 190.936 26.8516L190.564 26.7031ZM190.062 33.4668V38.2031H190.462V33.4668H190.062ZM190.262 38.4031H196.023V38.0031H190.262V38.4031ZM50.0762 91.9473L50.2661 92.0099L50.3527 91.7473H50.0762V91.9473ZM38.3086 127.641L38.1186 127.578L38.099 127.638L38.1169 127.698L38.3086 127.641ZM51.1992 171V171.2H51.4673L51.3909 170.943L51.1992 171ZM29.959 171L29.7647 171.048L29.8021 171.2H29.959V171ZM21.6582 137.113L21.8525 137.066L21.4582 137.113H21.6582ZM21.6582 171V171.2H21.8582V171H21.6582ZM1.10156 171H0.901562V171.2H1.10156V171ZM1.10156 91.9473V91.7473H0.901562V91.9473H1.10156ZM21.6582 91.9473H21.8582V91.7473H21.6582V91.9473ZM21.6582 122.66H21.4582L21.8499 122.717L21.6582 122.66ZM30.7891 91.9473V91.7473H30.6399L30.5974 91.8903L30.7891 91.9473ZM49.8862 91.8846L38.1186 127.578L38.4985 127.703L50.2661 92.0099L49.8862 91.8846ZM38.1169 127.698L51.0075 171.057L51.3909 170.943L38.5003 127.584L38.1169 127.698ZM51.1992 170.8H29.959V171.2H51.1992V170.8ZM30.1532 170.952L21.8525 137.066L21.4639 137.161L29.7647 171.048L30.1532 170.952ZM21.4582 137.113V171H21.8582V137.113H21.4582ZM21.6582 170.8H1.10156V171.2H21.6582V170.8ZM1.30156 171V91.9473H0.901562V171H1.30156ZM1.10156 92.1473H21.6582V91.7473H1.10156V92.1473ZM21.4582 91.9473V122.66H21.8582V91.9473H21.4582ZM21.8499 122.717L30.9808 92.0043L30.5974 91.8903L21.4665 122.603L21.8499 122.717ZM30.7891 92.1473H50.0762V91.7473H30.7891V92.1473ZM73.9531 106.205L74.1523 106.223L74.1724 106.005H73.9531V106.205ZM73.1719 114.701L72.9727 114.683L73.3528 114.786L73.1719 114.701ZM85.623 105.033H85.823V104.82L85.6099 104.834L85.623 105.033ZM85.623 127.836V128.036H85.823V127.836H85.623ZM74.5391 133.402L74.7341 133.447L74.7343 133.446L74.5391 133.402ZM73.9531 171V171.2H74.1531V171H73.9531ZM54.2266 171H54.0266V171.2H54.2266V171ZM54.2266 106.205V106.005H54.0266V106.205H54.2266ZM73.754 106.187L72.9727 114.683L73.371 114.719L74.1523 106.223L73.754 106.187ZM73.3528 114.786C76.195 108.747 80.2907 105.585 85.6362 105.233L85.6099 104.834C80.083 105.198 75.8779 108.481 72.9909 114.616L73.3528 114.786ZM85.423 105.033V127.836H85.823V105.033H85.423ZM85.623 127.636C81.9999 127.636 79.3034 128.124 77.5641 129.128L77.764 129.474C79.4101 128.524 82.0196 128.036 85.623 128.036V127.636ZM77.5641 129.128C75.8275 130.129 74.7477 131.541 74.3438 133.359L74.7343 133.446C75.1116 131.748 76.1152 130.425 77.764 129.474L77.5641 129.128ZM74.344 133.358C73.9474 135.11 73.7531 139.138 73.7531 145.414H74.1531C74.1531 139.125 74.3494 135.145 74.7341 133.447L74.344 133.358ZM73.7531 145.414V171H74.1531V145.414H73.7531ZM73.9531 170.8H54.2266V171.2H73.9531V170.8ZM54.4266 171V106.205H54.0266V171H54.4266ZM54.2266 106.405H73.9531V106.005H54.2266V106.405ZM135.232 106.205H135.432V106.005H135.232V106.205ZM135.232 171V171.2H135.432V171H135.232ZM115.164 171L114.964 170.987L114.951 171.2H115.164V171ZM115.506 165.629L115.705 165.642L115.336 165.523L115.506 165.629ZM110.428 170.561L110.523 170.736L110.524 170.736L110.428 170.561ZM91.8242 166.459L91.6474 166.552L91.6488 166.555L91.8242 166.459ZM90.1152 161.088L89.9167 161.112L89.9167 161.112L90.1152 161.088ZM89.7734 106.205V106.005H89.5734V106.205H89.7734ZM109.5 106.205H109.7V106.005H109.5V106.205ZM109.939 159.281L109.748 159.341L109.75 159.346L109.939 159.281ZM115.066 159.232L114.875 159.175L114.873 159.181L115.066 159.232ZM115.506 106.205V106.005H115.306V106.205H115.506ZM135.032 106.205V171H135.432V106.205H135.032ZM135.232 170.8H115.164V171.2H135.232V170.8ZM115.364 171.013L115.705 165.642L115.306 165.616L114.964 170.987L115.364 171.013ZM115.336 165.523C113.985 167.678 112.316 169.297 110.332 170.385L110.524 170.736C112.575 169.611 114.292 167.942 115.675 165.735L115.336 165.523ZM110.333 170.385C108.38 171.441 106.119 171.972 103.543 171.972V172.372C106.175 172.372 108.504 171.829 110.523 170.736L110.333 170.385ZM103.543 171.972C100.603 171.972 98.1801 171.455 96.264 170.433L96.0758 170.786C98.066 171.847 100.559 172.372 103.543 172.372V171.972ZM96.264 170.433C94.3408 169.407 92.9227 168.05 91.9997 166.363L91.6488 166.555C92.6138 168.319 94.0928 169.728 96.0758 170.786L96.264 170.433ZM92.0011 166.366C91.1005 164.661 90.5385 162.894 90.3137 161.064L89.9167 161.112C90.1477 162.993 90.7251 164.807 91.6474 166.552L92.0011 166.366ZM90.3138 161.064C90.0876 159.19 89.9734 155.474 89.9734 149.906H89.5734C89.5734 155.471 89.6871 159.21 89.9167 161.112L90.3138 161.064ZM89.9734 149.906V106.205H89.5734V149.906H89.9734ZM89.7734 106.405H109.5V106.005H89.7734V106.405ZM109.3 106.205V150.297H109.7V106.205H109.3ZM109.3 150.297C109.3 152.821 109.337 154.835 109.41 156.337C109.483 157.83 109.593 158.84 109.748 159.341L110.13 159.222C109.993 158.778 109.883 157.819 109.81 156.317C109.737 154.825 109.7 152.818 109.7 150.297H109.3ZM109.75 159.346C109.929 159.863 110.253 160.257 110.721 160.518C111.184 160.776 111.774 160.897 112.479 160.897V160.497C111.816 160.497 111.299 160.383 110.916 160.169C110.537 159.957 110.276 159.643 110.129 159.216L109.75 159.346ZM112.479 160.897C113.23 160.897 113.85 160.772 114.323 160.505C114.802 160.234 115.116 159.823 115.26 159.284L114.873 159.181C114.756 159.618 114.509 159.94 114.126 160.157C113.735 160.378 113.192 160.497 112.479 160.497V160.897ZM115.258 159.29C115.413 158.774 115.523 157.719 115.596 156.153C115.669 154.578 115.706 152.463 115.706 149.809H115.306C115.306 152.46 115.269 154.569 115.196 156.135C115.123 157.71 115.013 158.714 114.875 159.175L115.258 159.29ZM115.706 149.809V106.205H115.306V149.809H115.706ZM115.506 106.405H135.232V106.005H115.506V106.405ZM184.793 106.205L184.984 106.264L185.064 106.005H184.793V106.205ZM176.785 132.035L176.594 131.976L176.577 132.031L176.592 132.087L176.785 132.035ZM187.186 171V171.2H187.446L187.379 170.948L187.186 171ZM168.191 171L167.996 171.043L168.03 171.2H168.191V171ZM162.039 142.777L162.234 142.735L161.839 142.777H162.039ZM162.039 171V171.2H162.239V171H162.039ZM142.312 171H142.113V171.2H142.312V171ZM142.312 91.9473V91.7473H142.113V91.9473H142.312ZM162.039 91.9473H162.239V91.7473H162.039V91.9473ZM162.039 125.15H161.839L162.229 125.212L162.039 125.15ZM168.191 106.205V106.005H168.046L168.001 106.143L168.191 106.205ZM184.602 106.146L176.594 131.976L176.976 132.094L184.984 106.264L184.602 106.146ZM176.592 132.087L186.992 171.052L187.379 170.948L176.978 131.984L176.592 132.087ZM187.186 170.8H168.191V171.2H187.186V170.8ZM168.387 170.957L162.234 142.735L161.844 142.82L167.996 171.043L168.387 170.957ZM161.839 142.777V171H162.239V142.777H161.839ZM162.039 170.8H142.312V171.2H162.039V170.8ZM142.512 171V91.9473H142.113V171H142.512ZM142.312 92.1473H162.039V91.7473H142.312V92.1473ZM161.839 91.9473V125.15H162.239V91.9473H161.839ZM162.229 125.212L168.382 106.267L168.001 106.143L161.849 125.089L162.229 125.212ZM168.191 106.405H184.793V106.005H168.191V106.405Z" fill="#7DA3E6"/>
</svg>
