<svg width="287" height="174" viewBox="0 0 287 174" fill="none" xmlns="http://www.w3.org/2000/svg">
<path d="M164.07 140.582C164.07 140.567 164.07 140.553 164.07 140.539V124.332L125.816 123.736V139.928C125.571 142.897 127.446 145.922 131.44 148.195C138.938 152.456 151.064 152.485 158.505 148.238C162.21 146.135 164.056 143.38 164.07 140.61V140.582Z" fill="url(#paint0_linear_1_1455)"/>
<path d="M158.511 132.044C151.056 136.277 138.944 136.263 131.446 132.002C123.948 127.74 123.905 120.837 131.359 116.604C138.814 112.372 150.926 112.386 158.424 116.647C165.922 120.922 165.965 127.811 158.511 132.044Z" fill="#272928"/>
<path d="M61.3694 57.2894V57.2751L66.344 28.3842L43.6194 27.6882L48.6661 57.0479C48.767 58.1132 49.5313 59.1501 50.8867 59.8745C53.2658 61.1671 56.8418 61.1813 59.2065 59.8887C60.4465 59.2211 61.1963 58.2978 61.3694 57.2894Z" fill="url(#paint1_linear_1_1455)"/>
<path d="M66.4605 30.8985C66.4605 30.8843 66.4605 30.8843 66.4605 30.8701V21.1971L43.6206 20.842V30.515C43.4764 32.2905 44.5866 34.0944 46.9802 35.4438C51.4502 37.9863 58.6886 38.0005 63.1441 35.4722C65.3503 34.2222 66.4605 32.5745 66.4605 30.9127V30.8985Z" fill="url(#paint2_linear_1_1455)"/>
<path d="M63.1448 25.7989C58.6893 28.3272 51.4653 28.313 46.9809 25.7705C42.511 23.228 42.4821 19.1088 46.9232 16.5805C51.3788 14.0522 58.6028 14.0664 63.0871 16.6089C67.5715 19.1514 67.6003 23.2706 63.1448 25.7989Z" fill="#576061"/>
<path d="M51.8403 22.7595C53.4552 23.6688 56.0651 23.6687 57.6944 22.7452C59.3094 21.8218 59.3238 20.33 57.7088 19.4207C56.0939 18.5114 53.484 18.5114 51.8547 19.4349C50.2397 20.3442 50.2253 21.836 51.8403 22.7595Z" fill="#434544"/>
<path d="M58.904 20.9549V18.5964L50.6274 18.7243V21.1112L54.5494 22.2904L58.904 20.9549Z" fill="#434544"/>
<path d="M51.8403 20.2734C53.4552 21.1827 56.0651 21.1827 57.6944 20.2592C59.3094 19.3357 59.3238 17.8439 57.7088 16.9346C56.0939 16.0253 53.484 16.0253 51.8547 16.9488C50.2397 17.8581 50.2253 19.3499 51.8403 20.2734Z" fill="#576061"/>
<path d="M51.321 18.3559V16.651L58.2134 16.5515V18.2564C58.2567 18.7963 57.925 19.3362 57.2041 19.7482C55.8487 20.5154 53.6714 20.5155 52.3304 19.7624C51.6527 19.3646 51.321 18.8673 51.321 18.3559Z" fill="#434544"/>
<path d="M52.315 18.0436C53.6559 18.8108 55.8477 18.8109 57.1886 18.0294C58.544 17.2622 58.5441 16.0119 57.2031 15.2589C55.8621 14.4917 53.6704 14.4917 52.3294 15.2732C50.9884 16.0404 50.974 17.2764 52.315 18.0436Z" fill="#576061"/>
<path d="M52.8508 16.4947V13.0991L56.744 13.0422V16.4237C56.7729 16.722 56.5854 17.0346 56.1673 17.2619C55.403 17.7023 54.1774 17.7023 53.4132 17.2619C53.0383 17.063 52.8508 16.7788 52.8508 16.4947Z" fill="#242625"/>
<path d="M55.3345 13.9807C55.3345 13.9807 65.9758 14.7619 72.1905 13.242C78.4051 11.708 102.918 2.88735 102.918 2.88735L104.201 0.472656L76.92 2.98679L58.7518 8.82462L57.6848 9.1655L56.6034 9.50642L56.4736 9.96092L55.3345 13.9807Z" fill="#BBD8DE"/>
<path d="M55.3345 13.9807C55.3345 13.9807 65.9758 14.7619 72.1905 13.242C78.4051 11.708 102.918 2.88735 102.918 2.88735L104.201 0.472656L76.92 2.98679C76.92 2.98679 76.5595 10.3018 70.9648 12.5034C65.3702 14.7051 61.8663 12.958 61.8663 12.958C61.8663 12.958 63.0055 9.09448 59.17 8.8104C59.0402 8.7962 58.896 8.81041 58.7518 8.82462C58.4057 8.86723 58.0453 8.98085 57.6848 9.1655C57.2955 9.36436 56.8918 9.63423 56.488 9.96092L55.3345 13.9807Z" fill="#DAE8E8"/>
<path d="M3.53589 25.1737L6.67926 26.2105C6.67926 26.2105 30.1681 22.5033 38.1274 20.0176C39.7568 19.5063 41.4006 18.9239 42.9579 18.3131C48.9995 15.9694 53.9597 13.2991 53.9597 13.2991L52.388 11.7509C52.388 11.7509 41.5159 10.6714 30.4709 13.3559C29.3894 13.6258 28.308 13.9241 27.2266 14.265C15.2875 18.0432 3.78101 25.0174 3.53589 25.1737Z" fill="#DAE8E8"/>
<path d="M3.53589 25.1737C3.92521 24.989 28.9857 14.0377 34.7389 15.1598C36.6855 15.5433 39.4684 16.5092 42.9579 18.3131C48.9995 15.9694 53.9597 13.2991 53.9597 13.2991L52.388 11.7509C52.388 11.7509 41.5159 10.6714 30.4709 13.3559C29.3894 13.6258 28.308 13.9241 27.2266 14.265C15.2875 18.0432 3.78101 25.0174 3.53589 25.1737Z" fill="#BBD8DE"/>
<path d="M50.201 10.7002C50.201 10.7002 49.8982 5.08887 54.7575 5.08887C59.6167 5.08887 59.1985 11.6235 59.1985 11.6235C59.1985 11.6235 59.1841 15.0898 53.8635 14.7772C49.7108 14.5357 50.201 10.7002 50.201 10.7002Z" fill="#737373"/>
<path d="M243.394 64.2349V64.2207L248.368 35.3298L225.644 34.6338L230.69 63.9934C230.791 65.0587 231.555 66.0956 232.911 66.82C235.29 68.1126 238.866 68.1268 241.231 66.8342C242.471 66.1667 243.221 65.2292 243.394 64.2349Z" fill="url(#paint3_linear_1_1455)"/>
<path d="M248.445 37.8297C248.445 37.8154 248.445 37.8154 248.445 37.8012V28.1283L225.605 27.7732V37.4461C225.461 39.2216 226.571 41.0255 228.965 42.3749C233.435 44.9174 240.673 44.9317 245.129 42.4033C247.335 41.1534 248.445 39.5057 248.445 37.8438V37.8297Z" fill="url(#paint4_linear_1_1455)"/>
<path d="M245.112 32.7301C240.656 35.2584 233.432 35.2442 228.948 32.7017C224.478 30.1591 224.449 26.04 228.89 23.5117C233.346 20.9834 240.57 20.9975 245.054 23.5401C249.538 26.0826 249.567 30.2017 245.112 32.7301Z" fill="#576061"/>
<path d="M233.808 29.6921C235.422 30.6014 238.032 30.6014 239.662 29.6779C241.277 28.7544 241.291 27.2626 239.676 26.3533C238.061 25.444 235.451 25.444 233.822 26.3675C232.207 27.2768 232.193 28.7686 233.808 29.6921Z" fill="#434544"/>
<path d="M240.871 27.8868V25.5283L232.595 25.6562V28.0431L236.517 29.2365L240.871 27.8868Z" fill="#434544"/>
<path d="M233.808 27.2055C235.422 28.1148 238.032 28.1148 239.662 27.1913C241.277 26.2678 241.291 24.776 239.676 23.8667C238.061 22.9574 235.451 22.9574 233.822 23.8809C232.207 24.8044 232.193 26.282 233.808 27.2055Z" fill="#576061"/>
<path d="M233.288 25.302C233.288 25.2878 233.288 25.2878 233.288 25.302V23.597L240.181 23.4834V25.1883C240.224 25.7282 239.892 26.2681 239.171 26.6801C237.816 27.4473 235.639 27.4473 234.298 26.6943C233.62 26.2965 233.288 25.7992 233.288 25.302Z" fill="#434544"/>
<path d="M234.298 24.9753C235.639 25.7426 237.83 25.7425 239.171 24.9611C240.512 24.1797 240.527 22.9437 239.186 22.1907C237.845 21.4235 235.653 21.4377 234.312 22.2049C232.957 22.9721 232.942 24.2081 234.298 24.9753Z" fill="#576061"/>
<path d="M234.816 23.4417C234.816 23.4275 234.816 23.4275 234.816 23.4417V20.0461L238.709 19.9893V23.3707C238.738 23.669 238.55 23.9816 238.132 24.2089C237.368 24.6494 236.142 24.6494 235.378 24.2089C235.018 23.9958 234.83 23.7259 234.816 23.4417Z" fill="#242625"/>
<path d="M235.205 20.9126C235.205 20.9126 224.564 21.6938 218.349 20.1739C212.134 18.6399 187.622 9.81924 187.622 9.81924L186.338 7.40454L213.619 9.91863L231.788 15.7565L232.855 16.0974L233.936 16.4383L234.066 16.8928L235.205 20.9126Z" fill="#DAE8E8"/>
<path d="M235.205 20.9126C235.205 20.9126 224.564 21.6938 218.349 20.1739C212.134 18.6399 187.622 9.81924 187.622 9.81924L186.338 7.40454L213.619 9.91863C213.619 9.91863 213.98 17.2337 219.575 19.4353C225.169 21.637 228.673 19.8899 228.673 19.8899C228.673 19.8899 227.534 16.0264 231.369 15.7423C231.499 15.7281 231.643 15.7423 231.788 15.7565C232.134 15.7991 232.494 15.9127 232.855 16.0974C233.244 16.2962 233.648 16.5661 234.051 16.8928L235.205 20.9126Z" fill="#BBD8DE"/>
<path d="M286.997 32.1055L283.853 33.1424C283.853 33.1424 260.364 29.4352 252.405 26.9495C250.776 26.4381 249.132 25.8558 247.575 25.245C241.533 22.9013 236.573 20.231 236.573 20.231L238.144 18.6827C238.144 18.6827 249.017 17.6032 260.062 20.2878C261.143 20.5577 262.224 20.8559 263.306 21.1968C275.245 24.9893 286.751 31.9635 286.997 32.1055Z" fill="#DAE8E8"/>
<path d="M286.997 32.1055C286.607 31.9209 261.547 20.9696 255.793 22.0917C253.847 22.4752 251.064 23.4411 247.575 25.245C241.533 22.9013 236.573 20.231 236.573 20.231L238.144 18.6827C238.144 18.6827 249.017 17.6032 260.062 20.2878C261.143 20.5577 262.224 20.8559 263.306 21.1968C275.245 24.9893 286.751 31.9635 286.997 32.1055Z" fill="#BBD8DE"/>
<path d="M232.159 17.6321C232.159 17.6321 231.857 12.0208 236.716 12.0208C241.575 12.0208 241.157 18.5554 241.157 18.5554C241.157 18.5554 241.143 22.0217 235.822 21.7091C231.669 21.4676 232.159 17.6321 232.159 17.6321Z" fill="#737373"/>
<path d="M104.936 57.4727L142.815 67.7989L188.869 59.1913L157.292 75.5544L122.397 72.3585L104.936 57.4727Z" fill="#C5C5C5"/>
<path d="M61.8259 56.2517L58.3508 52.4023L96.403 86.1227L98.2054 88.8924L61.8259 56.2517Z" fill="#808080"/>
<path d="M98.1964 88.893L96.394 86.1233L113.308 105L117.345 110.497L98.1964 88.893Z" fill="#808080"/>
<path d="M123.941 68.6801L103.524 80.1569L58.5071 39.1926L66.4809 34.7751L123.941 68.6801Z" fill="#E4E4E4"/>
<path d="M103.52 80.1584L102.554 85.3997L54.9849 42.7025L58.5031 39.1941L103.52 80.1584Z" fill="#A6A6A6"/>
<path d="M120.953 91.9335L113.31 105.001L96.3967 86.124L55.1723 49.5771L54.9849 42.7024L102.554 85.3996L120.953 91.9335Z" fill="#858585"/>
<path d="M81.9911 73.355L99.6258 99.7887L79.2083 122.33L102.928 106.422L111.248 98.9932L100.664 88.9652L81.9911 73.355Z" fill="#858585"/>
<path d="M137.755 99.0195L117.352 110.496L123.581 87.4148L143.998 75.938L137.755 99.0195Z" fill="#A0A0A0"/>
<path d="M143.997 75.9382L143.954 75.9665L123.651 87.3866L123.579 87.415L103.522 80.1567L123.94 68.6799L143.997 75.9382Z" fill="#BFBFBF"/>
<path d="M123.651 87.9127L113.313 105L120.955 91.9324L123.579 87.4155L123.651 87.9127Z" fill="#929292"/>
<path d="M123.578 87.4152L120.954 91.9321L102.555 85.3983L103.521 80.157L123.578 87.4152Z" fill="#9A9A9A"/>
<path d="M233.011 59.1931L229.493 63.0708L190.677 91.9334L192.422 88.9647L233.011 59.1931Z" fill="#8C8C8C"/>
<path d="M192.421 88.9639L190.676 91.9325L170.374 112.23L174.483 106.69L192.421 88.9639Z" fill="#898989"/>
<path d="M185.168 82.1763L165.14 70.7563L225.556 41.2971L233.141 45.6294L185.168 82.1763Z" fill="#DCDCDC"/>
<path d="M185.959 87.4879L185.166 82.1756L233.138 45.6287L236.613 49.4495L185.959 87.4879Z" fill="#F1F1F1"/>
<path d="M170.533 91.2092L185.961 87.4878L236.616 49.4495L233.011 59.1934L192.421 88.965L174.484 106.692L170.533 91.2092Z" fill="#C5C5C5"/>
<path d="M208.613 77.0906L191.613 100.598L204.979 119.717L185.96 106.947L177.453 101.308L193.054 87.5731L208.613 77.0906Z" fill="#C5C5C5"/>
<path d="M170.533 91.2116L164.016 87.3619L185.169 82.1768L185.962 87.4897L170.533 91.2116Z" fill="#F0F0F0"/>
<path d="M170.373 112.231L156.574 104.362L144 75.9399L164.014 87.36L170.373 112.231Z" fill="#808080"/>
<path d="M174.484 106.692L170.375 112.232L164.016 87.3606L170.533 91.2099L174.484 106.692Z" fill="#C5C5C5"/>
<path d="M185.167 82.1749L164.201 87.3025L164.014 87.3594L144.043 75.9677L144 75.9393L165.138 70.7549L185.167 82.1749Z" fill="#D2D2D2"/>
<path d="M117.527 133.835L119.229 130.895L144.015 127.144L137.887 128.863L117.527 133.835Z" fill="#8F8F8F"/>
<path d="M144.069 98.9912V105.809L141.055 108.266L125.655 122.059L122.959 117.84L144.069 98.9912Z" fill="#C5C5C5"/>
<path d="M144.067 98.9921L144.024 99.0204L122.957 117.841L102.943 106.421L123.664 87.9129L124.053 87.572L144.067 98.9921Z" fill="#D7D7D7"/>
<path d="M66.2633 156.191L66.2056 154.344L119.225 130.894L117.523 133.834L66.2633 156.191Z" fill="#8C8C8C"/>
<path d="M59.0814 158.522L58.793 157.158L66.2044 154.345L66.2621 156.192L59.0814 158.522Z" fill="#939393"/>
<path d="M102.948 106.42L122.962 117.84L62.531 142.953L54.9609 138.606L102.948 106.42Z" fill="#DBDBDB"/>
<path d="M122.958 117.84L125.654 122.058L62.5415 148.748L62.5271 142.952L122.958 117.84Z" fill="#F2F2F2"/>
<path d="M62.5295 142.953L62.5439 148.749L60.4387 146.846L60.4532 141.078L62.5295 142.953Z" fill="#DADADA"/>
<path d="M58.793 157.158L59.413 156.93L59.1967 159.033L58.793 157.158Z" fill="#C5C5C5"/>
<path d="M144.068 105.81L144.011 127.144L126.808 129.743L119.224 130.894L66.2047 154.345L59.4133 156.93L60.4226 146.859L60.4371 146.845L62.5423 148.748L116.859 125.78L125.655 122.059L141.055 108.267L144.068 105.81Z" fill="#C5C5C5"/>
<path d="M168.902 130.895L170.603 133.835L150.244 128.863L144 127.144L168.902 130.895Z" fill="#808080"/>
<path d="M185.185 106.421L165.171 117.841L144.105 99.0204L144.062 98.9921L164.075 87.572L164.205 87.6856L185.185 106.421Z" fill="#DBDBDB"/>
<path d="M147.061 108.268L144.062 105.811V98.9929L165.171 117.842L162.46 122.06L147.061 108.268Z" fill="#B0B0B0"/>
<path d="M230.949 157.599L230.661 158.977L221.865 156.193L221.923 154.346L230.949 157.599Z" fill="#808080"/>
<path d="M221.924 154.344L221.867 156.191L170.606 133.834L168.905 130.894L221.924 154.344Z" fill="#808080"/>
<path d="M165.165 117.841L185.179 106.421L233.166 138.607L231.81 145.596L165.165 117.841Z" fill="#D8D8D8"/>
<path d="M162.457 122.058L165.168 117.84L231.813 145.594L231.799 151.389L162.457 122.058Z" fill="#A8A8A8"/>
<path d="M231.796 151.392L231.81 145.596L227.658 141.078L231.378 147.059L231.796 151.392Z" fill="#868686"/>
<path d="M231.121 151.106L231.798 152.669L230.948 157.612L221.921 154.345L168.902 130.894L161.245 129.743L144 127.144L144.058 105.81L147.057 108.267L162.457 122.059L171.151 125.738L231.121 151.106Z" fill="#898989"/>
<path d="M231.802 151.392L231.124 151.108L229.221 146.732L231.384 147.044L231.802 151.392Z" fill="#898989"/>
<path d="M164.073 87.572L144.059 98.992L124.045 87.572L123.656 87.9129L123.584 87.4157L143.958 75.9673H144.045L164.015 87.3589L164.073 87.572Z" fill="#D1D1D1"/>
<path d="M243.068 163.436V163.422L248.042 134.531L225.318 133.835L230.364 163.194C230.465 164.26 231.229 165.297 232.585 166.021C234.964 167.314 238.54 167.328 240.905 166.035C242.159 165.368 242.895 164.43 243.068 163.436Z" fill="url(#paint5_linear_1_1455)"/>
<path d="M248.115 134.346C248.115 134.332 248.115 134.332 248.115 134.317V124.644L225.275 124.289V133.962C225.13 135.738 226.241 137.542 228.634 138.891C233.104 141.434 240.343 141.448 244.798 138.919C247.004 137.669 248.115 136.022 248.115 134.36V134.346Z" fill="url(#paint6_linear_1_1455)"/>
<path d="M244.799 129.26C240.343 131.788 233.119 131.774 228.635 129.232C224.165 126.689 224.136 122.57 228.577 120.042C233.033 117.513 240.257 117.528 244.741 120.07C249.226 122.613 249.24 126.732 244.799 129.26Z" fill="#576061"/>
<path d="M233.474 126.223C235.089 127.132 237.699 127.132 239.328 126.208C240.943 125.285 240.957 123.793 239.342 122.884C237.727 121.975 235.118 121.975 233.488 122.898C231.873 123.807 231.873 125.299 233.474 126.223Z" fill="#434544"/>
<path d="M240.54 124.418V122.06L232.277 122.187V124.574L236.199 125.754L240.54 124.418Z" fill="#434544"/>
<path d="M233.474 123.738C235.089 124.648 237.699 124.648 239.328 123.724C240.943 122.801 240.957 121.309 239.342 120.4C237.727 119.49 235.118 119.49 233.488 120.414C231.873 121.323 231.873 122.815 233.474 123.738Z" fill="#576061"/>
<path d="M232.971 121.818V120.113L239.863 120V121.705C239.907 122.245 239.575 122.784 238.854 123.196C237.499 123.964 235.321 123.964 233.98 123.211C233.303 122.827 232.971 122.33 232.971 121.818Z" fill="#434544"/>
<path d="M233.964 121.507C235.305 122.274 237.496 122.26 238.837 121.492C240.193 120.725 240.193 119.475 238.852 118.722C237.511 117.955 235.319 117.969 233.978 118.736C232.623 119.503 232.623 120.739 233.964 121.507Z" fill="#576061"/>
<path d="M234.502 119.957V116.562L238.395 116.505V119.886C238.424 120.185 238.236 120.497 237.818 120.725C237.054 121.165 235.828 121.165 235.064 120.725C234.689 120.526 234.502 120.241 234.502 119.957Z" fill="#242625"/>
<path d="M236.983 117.443C236.983 117.443 247.624 118.224 253.839 116.704C260.054 115.17 284.566 106.349 284.566 106.349L285.85 103.935L258.569 106.449L240.4 112.287L239.333 112.627L238.252 112.968L238.122 113.423L236.983 117.443Z" fill="#BBD8DE"/>
<path d="M236.983 117.443C236.983 117.443 247.624 118.224 253.839 116.704C260.054 115.17 284.566 106.349 284.566 106.349L285.85 103.935L258.569 106.449C258.569 106.449 258.208 113.764 252.614 115.965C247.019 118.167 243.515 116.42 243.515 116.42C243.515 116.42 244.654 112.556 240.819 112.272C240.689 112.258 240.545 112.272 240.4 112.287C240.054 112.329 239.694 112.443 239.333 112.627C238.944 112.826 238.54 113.096 238.137 113.423L236.983 117.443Z" fill="#DAE8E8"/>
<path d="M185.187 128.636L188.33 129.672C188.33 129.672 211.819 125.965 219.778 123.48C221.408 122.968 223.051 122.386 224.609 121.775C230.65 119.431 235.611 116.761 235.611 116.761L234.039 115.213C234.039 115.213 223.167 114.133 212.122 116.818C211.04 117.088 209.959 117.386 208.877 117.727C196.938 121.505 185.432 128.479 185.187 128.636Z" fill="#DAE8E8"/>
<path d="M185.187 128.636C185.576 128.451 210.637 117.5 216.39 118.622C218.336 119.005 221.119 119.971 224.609 121.775C230.65 119.431 235.611 116.761 235.611 116.761L234.039 115.213C234.039 115.213 223.167 114.133 212.122 116.818C211.04 117.088 209.959 117.386 208.877 117.727C196.938 121.505 185.432 128.479 185.187 128.636Z" fill="#BBD8DE"/>
<path d="M231.847 114.163C231.847 114.163 231.545 108.551 236.404 108.551C241.263 108.551 240.845 115.086 240.845 115.086C240.845 115.086 240.831 118.552 235.51 118.24C231.357 117.998 231.847 114.163 231.847 114.163Z" fill="#737373"/>
<path d="M57.8379 170.182V170.168L62.8125 141.277L40.0879 140.581L45.1346 169.941C45.2355 171.006 45.9998 172.043 47.3552 172.768C49.7343 174.06 53.3103 174.074 55.675 172.782C56.9151 172.114 57.6505 171.177 57.8379 170.182Z" fill="url(#paint7_linear_1_1455)"/>
<path d="M62.9425 143.764C62.9425 143.75 62.9425 143.75 62.9425 143.736V134.063L40.1025 133.708V143.381C39.9583 145.156 41.0686 146.96 43.4622 148.309C47.9321 150.852 55.1705 150.866 59.6261 148.338C61.8322 147.088 62.9425 145.44 62.9425 143.778V143.764Z" fill="url(#paint8_linear_1_1455)"/>
<path d="M59.6245 138.678C55.169 141.206 47.945 141.192 43.4607 138.649C38.9907 136.107 38.9619 131.987 43.403 129.459C47.8585 126.931 55.0825 126.945 59.5668 129.488C64.0512 132.03 64.0656 136.149 59.6245 138.678Z" fill="#576061"/>
<path d="M48.3026 135.626C49.9175 136.535 52.5274 136.535 54.1568 135.612C55.7717 134.688 55.7862 133.196 54.1712 132.287C52.5563 131.378 49.9464 131.378 48.317 132.301C46.7021 133.225 46.7021 134.717 48.3026 135.626Z" fill="#434544"/>
<path d="M55.3684 133.836V131.478L47.1062 131.605V133.978L51.0282 135.172L55.3684 133.836Z" fill="#434544"/>
<path d="M48.3026 133.141C49.9175 134.05 52.5274 134.05 54.1568 133.126C55.7717 132.203 55.7862 130.711 54.1712 129.802C52.5563 128.893 49.9464 128.892 48.317 129.816C46.7021 130.739 46.7021 132.231 48.3026 133.141Z" fill="#576061"/>
<path d="M47.7842 131.237V129.532L54.6765 129.418V131.123C54.7198 131.663 54.3881 132.203 53.6672 132.615C52.3118 133.382 50.1345 133.382 48.7935 132.629C48.1302 132.245 47.7986 131.748 47.7842 131.237Z" fill="#434544"/>
<path d="M48.7925 130.924C50.1335 131.691 52.3252 131.691 53.6662 130.91C55.0216 130.143 55.0216 128.892 53.6806 128.139C52.3396 127.372 50.1479 127.372 48.8069 128.154C47.4515 128.921 47.4515 130.157 48.7925 130.924Z" fill="#576061"/>
<path d="M49.3281 129.375V125.98L53.2213 125.923V129.304C53.2502 129.603 53.0627 129.915 52.6446 130.143C51.8803 130.583 50.6547 130.583 49.8905 130.143C49.5156 129.944 49.3281 129.659 49.3281 129.375Z" fill="#242625"/>
<path d="M48.8666 126.86C48.8666 126.86 38.2252 127.642 32.0106 126.122C25.7959 124.588 1.28333 115.767 1.28333 115.767L0 113.352L27.2811 115.866L45.4492 121.704L46.5162 122.045L47.5977 122.386L47.7274 122.841L48.8666 126.86Z" fill="#DAE8E8"/>
<path d="M48.8666 126.86C48.8666 126.86 38.2252 127.642 32.0106 126.122C25.7959 124.588 1.28333 115.767 1.28333 115.767L0 113.352L27.2811 115.866C27.2811 115.866 27.6415 123.181 33.2361 125.383C38.8308 127.585 42.3347 125.838 42.3347 125.838C42.3347 125.838 41.1956 121.974 45.031 121.69C45.1608 121.676 45.305 121.69 45.4492 121.704C45.7952 121.747 46.1557 121.86 46.5162 122.045C46.9055 122.244 47.3093 122.514 47.713 122.841L48.8666 126.86Z" fill="#BBD8DE"/>
<path d="M100.674 138.053L97.5302 139.09C97.5302 139.09 74.0413 135.383 66.082 132.897C64.4526 132.386 62.8089 131.803 61.2516 131.192C55.21 128.849 50.2498 126.178 50.2498 126.178L51.8214 124.63C51.8214 124.63 62.6935 123.551 73.7386 126.235C74.82 126.505 75.9015 126.803 76.9829 127.144C88.922 130.923 100.428 137.897 100.674 138.053Z" fill="#DAE8E8"/>
<path d="M100.674 138.037C100.284 137.853 75.2237 126.902 69.4705 128.024C67.5239 128.407 64.741 129.373 61.2516 131.177C55.21 128.833 50.2498 126.163 50.2498 126.163L51.8214 124.615C51.8214 124.615 62.6935 123.535 73.7386 126.22C74.82 126.49 75.9015 126.788 76.9829 127.129C88.922 130.921 100.428 137.895 100.674 138.037Z" fill="#BBD8DE"/>
<path d="M46.6776 123.58C46.6776 123.58 46.3748 117.968 51.2341 117.968C56.0933 117.968 55.6752 124.503 55.6752 124.503C55.6752 124.503 55.6608 127.969 50.3401 127.657C46.173 127.415 46.6776 123.58 46.6776 123.58Z" fill="#737373"/>
<path d="M182.861 93.0678C182.928 80.7988 165.494 70.7594 143.921 70.6442C122.348 70.5289 104.805 80.3816 104.737 92.6506C104.67 104.92 122.104 114.959 143.677 115.074C165.25 115.19 182.793 105.337 182.861 93.0678Z" fill="#D7D7D7"/>
<path d="M144.37 115.001V132.017C144.37 132.017 153.959 132.188 161.255 129.744C162.48 122.074 162.48 122.074 162.48 122.074L153.901 114.39L144.37 115.001Z" fill="#B0B0B0"/>
<path d="M168.908 92.063C168.952 84.1791 157.748 77.7279 143.883 77.6539C130.019 77.5798 118.744 83.9109 118.701 91.7948C118.657 99.6787 129.862 106.13 143.726 106.204C157.591 106.278 168.865 99.9468 168.908 92.063Z" fill="#A8A8A8"/>
<path d="M165.201 92.0432C165.238 85.3203 155.688 79.8192 143.87 79.7561C132.052 79.693 122.442 85.0918 122.405 91.8147C122.368 98.5376 131.918 104.039 143.736 104.102C155.554 104.165 165.164 98.7661 165.201 92.0432Z" fill="#BFBFBF"/>
<path d="M158.743 84.8604C155.903 82.6017 150.726 81.3374 147.165 82.0335C143.603 82.7295 143.027 85.1303 145.867 87.389C148.708 89.6478 153.884 90.9121 157.446 90.216C160.993 89.5057 161.584 87.1191 158.743 84.8604Z" fill="#EDEDED"/>
<path d="M126.81 129.743L125.657 122.059L134.236 114.375L144.358 114.999V132.016C144.373 132.016 132.102 132.13 126.81 129.743Z" fill="#C5C5C5"/>
<path d="M122.954 117.842L125.65 122.061L128.174 113.182L122.954 117.842Z" fill="#F2F2F2"/>
<path d="M159.93 113.154L162.468 122.061L165.178 117.842L159.93 113.154Z" fill="#A8A8A8"/>
<path d="M100.052 139.36L144.362 132.017V121.065L122.402 127.145L100.052 139.36Z" fill="#C5C5C5"/>
<path d="M144.366 132.017L197.141 143.38L162.463 122.06L144.366 121.065V132.017Z" fill="#898989"/>
<path d="M210.892 76.9041L193.027 102.628L191.614 100.596L208.614 77.0887L210.892 76.9041Z" fill="#898989"/>
<path d="M100.052 141.449L144.362 134.616L197.569 145.596L188.672 141.562L144.362 132.017L100.052 139.361V141.449Z" fill="#8C8C8C"/>
<defs>
<linearGradient id="paint0_linear_1_1455" x1="125.787" y1="137.571" x2="164.069" y2="137.571" gradientUnits="userSpaceOnUse">
<stop offset="0.0443" stop-color="#313332"/>
<stop offset="0.7526" stop-color="#464847"/>
<stop offset="1" stop-color="#404241"/>
</linearGradient>
<linearGradient id="paint1_linear_1_1455" x1="43.6252" y1="44.2752" x2="66.345" y2="44.2752" gradientUnits="userSpaceOnUse">
<stop offset="0.0443" stop-color="#898989"/>
<stop offset="0.6901" stop-color="#C5C5C5"/>
</linearGradient>
<linearGradient id="paint2_linear_1_1455" x1="43.6137" y1="29.0954" x2="66.4666" y2="29.0954" gradientUnits="userSpaceOnUse">
<stop offset="0.0443" stop-color="#313332"/>
<stop offset="0.7526" stop-color="#464847"/>
<stop offset="1" stop-color="#404241"/>
</linearGradient>
<linearGradient id="paint3_linear_1_1455" x1="225.649" y1="51.2134" x2="248.368" y2="51.2134" gradientUnits="userSpaceOnUse">
<stop offset="0.0443" stop-color="#898989"/>
<stop offset="0.6901" stop-color="#C5C5C5"/>
</linearGradient>
<linearGradient id="paint4_linear_1_1455" x1="225.587" y1="36.0287" x2="248.44" y2="36.0287" gradientUnits="userSpaceOnUse">
<stop offset="0.0443" stop-color="#313332"/>
<stop offset="0.7526" stop-color="#464847"/>
<stop offset="1" stop-color="#404241"/>
</linearGradient>
<linearGradient id="paint5_linear_1_1455" x1="225.332" y1="150.419" x2="248.051" y2="150.419" gradientUnits="userSpaceOnUse">
<stop offset="0.0443" stop-color="#898989"/>
<stop offset="0.6901" stop-color="#C5C5C5"/>
</linearGradient>
<linearGradient id="paint6_linear_1_1455" x1="225.265" y1="132.556" x2="248.118" y2="132.556" gradientUnits="userSpaceOnUse">
<stop offset="0.0443" stop-color="#313332"/>
<stop offset="0.7526" stop-color="#464847"/>
<stop offset="1" stop-color="#404241"/>
</linearGradient>
<linearGradient id="paint7_linear_1_1455" x1="40.0909" y1="157.16" x2="62.8108" y2="157.16" gradientUnits="userSpaceOnUse">
<stop offset="0.0443" stop-color="#898989"/>
<stop offset="0.6901" stop-color="#C5C5C5"/>
</linearGradient>
<linearGradient id="paint8_linear_1_1455" x1="40.0911" y1="141.972" x2="62.944" y2="141.972" gradientUnits="userSpaceOnUse">
<stop offset="0.0443" stop-color="#313332"/>
<stop offset="0.7526" stop-color="#464847"/>
<stop offset="1" stop-color="#404241"/>
</linearGradient>
</defs>
</svg>
