<svg width="644" height="142" viewBox="0 0 644 142" fill="none" xmlns="http://www.w3.org/2000/svg">
<g opacity="0.5">
<path d="M8.58618 137.43V12.5259H128.456V39.8263H48.5427V59.9893H85.6305C103.116 59.9893 116.435 63.2012 125.587 69.6248C134.876 76.0484 139.52 85.327 139.52 97.4605C139.52 109.951 134.33 119.765 123.948 126.902C113.566 133.921 99.0176 137.43 80.3029 137.43H8.58618ZM48.5427 112.092H77.6392C84.3327 112.092 89.4554 110.903 93.0071 108.523C96.6953 106.144 98.5395 102.754 98.5395 98.3527C98.5395 89.5499 91.5727 85.1485 77.6392 85.1485H48.5427V112.092Z" fill="#FFD564"/>
<path d="M160.464 137.43V12.5259H295.087V137.43H254.925V32.6889L263.941 40.54H191.61L200.42 32.6889V137.43H160.464Z" fill="#FFD564"/>
<path d="M331.291 139.571C328.559 139.571 325.622 139.393 322.48 139.036C319.475 138.679 316.264 138.143 312.849 137.43L315.103 108.523C317.016 108.88 318.86 109.059 320.636 109.059C326.236 109.059 330.471 107.155 333.34 103.349C336.208 99.4233 338.189 93.9513 339.282 86.9329C340.512 79.9145 341.263 71.7065 341.536 62.309L343.585 12.5259H459.152V137.43H419.195V32.6889L428.006 40.54H370.018L378.214 32.3321L377.19 60.8815C376.78 73.015 375.823 83.959 374.321 93.7134C372.818 103.349 370.428 111.616 367.149 118.516C363.871 125.296 359.294 130.53 353.421 134.218C347.683 137.787 340.307 139.571 331.291 139.571Z" fill="#FFD564"/>
<path d="M475.49 137.43L538.805 12.5259H578.762L642.282 137.43H600.072L550.485 29.834H566.467L516.88 137.43H475.49ZM510.118 113.163L520.569 87.1113H590.646L601.096 113.163H510.118Z" fill="#FFD564"/>
<path fill-rule="evenodd" clip-rule="evenodd" d="M6.86938 139.229V12.5259H129.479V42.0824H49.5727V59.7672H85.2823C102.93 59.7672 116.604 62.9905 126.094 69.6188C135.768 76.2792 140.543 85.8875 140.543 98.255C140.543 111.016 135.19 121.143 124.448 128.494L124.44 128.5C113.734 135.704 98.8476 139.229 79.9552 139.229H6.86938ZM125.235 70.5495C116.084 64.156 102.766 60.9592 85.2823 60.9592H48.1976V40.8905H128.104V13.7178H8.24447V138.037H79.9552C98.6683 138.037 113.215 134.544 123.596 127.559C133.977 120.455 139.168 110.687 139.168 98.255C139.168 86.1783 134.524 76.9431 125.235 70.5495ZM91.8297 108.315L91.8398 108.308C95.1386 106.19 96.8151 103.19 96.8151 99.143C96.8151 95.0682 95.2193 92.1761 92.1581 90.251C89.015 88.2744 84.1326 87.1926 77.2917 87.1926H49.5727V111.626H77.2917C83.8244 111.626 88.6018 110.467 91.8198 108.321L91.8297 108.315ZM48.1976 112.818V86.0006H77.2917C91.224 86.0006 98.1902 90.3814 98.1902 99.143C98.1902 103.524 96.3462 106.898 92.6582 109.266C89.1069 111.634 83.9847 112.818 77.2917 112.818H48.1976ZM158.734 139.229V12.5259H296.096V139.229H253.188V42.7928H201.438V139.229H158.734ZM200.063 41.6009H254.563V138.037H294.721V13.7178H160.11V138.037H200.063V41.6009ZM321.934 140.818L321.926 140.817C318.869 140.455 315.614 139.914 312.161 139.196L311.031 138.961L313.471 107.812L315.024 108.101C316.851 108.44 318.598 108.607 320.268 108.607C325.441 108.607 329.223 106.89 331.816 103.469C334.534 99.7632 336.472 94.5077 337.55 87.6165L337.551 87.6067L337.553 87.5969C338.772 80.6738 339.52 72.5563 339.792 63.2378L339.792 63.2253L341.889 12.5259H460.147V139.229H417.444V42.7928H378.88L378.191 61.8822C377.78 73.9911 376.821 84.9261 375.311 94.6839L375.311 94.6858C373.797 104.349 371.382 112.682 368.048 119.667L368.045 119.674C364.685 126.591 359.964 131.989 353.854 135.807L353.849 135.81C347.821 139.542 340.144 141.36 330.922 141.36C328.122 141.36 325.125 141.178 321.934 140.818ZM377.547 41.6009H418.819V138.037H458.772V13.7178H343.215L341.166 63.268C340.893 72.6215 340.142 80.7911 338.913 87.7766C337.82 94.7622 335.839 100.209 332.971 104.116C330.102 107.905 325.868 109.799 320.268 109.799C318.917 109.799 317.526 109.696 316.096 109.491C315.647 109.426 315.193 109.351 314.736 109.266L312.482 138.037C315.897 138.748 319.107 139.28 322.112 139.636C325.253 139.991 328.19 140.168 330.922 140.168C339.937 140.168 347.313 138.392 353.05 134.84C358.923 131.17 363.499 125.96 366.777 119.212C370.055 112.345 372.446 104.116 373.948 94.5254C375.451 84.8167 376.407 73.9239 376.817 61.8472L377.547 41.6009ZM472.998 139.229L537.523 12.5259H579.267L644 139.229H598.75L587.568 115.076H528.609L517.426 139.229H472.998ZM527.679 113.884H588.497L599.68 138.037H641.887L578.372 13.7178H538.419L475.109 138.037H516.496L527.679 113.884ZM558.088 48.2036L539.684 87.9542H576.492L558.088 48.2036ZM574.459 86.7623L558.088 51.4039L541.717 86.7623H574.459Z" fill="#FFD562"/>
<path d="M0 39.5203H130.517V60.8003H0V39.5203Z" fill="#201C26"/>
<path d="M247.297 64.4175H305.686V84.1005H247.297V64.4175Z" fill="#201C26"/>
<path d="M396.703 50.1021V-0.000225067H417.311V50.1021H396.703Z" fill="#201C26"/>
<path d="M575.306 87.6792L492.874 87.6792V69.7855L554.698 69.7855L575.306 87.6792Z" fill="#201C26"/>
</g>
</svg>
