<svg width="523" height="125" viewBox="0 0 523 125" fill="none" xmlns="http://www.w3.org/2000/svg">
<g opacity="0.5">
<path d="M122.451 -4.78223V72.1318C122.451 82.8532 120.411 92.1761 116.333 100.101C112.254 107.967 106.136 114.056 97.978 118.368C89.8205 122.621 79.5944 124.748 67.2998 124.748C49.7028 124.748 36.272 120.232 27.0073 111.201C17.7427 102.169 13.1104 89.4084 13.1104 72.9185V-4.78223H47.8091V70.209C47.8091 79.2406 49.4989 85.7957 52.8784 89.8745C56.258 93.9533 61.2399 95.9927 67.8242 95.9927C72.5439 95.9927 76.3896 95.1187 79.3613 93.3706C82.333 91.5643 84.4889 88.7383 85.8291 84.8926C87.2275 81.0469 87.9268 76.0941 87.9268 70.0342V-4.78223H122.451ZM240.213 123L233.92 99.0518H192.404L185.936 123H148.004L189.695 -5.30664H235.756L277.971 123H240.213ZM226.753 70.7334L221.247 49.7568C220.664 47.4844 219.819 44.2505 218.712 40.0552C217.605 35.8016 216.498 31.4315 215.391 26.9448C214.342 22.3999 213.526 18.6707 212.944 15.7573C212.419 18.6707 211.662 22.2834 210.671 26.5952C209.739 30.8488 208.748 35.0732 207.699 39.2686C206.709 43.4639 205.835 46.96 205.077 49.7568L199.571 70.7334H226.753ZM414.787 -4.78223L372.921 123H332.279L290.588 -4.78223H329.395L346.788 59.9829C347.429 62.4302 348.157 65.5767 348.973 69.4224C349.847 73.2098 350.634 76.9972 351.333 80.7847C352.09 84.5721 352.557 87.6603 352.731 90.0493C352.964 87.6603 353.401 84.6012 354.042 80.8721C354.683 77.1429 355.383 73.4137 356.14 69.6846C356.956 65.8971 357.713 62.7798 358.413 60.3325L376.155 -4.78223H414.787ZM512.797 92.584C512.797 98.877 511.398 104.442 508.601 109.278C505.804 114.114 501.318 117.902 495.141 120.64C489.023 123.379 480.953 124.748 470.931 124.748C463.88 124.748 457.558 124.369 451.965 123.612C446.429 122.854 440.806 121.398 435.096 119.242V91.8848C441.331 94.7399 447.682 96.8084 454.15 98.0903C460.617 99.314 465.716 99.9258 469.445 99.9258C473.291 99.9258 476.088 99.5179 477.836 98.7021C479.642 97.8281 480.545 96.5462 480.545 94.8564C480.545 93.3997 479.933 92.1761 478.71 91.1855C477.544 90.1367 475.417 88.9422 472.329 87.6021C469.299 86.2619 465.017 84.4556 459.481 82.1831C454.004 79.9106 449.43 77.4342 445.759 74.7539C442.146 72.0736 439.437 68.8688 437.631 65.1396C435.824 61.4105 434.921 56.8364 434.921 51.4175C434.921 41.745 438.65 34.4614 446.109 29.5669C453.567 24.6724 463.443 22.2251 475.738 22.2251C482.264 22.2251 488.411 22.9535 494.18 24.4102C499.948 25.8086 505.921 27.8771 512.097 30.6157L502.745 52.6411C497.851 50.4269 492.898 48.6497 487.887 47.3096C482.876 45.9694 478.884 45.2993 475.913 45.2993C473.232 45.2993 471.164 45.6489 469.707 46.3481C468.25 47.0474 467.522 48.0671 467.522 49.4072C467.522 50.6309 468.017 51.7088 469.008 52.6411C470.057 53.5734 472.009 54.6514 474.864 55.875C477.719 57.0986 481.885 58.8175 487.362 61.0317C493.131 63.3625 497.88 65.868 501.609 68.5483C505.396 71.1704 508.193 74.3752 510 78.1626C511.864 81.95 512.797 86.7572 512.797 92.584Z" fill="#F9D26E"/>
<path d="M163.903 58H207.114V71H163.903V58Z" fill="#24202B"/>
<path d="M11.9202 57H50.6609V71H11.9202V57Z" fill="#382F44"/>
<path d="M346 123V53H359V123H346Z" fill="#322E2F"/>
</g>
</svg>
