<svg width="275" height="156" viewBox="0 0 275 156" fill="none" xmlns="http://www.w3.org/2000/svg">
<path d="M123.147 0.852539H123.347V0.652539H123.147V0.852539ZM122.62 59.7832L122.818 59.8152L122.818 59.8148L122.62 59.7832ZM119.5 66.5068L119.66 66.6275L119.66 66.6265L119.5 66.5068ZM112.645 71.7363L112.721 71.9209L112.722 71.9205L112.645 71.7363ZM81.2676 58.7725L81.0689 58.7956L81.069 58.7958L81.2676 58.7725ZM80.8281 0.852539V0.652539H80.6281V0.852539H80.8281ZM99.3291 0.852539H99.5291V0.652539H99.3291V0.852539ZM99.8125 60.1787L99.6246 60.2476L99.6277 60.2552L99.8125 60.1787ZM104.119 60.0469L103.931 59.9785L103.93 59.9819L104.119 60.0469ZM104.646 0.852539V0.652539H104.446V0.852539H104.646ZM122.947 0.852539V48.4014H123.347V0.852539H122.947ZM122.947 48.4014C122.947 53.7921 122.771 57.5717 122.423 59.7516L122.818 59.8148C123.172 57.6002 123.347 53.7919 123.347 48.4014H122.947ZM122.423 59.7512C122.078 61.8789 121.055 64.0907 119.34 66.3872L119.66 66.6265C121.402 64.2941 122.459 62.0234 122.818 59.8152L122.423 59.7512ZM119.34 66.3862C117.635 68.6412 115.379 70.3635 112.567 71.5521L112.722 71.9205C115.594 70.7068 117.908 68.9428 119.66 66.6275L119.34 66.3862ZM112.568 71.5517C109.785 72.7112 106.487 73.2941 102.669 73.2941V73.6941C106.527 73.6941 109.879 73.1052 112.721 71.9209L112.568 71.5517ZM102.669 73.2941C98.4429 73.2941 94.7207 72.5947 91.4983 71.2012L91.3396 71.5683C94.621 72.9874 98.3989 73.6941 102.669 73.6941V73.2941ZM91.4983 71.2012C88.2706 69.8054 85.8718 67.9944 84.2868 65.7754L83.9613 66.0079C85.5989 68.3005 88.0634 70.1516 91.3396 71.5683L91.4983 71.2012ZM84.2868 65.7754C82.6929 63.544 81.7548 61.2024 81.4662 58.7491L81.069 58.7958C81.3663 61.323 82.3325 63.7275 83.9613 66.0079L84.2868 65.7754ZM81.4662 58.7494C81.1749 56.2434 81.0281 50.9819 81.0281 42.9521H80.6281C80.6281 50.9771 80.7744 56.2625 81.0689 58.7956L81.4662 58.7494ZM81.0281 42.9521V0.852539H80.6281V42.9521H81.0281ZM80.8281 1.05254H99.3291V0.652539H80.8281V1.05254ZM99.1291 0.852539V54.2021H99.5291V0.852539H99.1291ZM99.1291 54.2021C99.1291 55.7577 99.1694 57.038 99.2506 58.0415C99.3314 59.04 99.4536 59.7809 99.6247 60.2476L100 60.1099C99.8491 59.6976 99.7297 59.0029 99.6493 58.0093C99.5693 57.0206 99.5291 55.7521 99.5291 54.2021H99.1291ZM99.6277 60.2552C99.8173 60.7133 100.103 61.0673 100.488 61.3047C100.871 61.5412 101.338 61.6531 101.878 61.6531V61.2531C101.393 61.2531 101.003 61.1527 100.698 60.9643C100.394 60.7769 100.159 60.4937 99.9973 60.1022L99.6277 60.2552ZM101.878 61.6531C102.489 61.6531 103.009 61.5309 103.423 61.271C103.84 61.0093 104.134 60.6182 104.308 60.1119L103.93 59.9819C103.782 60.413 103.541 60.7251 103.211 60.9322C102.878 61.141 102.438 61.2531 101.878 61.2531V61.6531ZM104.307 60.1152C104.493 59.6043 104.626 58.7751 104.714 57.6454C104.802 56.5103 104.846 55.0544 104.846 53.2793H104.446C104.446 55.0491 104.403 56.4936 104.315 57.6143C104.227 58.7405 104.097 59.5226 103.931 59.9785L104.307 60.1152ZM104.846 53.2793V0.852539H104.446V53.2793H104.846ZM104.646 1.05254H123.147V0.652539H104.646V1.05254ZM151.536 36.7119H151.736V36.5119H151.536V36.7119ZM151.536 48.9727V49.1727H151.736V48.9727H151.536ZM128.201 48.9727H128.001V49.1727H128.201V48.9727ZM128.201 36.7119V36.5119H128.001V36.7119H128.201ZM151.336 36.7119V48.9727H151.736V36.7119H151.336ZM151.536 48.7727H128.201V49.1727H151.536V48.7727ZM128.401 48.9727V36.7119H128.001V48.9727H128.401ZM128.201 36.9119H151.536V36.5119H128.201V36.9119ZM156.854 0.852539V0.652539H156.654V0.852539H156.854ZM187.703 0.852539H187.903V0.652539H187.703V0.852539ZM187.703 15.0908V15.2908H187.903V15.0908H187.703ZM175.354 15.0908V14.8908H175.154V15.0908H175.354ZM175.354 28.582H175.154V28.782H175.354V28.582ZM186.912 28.582H187.112V28.382H186.912V28.582ZM186.912 42.1172V42.3172H187.112V42.1172H186.912ZM175.354 42.1172V41.9172H175.154V42.1172H175.354ZM175.354 57.7617H175.154V57.9617H175.354V57.7617ZM188.934 57.7617H189.134V57.5617H188.934V57.7617ZM188.934 72V72.2H189.134V72H188.934ZM156.854 72H156.654V72.2H156.854V72ZM156.854 1.05254H187.703V0.652539H156.854V1.05254ZM187.503 0.852539V15.0908H187.903V0.852539H187.503ZM187.703 14.8908H175.354V15.2908H187.703V14.8908ZM175.154 15.0908V28.582H175.555V15.0908H175.154ZM175.354 28.782H186.912V28.382H175.354V28.782ZM186.712 28.582V42.1172H187.112V28.582H186.712ZM186.912 41.9172H175.354V42.3172H186.912V41.9172ZM175.154 42.1172V57.7617H175.555V42.1172H175.154ZM175.354 57.9617H188.934V57.5617H175.354V57.9617ZM188.734 57.7617V72H189.134V57.7617H188.734ZM188.934 71.8H156.854V72.2H188.934V71.8ZM157.054 72V0.852539H156.654V72H157.054ZM230.945 13.6846L231.144 13.7086L231.171 13.4846H230.945V13.6846ZM225.848 55.8721L225.649 55.8481L225.649 55.8485L225.848 55.8721ZM223.826 69.5391L223.631 69.4944L223.631 69.4967L223.826 69.5391ZM215.872 79.0312L215.81 78.841L215.807 78.842L215.872 79.0312ZM194.383 80.1738H194.183V80.3738H194.383V80.1738ZM194.383 70.8574V70.6574H194.183V70.8574H194.383ZM199.7 70.4619L199.763 70.6518L199.77 70.6495L199.7 70.4619ZM199.788 62.4639L199.592 62.5029L199.592 62.5037L199.788 62.4639ZM190.076 13.6846V13.4846H189.832L189.88 13.7236L190.076 13.6846ZM206.204 13.6846L206.402 13.6554L206.377 13.4846H206.204V13.6846ZM212.005 53.0156L211.807 53.0448L212.204 53.0299L212.005 53.0156ZM214.817 13.6846V13.4846H214.631L214.618 13.6703L214.817 13.6846ZM230.747 13.6606L225.649 55.8481L226.046 55.8961L231.144 13.7086L230.747 13.6606ZM225.649 55.8485C224.858 62.5292 224.185 67.0747 223.631 69.4944L224.021 69.5837C224.581 67.1402 225.255 62.5743 226.046 55.8956L225.649 55.8485ZM223.631 69.4967C223.108 71.9051 222.226 73.8819 220.989 75.435L221.302 75.6842C222.585 74.0732 223.489 72.0363 224.022 69.5815L223.631 69.4967ZM220.989 75.435C219.758 76.9813 218.035 78.1186 215.81 78.841L215.934 79.2215C218.22 78.4791 220.014 77.3019 221.302 75.6842L220.989 75.435ZM215.807 78.842C213.614 79.5924 210.068 79.9738 205.149 79.9738V80.3738C210.075 80.3738 213.677 79.9936 215.937 79.2205L215.807 78.842ZM205.149 79.9738H194.383V80.3738H205.149V79.9738ZM194.583 80.1738V70.8574H194.183V80.1738H194.583ZM194.383 71.0574C195.762 71.0574 196.899 71.0244 197.792 70.958C198.681 70.8919 199.343 70.7918 199.763 70.6516L199.637 70.2722C199.267 70.3957 198.647 70.4933 197.763 70.5591C196.883 70.6245 195.757 70.6574 194.383 70.6574V71.0574ZM199.77 70.6495C200.201 70.4898 200.535 70.2333 200.759 69.8761C200.982 69.5211 201.087 69.0822 201.087 68.5723H200.687C200.687 69.0291 200.593 69.3886 200.421 69.6634C200.25 69.9361 199.991 70.141 199.631 70.2744L199.77 70.6495ZM201.087 68.5723C201.087 68.3157 200.991 67.6685 200.809 66.6582C200.625 65.6379 200.35 64.2263 199.984 62.424L199.592 62.5037C199.958 64.3049 200.233 65.7131 200.415 66.729C200.6 67.7549 200.687 68.3601 200.687 68.5723H201.087ZM199.984 62.4248L190.272 13.6455L189.88 13.7236L199.592 62.5029L199.984 62.4248ZM190.076 13.8846H206.204V13.4846H190.076V13.8846ZM206.006 13.7138L211.807 53.0448L212.203 52.9864L206.402 13.6554L206.006 13.7138ZM212.204 53.0299L215.017 13.6988L214.618 13.6703L211.805 53.0014L212.204 53.0299ZM214.817 13.8846H230.945V13.4846H214.817V13.8846ZM274.319 43.875V44.075H274.519V43.875H274.319ZM251.336 43.875V43.675H251.136V43.875H251.336ZM256.785 61.2334L256.603 61.1502L256.602 61.1527L256.785 61.2334ZM257.488 47.6543V47.4543H257.288V47.6543H257.488ZM274.319 47.6543H274.519V47.4543H274.319V47.6543ZM273.616 60.2666L273.422 60.2195L273.421 60.2223L273.616 60.2666ZM264.08 71.4287L264.158 71.6128L264.159 71.6123L264.08 71.4287ZM237.801 66.9902L237.647 67.1181L237.649 67.1206L237.801 66.9902ZM234.505 60.75L234.312 60.802L234.312 60.8026L234.505 60.75ZM235.647 21.7705L235.828 21.8556L235.829 21.8549L235.647 21.7705ZM242.415 15.0029L242.504 15.1822L242.505 15.1815L242.415 15.0029ZM265.53 15.4863L265.429 15.6585L265.43 15.6596L265.53 15.4863ZM272.342 23.001L272.157 23.077L272.158 23.0791L272.342 23.001ZM256.521 34.3828V34.5828H256.721V34.3828H256.521ZM251.775 24.0996L251.961 24.1739L251.962 24.1714L251.775 24.0996ZM251.336 34.3828H251.136V34.5828H251.336V34.3828ZM274.319 43.675H251.336V44.075H274.319V43.675ZM251.136 43.875V56.4873H251.536V43.875H251.136ZM251.136 56.4873C251.136 57.8096 251.184 58.9017 251.28 59.7615C251.376 60.6158 251.521 61.2605 251.728 61.6744L252.086 61.4955C251.912 61.1477 251.772 60.5619 251.678 59.717C251.583 58.8776 251.536 57.8017 251.536 56.4873H251.136ZM251.728 61.6744C252.153 62.5234 252.969 62.9275 254.104 62.9275V62.5275C253.072 62.5275 252.423 62.17 252.086 61.4955L251.728 61.6744ZM254.104 62.9275C254.802 62.9275 255.398 62.7988 255.883 62.5287C256.37 62.2571 256.732 61.8492 256.968 61.3141L256.602 61.1527C256.399 61.6136 256.094 61.9529 255.688 62.1793C255.279 62.4073 254.755 62.5275 254.104 62.5275V62.9275ZM256.967 61.3166C257.214 60.776 257.393 60.0049 257.511 59.0159C257.63 58.0239 257.688 56.7996 257.688 55.3447H257.288C257.288 56.7903 257.23 57.9976 257.114 58.9685C256.998 59.9424 256.825 60.6654 256.603 61.1502L256.967 61.3166ZM257.688 55.3447V47.6543H257.288V55.3447H257.688ZM257.488 47.8543H274.319V47.4543H257.488V47.8543ZM274.119 47.6543V51.9609H274.519V47.6543H274.119ZM274.119 51.9609C274.119 55.5592 273.885 58.309 273.422 60.2195L273.811 60.3137C274.285 58.357 274.519 55.5697 274.519 51.9609H274.119ZM273.421 60.2223C272.99 62.1194 271.952 64.159 270.293 66.3419L270.611 66.5839C272.292 64.3723 273.363 62.281 273.811 60.3109L273.421 60.2223ZM270.293 66.3419C268.644 68.5112 266.548 70.1452 264.001 71.2451L264.159 71.6123C266.768 70.4856 268.92 68.8091 270.611 66.5839L270.293 66.3419ZM264.002 71.2447C261.485 72.3148 258.306 72.8547 254.456 72.8547V73.2547C258.34 73.2547 261.577 72.7106 264.158 71.6128L264.002 71.2447ZM254.456 72.8547C250.725 72.8547 247.439 72.3154 244.595 71.2416L244.454 71.6158C247.352 72.71 250.687 73.2547 254.456 73.2547V72.8547ZM244.595 71.2416C241.748 70.1666 239.537 68.704 237.952 66.8599L237.649 67.1206C239.287 69.0264 241.559 70.5228 244.454 71.6158L244.595 71.2416ZM237.955 66.8624C236.39 64.9788 235.305 62.9241 234.698 60.6974L234.312 60.8026C234.935 63.0877 236.048 65.1931 237.647 67.118L237.955 66.8624ZM234.698 60.698C234.09 58.4384 233.782 55.1487 233.782 50.8184H233.382C233.382 55.1599 233.69 58.4913 234.312 60.802L234.698 60.698ZM233.782 50.8184V33.8115H233.382V50.8184H233.782ZM233.782 33.8115C233.782 28.7282 234.469 24.7477 235.828 21.8556L235.466 21.6854C234.072 24.6527 233.382 28.6996 233.382 33.8115H233.782ZM235.829 21.8549C237.185 18.9402 239.407 16.7163 242.504 15.1821L242.326 14.8237C239.154 16.3951 236.864 18.6829 235.466 21.6861L235.829 21.8549ZM242.505 15.1815C245.608 13.6156 249.18 12.8299 253.226 12.8299V12.4299C249.127 12.4299 245.492 13.2262 242.325 14.8244L242.505 15.1815ZM253.226 12.8299C258.182 12.8299 262.245 13.7775 265.429 15.6585L265.632 15.3141C262.37 13.3866 258.23 12.4299 253.226 12.4299V12.8299ZM265.43 15.6596C268.648 17.515 270.886 19.9876 272.157 23.077L272.527 22.9249C271.219 19.7448 268.916 17.2077 265.63 15.3131L265.43 15.6596ZM272.158 23.0791C273.461 26.1486 274.119 30.4975 274.119 36.1406H274.519C274.519 30.4752 273.86 26.0642 272.526 22.9228L272.158 23.0791ZM274.119 36.1406V43.875H274.519V36.1406H274.119ZM256.721 34.3828V30.1201H256.321V34.3828H256.721ZM256.721 30.1201C256.721 28.6084 256.681 27.361 256.6 26.3793C256.519 25.4023 256.397 24.6728 256.226 24.2065L255.85 24.3442C256.002 24.7569 256.121 25.441 256.201 26.4122C256.281 27.3788 256.321 28.6142 256.321 30.1201H256.721ZM256.226 24.2065C256.053 23.7347 255.784 23.3675 255.413 23.1202C255.043 22.8736 254.588 22.757 254.061 22.757V23.157C254.529 23.157 254.902 23.2602 255.191 23.453C255.479 23.6452 255.701 23.9372 255.85 24.3442L256.226 24.2065ZM254.061 22.757C252.796 22.757 251.926 23.1515 251.589 24.0278L251.962 24.1714C252.211 23.5243 252.864 23.157 254.061 23.157V22.757ZM251.59 24.0253C251.43 24.4239 251.319 25.1377 251.246 26.1395C251.173 27.1498 251.136 28.4772 251.136 30.1201H251.536C251.536 28.4817 251.573 27.1651 251.645 26.1686C251.719 25.1635 251.828 24.5078 251.961 24.1739L251.59 24.0253ZM251.136 30.1201V34.3828H251.536V30.1201H251.136ZM251.336 34.5828H256.521V34.1828H251.336V34.5828ZM41.2773 104.386V104.586H41.4773V104.386H41.2773ZM24.0947 104.386H23.8947V104.586H24.0947V104.386ZM18.6895 94.7617L18.5213 94.6533L18.5189 94.6572L18.6895 94.7617ZM18.8213 104.254L18.9993 104.163L18.9975 104.159L18.8213 104.254ZM24.0508 108.604L24.153 108.433L24.1526 108.432L24.0508 108.604ZM41.0137 147.013L40.8348 146.923L40.8339 146.925L41.0137 147.013ZM34.1582 153.077L34.2439 153.258L34.2451 153.257L34.1582 153.077ZM9.59277 152.682L9.49804 152.858L9.49866 152.858L9.59277 152.682ZM1.11133 128.512V128.312H0.911331V128.512H1.11133ZM18.2939 128.512H18.4939V128.312H18.2939V128.512ZM18.9971 142.311L18.8267 142.415L18.8297 142.42L18.9971 142.311ZM24.3145 142.003L24.1457 141.896L24.1434 141.899L24.3145 142.003ZM23.5234 129.479L23.6731 129.346L23.6714 129.344L23.5234 129.479ZM14.8662 123.019L14.7558 123.185L14.7565 123.186L14.8662 123.019ZM1.99023 110.67L1.80437 110.744L1.80516 110.746L1.99023 110.67ZM2.60547 89.4004L2.43082 89.3029L2.42997 89.3045L2.60547 89.4004ZM9.37305 83.5117L9.45555 83.6939L9.45697 83.6933L9.37305 83.5117ZM32.8838 83.6875L32.8001 83.8691L32.8007 83.8694L32.8838 83.6875ZM39.6074 89.5762L39.4255 89.6593L39.4268 89.662L39.6074 89.5762ZM41.2773 104.186H24.0947V104.586H41.2773V104.186ZM24.2947 104.386V99.1123H23.8947V104.386H24.2947ZM24.2947 99.1123C24.2947 97.877 24.2397 96.8598 24.128 96.0633C24.0173 95.2733 23.8479 94.6763 23.6031 94.3009L23.268 94.5194C23.4627 94.8178 23.6229 95.3414 23.7319 96.1188C23.8399 96.8897 23.8947 97.8866 23.8947 99.1123H24.2947ZM23.6031 94.3009C23.1165 93.5549 22.3103 93.1994 21.2383 93.1994V93.5994C22.2171 93.5994 22.8757 93.9178 23.268 94.5194L23.6031 94.3009ZM21.2383 93.1994C20.0595 93.1994 19.1455 93.686 18.5214 94.6533L18.8575 94.8701C19.4053 94.0211 20.1905 93.5994 21.2383 93.5994V93.1994ZM18.5189 94.6572C17.9336 95.6123 17.6545 97.0337 17.6545 98.8926H18.0545C18.0545 97.0601 18.3321 95.7276 18.86 94.8662L18.5189 94.6572ZM17.6545 98.8926C17.6545 101.277 17.9773 103.104 18.6451 104.348L18.9975 104.159C18.3762 103.001 18.0545 101.254 18.0545 98.8926H17.6545ZM18.6433 104.345C18.9688 104.981 19.5821 105.664 20.4622 106.396C21.3448 107.13 22.5081 107.924 23.9489 108.777L24.1526 108.432C22.7224 107.586 21.5786 106.805 20.718 106.089C19.8549 105.371 19.289 104.728 18.9993 104.163L18.6433 104.345ZM23.9486 108.776C28.0607 111.22 31.4077 113.442 33.9918 115.442C36.5782 117.444 38.3902 119.216 39.4422 120.758L39.7726 120.533C38.6859 118.94 36.8358 117.138 34.2367 115.126C31.6352 113.112 28.2733 110.881 24.153 108.433L23.9486 108.776ZM39.4422 120.758C41.5461 123.842 42.6154 128.845 42.6154 135.807H43.0154C43.0154 128.823 41.9461 123.719 39.7726 120.533L39.4422 120.758ZM42.6154 135.807C42.6154 140.867 42.0146 144.564 40.8348 146.923L41.1926 147.102C42.4151 144.657 43.0154 140.883 43.0154 135.807H42.6154ZM40.8339 146.925C39.6884 149.273 37.4456 151.268 34.0713 152.897L34.2451 153.257C37.6677 151.605 39.9952 149.557 41.1934 147.1L40.8339 146.925ZM34.0725 152.896C30.7057 154.493 26.7809 155.294 22.293 155.294V155.694C26.8285 155.694 30.8139 154.884 34.2439 153.258L34.0725 152.896ZM22.293 155.294C17.3668 155.294 13.1673 154.361 9.68689 152.505L9.49866 152.858C13.0495 154.752 17.3168 155.694 22.293 155.694V155.294ZM9.68751 152.505C6.23167 150.647 3.98735 148.292 2.92464 145.449L2.54996 145.589C3.65523 148.546 5.98122 150.966 9.49804 152.858L9.68751 152.505ZM2.92464 145.449C1.85297 142.581 1.31133 138.493 1.31133 133.17H0.911331C0.911331 138.511 1.45367 142.655 2.54996 145.589L2.92464 145.449ZM1.31133 133.17V128.512H0.911331V133.17H1.31133ZM1.11133 128.712H18.2939V128.312H1.11133V128.712ZM18.0939 128.512V137.169H18.4939V128.512H18.0939ZM18.0939 137.169C18.0939 138.507 18.1527 139.612 18.2716 140.481C18.3897 141.344 18.5697 141.998 18.8267 142.415L19.1674 142.206C18.9557 141.862 18.7842 141.277 18.6679 140.427C18.5524 139.582 18.4939 138.497 18.4939 137.169H18.0939ZM18.8297 142.42C19.3771 143.257 20.3182 143.653 21.5898 143.653V143.253C20.4006 143.253 19.6132 142.887 19.1645 142.201L18.8297 142.42ZM21.5898 143.653C22.8828 143.653 23.8596 143.139 24.4855 142.107L24.1434 141.899C23.5974 142.8 22.7578 143.253 21.5898 143.253V143.653ZM24.4832 142.11C25.1283 141.097 25.4373 139.616 25.4373 137.696H25.0373C25.0373 139.585 24.7311 140.976 24.1457 141.896L24.4832 142.11ZM25.4373 137.696C25.4373 135.594 25.2941 133.847 25.0046 132.459C24.7159 131.074 24.2777 130.028 23.6731 129.346L23.3738 129.611C23.9118 130.218 24.3305 131.186 24.6131 132.541C24.8949 133.892 25.0373 135.609 25.0373 137.696H25.4373ZM23.6714 129.344C22.4794 128.033 19.571 125.866 14.9759 122.851L14.7565 123.186C19.3606 126.206 22.2237 128.346 23.3754 129.613L23.6714 129.344ZM14.9767 122.852C10.3758 119.804 7.34186 117.6 5.86112 116.236L5.59005 116.53C7.0976 117.919 10.1574 120.139 14.7558 123.185L14.9767 122.852ZM5.86112 116.236C4.39385 114.884 3.16344 113.006 2.17531 110.594L1.80516 110.746C2.80922 113.197 4.06904 115.128 5.59005 116.53L5.86112 116.236ZM2.17609 110.596C1.22181 108.196 0.740036 105.118 0.740036 101.354H0.340042C0.340042 105.148 0.825066 108.281 1.80438 110.744L2.17609 110.596ZM0.740036 101.354C0.740036 95.9127 1.42889 91.9703 2.78097 89.4963L2.42997 89.3045C1.02814 91.8695 0.340042 95.8959 0.340042 101.354H0.740036ZM2.78011 89.4979C4.16191 87.0221 6.38177 85.0858 9.45555 83.6939L9.29054 83.3295C6.15339 84.7501 3.86153 86.7396 2.43083 89.3029L2.78011 89.4979ZM9.45697 83.6933C12.5298 82.2728 16.2496 81.5584 20.623 81.5584V81.1584C16.2075 81.1584 12.4273 81.8795 9.28912 83.3302L9.45697 83.6933ZM20.623 81.5584C25.407 81.5584 29.4637 82.3315 32.8001 83.8691L32.9675 83.5059C29.5656 81.938 25.4484 81.1584 20.623 81.1584V81.5584ZM32.8007 83.8694C36.174 85.4107 38.3686 87.3456 39.4255 89.6593L39.7893 89.4931C38.6783 87.0607 36.3905 85.0698 32.9669 83.5056L32.8007 83.8694ZM39.4268 89.662C40.5193 91.9622 41.0773 95.9216 41.0773 101.573H41.4773C41.4773 95.9163 40.9221 91.8777 39.7881 89.4904L39.4268 89.662ZM41.0773 101.573V104.386H41.4773V101.573H41.0773ZM65.8867 82.8525H66.0867V82.6525H65.8867V82.8525ZM65.8867 98.8486H65.6867V99.3054L66.0224 98.9956L65.8867 98.8486ZM70.8086 95.6846L70.7354 95.4985L70.7343 95.4989L70.8086 95.6846ZM84.4316 97.0029L84.3138 97.1645L84.3148 97.1652L84.4316 97.0029ZM88.4307 102.496L88.2355 102.54L88.2363 102.543L88.4307 102.496ZM89.1777 154V154.2H89.3777V154H89.1777ZM71.4238 154H71.2238V154.2H71.4238V154ZM70.8965 106.407L70.7067 106.47L70.7085 106.476L70.8965 106.407ZM65.8867 154V154.2H66.0867V154H65.8867ZM48.1328 154H47.9328V154.2H48.1328V154ZM48.1328 82.8525V82.6525H47.9328V82.8525H48.1328ZM65.6867 82.8525V98.8486H66.0867V82.8525H65.6867ZM66.0224 98.9956C67.5296 97.6043 69.1498 96.5635 70.8829 95.8703L70.7343 95.4989C68.9518 96.2119 67.2907 97.2804 65.7511 98.7017L66.0224 98.9956ZM70.8818 95.8707C72.6444 95.1772 74.5237 94.8299 76.5215 94.8299V94.4299C74.4763 94.4299 72.547 94.7857 70.7354 95.4985L70.8818 95.8707ZM76.5215 94.8299C79.5915 94.8299 82.1852 95.6112 84.3138 97.1645L84.5495 96.8414C82.3421 95.2306 79.6624 94.4299 76.5215 94.4299V94.8299ZM84.3148 97.1652C86.4834 98.7267 87.7802 100.519 88.2355 102.54L88.6258 102.452C88.1436 100.313 86.7744 98.4433 84.5485 96.8406L84.3148 97.1652ZM88.2363 102.543C88.728 104.568 88.9777 108.31 88.9777 113.79H89.3777C89.3777 108.313 89.1294 104.526 88.625 102.449L88.2363 102.543ZM88.9777 113.79V154H89.3777V113.79H88.9777ZM89.1777 153.8H71.4238V154.2H89.1777V153.8ZM71.6238 154V112.955H71.2238V154H71.6238ZM71.6238 112.955C71.6238 111.253 71.5798 109.852 71.4913 108.753C71.4033 107.659 71.27 106.849 71.0844 106.339L70.7085 106.476C70.8745 106.932 71.0049 107.696 71.0926 108.785C71.1799 109.869 71.2238 111.259 71.2238 112.955H71.6238ZM71.0862 106.344C70.9129 105.824 70.6202 105.422 70.2031 105.152C69.7885 104.883 69.2678 104.757 68.6553 104.757V105.157C69.2146 105.157 69.6534 105.272 69.9858 105.487C70.3158 105.701 70.5578 106.024 70.7067 106.47L71.0862 106.344ZM68.6553 104.757C68.0822 104.757 67.5867 104.889 67.1805 105.165C66.7741 105.442 66.4732 105.851 66.2712 106.38L66.6448 106.523C66.8237 106.055 67.0794 105.718 67.4054 105.496C67.7317 105.274 68.1443 105.157 68.6553 105.157V104.757ZM66.2712 106.38C66.071 106.903 65.9262 107.668 65.8305 108.662C65.7344 109.66 65.6867 110.901 65.6867 112.384H66.0867C66.0867 110.908 66.1342 109.681 66.2286 108.701C66.3233 107.717 66.4641 106.995 66.6448 106.523L66.2712 106.38ZM65.6867 112.384V154H66.0867V112.384H65.6867ZM65.8867 153.8H48.1328V154.2H65.8867V153.8ZM48.3328 154V82.8525H47.9328V154H48.3328ZM48.1328 83.0525H65.8867V82.6525H48.1328V83.0525ZM135.979 95.6846H136.179V95.4846H135.979V95.6846ZM135.979 154V154.2H136.179V154H135.979ZM117.918 154L117.718 153.987L117.705 154.2H117.918V154ZM118.226 149.166L118.425 149.179L118.056 149.06L118.226 149.166ZM113.655 153.604L113.75 153.78L113.751 153.78L113.655 153.604ZM96.9121 149.913L96.7352 150.007L96.7367 150.009L96.9121 149.913ZM95.374 145.079L95.1755 145.103L95.1755 145.103L95.374 145.079ZM95.0664 95.6846V95.4846H94.8664V95.6846H95.0664ZM112.82 95.6846H113.02V95.4846H112.82V95.6846ZM113.216 143.453L113.025 143.512L113.027 143.518L113.216 143.453ZM117.83 143.409L117.638 143.352L117.637 143.358L117.83 143.409ZM118.226 95.6846V95.4846H118.026V95.6846H118.226ZM135.779 95.6846V154H136.179V95.6846H135.779ZM135.979 153.8H117.918V154.2H135.979V153.8ZM118.118 154.013L118.425 149.179L118.026 149.153L117.718 153.987L118.118 154.013ZM118.056 149.06C116.842 150.997 115.342 152.451 113.559 153.429L113.751 153.78C115.601 152.765 117.149 151.261 118.395 149.272L118.056 149.06ZM113.56 153.429C111.806 154.377 109.775 154.855 107.459 154.855V155.255C109.831 155.255 111.93 154.765 113.75 153.78L113.56 153.429ZM107.459 154.855C104.815 154.855 102.638 154.39 100.917 153.472L100.729 153.825C102.524 154.782 104.771 155.255 107.459 155.255V154.855ZM100.917 153.472C99.1895 152.55 97.9162 151.331 97.0876 149.817L96.7367 150.009C97.6073 151.6 98.9414 152.871 100.729 153.825L100.917 153.472ZM97.0889 149.82C96.2795 148.287 95.7745 146.699 95.5725 145.055L95.1755 145.103C95.3837 146.799 95.9041 148.433 96.7353 150.007L97.0889 149.82ZM95.5726 145.055C95.3692 143.37 95.2664 140.027 95.2664 135.016H94.8664C94.8664 140.024 94.9687 143.39 95.1755 145.103L95.5726 145.055ZM95.2664 135.016V95.6846H94.8664V135.016H95.2664ZM95.0664 95.8846H112.82V95.4846H95.0664V95.8846ZM112.62 95.6846V135.367H113.02V95.6846H112.62ZM112.62 135.367C112.62 137.639 112.653 139.452 112.719 140.804C112.785 142.147 112.884 143.059 113.025 143.512L113.407 143.394C113.284 142.997 113.185 142.137 113.119 140.785C113.053 139.442 113.02 137.636 113.02 135.367H112.62ZM113.027 143.518C113.189 143.988 113.484 144.346 113.909 144.584C114.33 144.818 114.865 144.928 115.501 144.928V144.528C114.907 144.528 114.446 144.425 114.104 144.234C113.768 144.047 113.536 143.768 113.405 143.388L113.027 143.518ZM115.501 144.928C116.179 144.928 116.741 144.815 117.171 144.572C117.606 144.325 117.893 143.951 118.023 143.461L117.637 143.358C117.533 143.746 117.314 144.031 116.973 144.224C116.626 144.42 116.141 144.528 115.501 144.528V144.928ZM118.022 143.467C118.162 143 118.261 142.048 118.326 140.639C118.393 139.221 118.426 137.317 118.426 134.928H118.026C118.026 137.314 117.993 139.211 117.927 140.62C117.861 142.039 117.762 142.94 117.639 143.352L118.022 143.467ZM118.426 134.928V95.6846H118.026V134.928H118.426ZM118.226 95.8846H135.979V95.4846H118.226V95.8846ZM160.633 82.8525H160.833V82.6525H160.633V82.8525ZM160.633 154V154.2H160.833V154H160.633ZM142.352 154H142.152V154.2H142.352V154ZM142.352 82.8525V82.6525H142.152V82.8525H142.352ZM160.433 82.8525V154H160.833V82.8525H160.433ZM160.633 153.8H142.352V154.2H160.633V153.8ZM142.552 154V82.8525H142.152V154H142.552ZM142.352 83.0525H160.633V82.6525H142.352V83.0525ZM185.33 82.8525H185.53V82.6525H185.33V82.8525ZM185.33 92.125V92.325H185.53V92.125H185.33ZM167.049 92.125H166.849V92.325H167.049V92.125ZM167.049 82.8525V82.6525H166.849V82.8525H167.049ZM185.33 95.6846H185.53V95.4846H185.33V95.6846ZM185.33 154V154.2H185.53V154H185.33ZM167.049 154H166.849V154.2H167.049V154ZM167.049 95.6846V95.4846H166.849V95.6846H167.049ZM185.13 82.8525V92.125H185.53V82.8525H185.13ZM185.33 91.925H167.049V92.325H185.33V91.925ZM167.249 92.125V82.8525H166.849V92.125H167.249ZM167.049 83.0525H185.33V82.6525H167.049V83.0525ZM185.13 95.6846V154H185.53V95.6846H185.13ZM185.33 153.8H167.049V154.2H185.33V153.8ZM167.249 154V95.6846H166.849V154H167.249ZM167.049 95.8846H185.33V95.4846H167.049V95.8846ZM229.979 95.6846L230.17 95.7438L230.25 95.4846H229.979V95.6846ZM222.771 118.932L222.58 118.872L222.563 118.927L222.578 118.983L222.771 118.932ZM232.132 154V154.2H232.392L232.325 153.948L232.132 154ZM215.037 154L214.842 154.043L214.876 154.2H215.037V154ZM209.5 128.6L209.695 128.557L209.3 128.6H209.5ZM209.5 154V154.2H209.7V154H209.5ZM191.746 154H191.546V154.2H191.746V154ZM191.746 82.8525V82.6525H191.546V82.8525H191.746ZM209.5 82.8525H209.7V82.6525H209.5V82.8525ZM209.5 112.735H209.3L209.69 112.797L209.5 112.735ZM215.037 95.6846V95.4846H214.892L214.847 95.6228L215.037 95.6846ZM229.787 95.6254L222.58 118.872L222.963 118.991L230.17 95.7438L229.787 95.6254ZM222.578 118.983L231.939 154.052L232.325 153.948L222.965 118.88L222.578 118.983ZM232.132 153.8H215.037V154.2H232.132V153.8ZM215.233 153.957L209.695 128.557L209.305 128.642L214.842 154.043L215.233 153.957ZM209.3 128.6V154H209.7V128.6H209.3ZM209.5 153.8H191.746V154.2H209.5V153.8ZM191.946 154V82.8525H191.546V154H191.946ZM191.746 83.0525H209.5V82.6525H191.746V83.0525ZM209.3 82.8525V112.735H209.7V82.8525H209.3ZM209.69 112.797L215.227 95.7463L214.847 95.6228L209.31 112.674L209.69 112.797ZM215.037 95.8846H229.979V95.4846H215.037V95.8846ZM250.677 118.272V118.472H250.877V118.272H250.677ZM234.021 118.272H233.821V118.472H234.021V118.272ZM235.56 103.946L235.376 103.868L235.375 103.869L235.56 103.946ZM267.64 97.8379L267.525 98.0016L267.526 98.0023L267.64 97.8379ZM273.133 105.66L272.937 105.699L272.937 105.699L273.133 105.66ZM274.056 154V154.2H274.256V154H274.056ZM256.785 154H256.585V154.2H256.785V154ZM256.785 148.814H256.985L256.608 148.722L256.785 148.814ZM252.566 153.517L252.67 153.688L252.671 153.687L252.566 153.517ZM237.889 152.462L237.776 152.627L237.778 152.629L237.889 152.462ZM246.326 121.744L246.398 121.931L246.399 121.93L246.326 121.744ZM255.599 106.363L255.417 106.448L255.421 106.455L255.599 106.363ZM251.116 106.144L251.303 106.215L251.304 106.213L251.116 106.144ZM256.302 126.271H256.502V125.876L256.184 126.109L256.302 126.271ZM251.336 131.5L251.146 131.437L251.145 131.44L251.336 131.5ZM251.248 143.409L251.064 143.489L251.067 143.494L251.248 143.409ZM255.774 143.717L255.595 143.627L255.594 143.631L255.774 143.717ZM250.677 118.072H234.021V118.472H250.677V118.072ZM234.221 118.272V114.361H233.821V118.272H234.221ZM234.221 114.361C234.221 109.86 234.734 106.42 235.744 104.024L235.375 103.869C234.335 106.336 233.821 109.839 233.821 114.361H234.221ZM235.743 104.025C236.776 101.615 238.835 99.4751 241.946 97.614L241.741 97.2707C238.583 99.1596 236.452 101.356 235.376 103.868L235.743 104.025ZM241.946 97.614C245.041 95.7632 249.074 94.8299 254.061 94.8299V94.4299C249.028 94.4299 244.916 95.3715 241.741 97.2707L241.946 97.614ZM254.061 94.8299C260.048 94.8299 264.526 95.897 267.525 98.0016L267.755 97.6742C264.659 95.5014 260.084 94.4299 254.061 94.4299V94.8299ZM267.526 98.0023C270.538 100.088 272.333 102.653 272.937 105.699L273.329 105.621C272.702 102.456 270.835 99.807 267.753 97.6735L267.526 98.0023ZM272.937 105.699C273.547 108.753 273.856 115.09 273.856 124.732H274.256C274.256 115.097 273.949 108.72 273.329 105.621L272.937 105.699ZM273.856 124.732V154H274.256V124.732H273.856ZM274.056 153.8H256.785V154.2H274.056V153.8ZM256.985 154V148.814H256.585V154H256.985ZM256.608 148.722C255.538 150.775 254.155 152.313 252.462 153.346L252.671 153.687C254.435 152.611 255.864 151.014 256.963 148.907L256.608 148.722ZM252.463 153.345C250.801 154.349 248.802 154.855 246.458 154.855V155.255C248.86 155.255 250.934 154.735 252.67 153.688L252.463 153.345ZM246.458 154.855C243.392 154.855 240.574 154.002 237.999 152.295L237.778 152.629C240.418 154.379 243.313 155.255 246.458 155.255V154.855ZM238.001 152.297C235.512 150.599 234.221 146.87 234.221 140.992H233.821C233.821 146.891 235.109 150.809 237.776 152.627L238.001 152.297ZM234.221 140.992V136.202H233.821V140.992H234.221ZM234.221 136.202C234.221 131.842 234.913 128.935 236.238 127.413L235.936 127.15C234.507 128.791 233.821 131.832 233.821 136.202H234.221ZM236.238 127.413C236.902 126.649 238.074 125.806 239.775 124.886C241.471 123.969 243.678 122.984 246.398 121.931L246.254 121.558C243.525 122.614 241.301 123.606 239.584 124.535C237.871 125.461 236.648 126.331 235.936 127.15L236.238 127.413ZM246.399 121.93C249.316 120.787 251.56 119.829 253.127 119.056C253.911 118.67 254.53 118.328 254.981 118.03C255.207 117.881 255.394 117.741 255.539 117.61C255.683 117.481 255.797 117.352 255.864 117.222L255.509 117.038C255.474 117.106 255.4 117.198 255.272 117.313C255.146 117.426 254.976 117.554 254.761 117.696C254.329 117.981 253.727 118.314 252.95 118.697C251.398 119.463 249.166 120.416 246.253 121.558L246.399 121.93ZM255.864 117.222C256.085 116.795 256.243 116.166 256.346 115.353C256.45 114.536 256.502 113.516 256.502 112.296H256.102C256.102 113.507 256.051 114.509 255.95 115.303C255.848 116.101 255.698 116.674 255.509 117.038L255.864 117.222ZM256.502 112.296C256.502 110.768 256.443 109.504 256.325 108.504C256.207 107.51 256.028 106.759 255.776 106.272L255.421 106.455C255.638 106.876 255.811 107.568 255.927 108.551C256.043 109.529 256.102 110.777 256.102 112.296H256.502ZM255.78 106.278C255.547 105.781 255.226 105.397 254.815 105.139C254.404 104.881 253.915 104.757 253.357 104.757V105.157C253.855 105.157 254.267 105.267 254.602 105.478C254.938 105.689 255.211 106.008 255.418 106.448L255.78 106.278ZM253.357 104.757C252.737 104.757 252.215 104.859 251.803 105.077C251.386 105.298 251.092 105.632 250.929 106.074L251.304 106.213C251.433 105.864 251.66 105.605 251.99 105.43C252.325 105.253 252.777 105.157 253.357 105.157V104.757ZM250.93 106.072C250.771 106.483 250.66 107.203 250.587 108.205C250.513 109.216 250.477 110.536 250.477 112.164H250.877C250.877 110.54 250.913 109.231 250.986 108.235C251.059 107.23 251.168 106.565 251.303 106.215L250.93 106.072ZM250.477 112.164V118.272H250.877V112.164H250.477ZM256.184 126.109C254.757 127.153 253.623 128.117 252.784 129C251.947 129.881 251.394 130.694 251.146 131.437L251.526 131.563C251.747 130.9 252.255 130.138 253.074 129.276C253.891 128.416 255.005 127.468 256.42 126.432L256.184 126.109ZM251.145 131.44C250.697 132.875 250.477 134.921 250.477 137.564H250.877C250.877 134.935 251.096 132.937 251.527 131.56L251.145 131.44ZM250.477 137.564C250.477 139.077 250.524 140.325 250.621 141.308C250.716 142.286 250.861 143.019 251.065 143.489L251.432 143.33C251.254 142.92 251.113 142.24 251.019 141.269C250.924 140.304 250.877 139.07 250.877 137.564H250.477ZM251.067 143.494C251.288 143.969 251.617 144.331 252.052 144.573C252.485 144.813 253.011 144.928 253.621 144.928V144.528C253.059 144.528 252.604 144.422 252.246 144.223C251.89 144.025 251.618 143.729 251.429 143.325L251.067 143.494ZM253.621 144.928C254.769 144.928 255.584 144.578 255.955 143.803L255.594 143.631C255.32 144.203 254.7 144.528 253.621 144.528V144.928ZM255.953 143.806C256.147 143.418 256.281 142.755 256.369 141.846C256.458 140.929 256.502 139.736 256.502 138.268H256.102C256.102 139.729 256.058 140.909 255.971 141.808C255.883 142.715 255.753 143.312 255.596 143.627L255.953 143.806ZM256.502 138.268V126.271H256.102V138.268H256.502Z" fill="#7DA3E5"/>
</svg>
