<svg width="24" height="24" viewBox="0 0 24 24" fill="none" xmlns="http://www.w3.org/2000/svg">
<path d="M2.85714 0C1.28547 0 0 1.24387 0 2.76468V20.4586C0 21.9794 1.28547 23.2233 2.85714 23.2233H21.1429C22.7145 23.2233 24 21.9794 24 20.4586V2.76468C24 1.24387 22.7145 0 21.1429 0H2.85714ZM2.85714 1.10587H21.1429C22.098 1.10587 22.8571 1.8404 22.8571 2.76468V20.4586C22.8571 21.3829 22.098 22.1174 21.1429 22.1174H2.85714C1.90196 22.1174 1.14286 21.3829 1.14286 20.4586V2.76468C1.14286 1.8404 1.90196 1.10587 2.85714 1.10587ZM12.596 3.31761C12.4446 3.31763 12.2995 3.37574 12.1923 3.4792C12.0852 3.58266 12.0249 3.72301 12.0246 3.86947C12.0246 3.86947 12.0183 6.56515 12.0123 9.26707C12.0092 10.618 12.0056 11.9704 12.0033 12.9886C12.0011 14.0068 12 14.651 12 14.7046C12 15.7084 11.058 16.5287 9.98438 16.5287C8.91935 16.5287 8.0692 15.705 8.0692 14.6744C8.0692 13.6438 8.91935 12.8212 9.98438 12.8212C10.0205 12.8212 10.0932 12.8327 10.2176 12.8471C10.2979 12.8564 10.3793 12.8492 10.4565 12.8258C10.5336 12.8024 10.6048 12.7634 10.6652 12.7115C10.7256 12.6595 10.774 12.5958 10.8071 12.5244C10.8402 12.453 10.8572 12.3756 10.8571 12.2974V9.97444C10.8571 9.83378 10.8017 9.69841 10.7022 9.59589C10.6027 9.49336 10.4665 9.43139 10.3214 9.42259C10.2324 9.41717 10.1203 9.40639 9.98438 9.40639C6.98465 9.40639 4.54018 11.7717 4.54018 14.6744C4.54018 17.577 6.98465 19.9424 9.98438 19.9424C12.984 19.9424 15.4286 17.577 15.4286 14.6744V9.67098C16.2598 10.3143 17.2957 10.7218 18.4397 10.7218C18.5958 10.7218 18.7442 10.7128 18.8862 10.7002C19.0281 10.6875 19.1599 10.624 19.256 10.5221C19.352 10.4202 19.4052 10.2873 19.4051 10.1494V7.56723C19.4052 7.42744 19.3506 7.2928 19.2522 7.19042C19.1539 7.08803 19.0191 7.02549 18.875 7.01537C17.0781 6.89062 15.6456 5.53611 15.4587 3.81331C15.4441 3.67736 15.3779 3.55147 15.273 3.45993C15.1681 3.36839 15.0319 3.31769 14.8906 3.31761H12.596ZM13.1663 4.42349H14.4699C14.8852 6.24745 16.3581 7.63848 18.2623 7.98733V9.57162C17.0401 9.51156 15.9666 8.92159 15.3348 7.99165C15.2672 7.89213 15.1683 7.81637 15.0526 7.77565C14.937 7.73492 14.8109 7.73141 14.693 7.76563C14.5751 7.79985 14.4718 7.86997 14.3984 7.96556C14.325 8.06116 14.2855 8.17712 14.2857 8.2962V14.6744C14.2857 16.9793 12.3664 18.8365 9.98438 18.8365C7.60239 18.8365 5.68304 16.9793 5.68304 14.6744C5.68304 12.4624 7.46633 10.7066 9.71429 10.5652V11.7682C8.16367 11.9079 6.92634 13.139 6.92634 14.6744C6.92634 16.3024 8.30197 17.6345 9.98438 17.6345C11.6582 17.6345 13.1429 16.3594 13.1429 14.7046C13.1429 14.7317 13.1439 14.0089 13.1462 12.9907C13.1484 11.9726 13.1521 10.6202 13.1551 9.26923C13.1605 6.84356 13.1652 4.89304 13.1663 4.42349Z" fill="#AAAAAA"/>
</svg>
