<svg width="24" height="24" viewBox="0 0 24 24" fill="none" xmlns="http://www.w3.org/2000/svg">
<path d="M23.5002 11.7213C23.5002 17.9183 18.4759 22.9426 12.2789 22.9426C6.08198 22.9426 1.05762 17.9183 1.05762 11.7213C1.05762 5.52436 6.08198 0.5 12.2789 0.5C18.4759 0.5 23.5002 5.52436 23.5002 11.7213Z" stroke="#AAAAAA"/>
<path d="M9.95681 14.1032C9.27896 14.0904 8.66707 13.7458 8.27493 13.2081C8.45369 13.1898 8.62839 13.1561 8.79717 13.1082L8.7635 12.1379C8.0115 11.9798 7.38735 11.4061 7.13816 10.642C7.32427 10.6843 7.51665 10.7097 7.71363 10.7164L9.40449 10.7734L8.01629 9.80638C7.43338 9.40032 7.04407 8.70282 7.04407 7.90419C7.04407 7.75627 7.05738 7.61191 7.0828 7.47224C8.45202 8.88807 10.3092 9.80073 12.3761 9.90893L13.0341 9.94337L12.8901 9.30035C12.8525 9.13202 12.8323 8.9566 12.8323 8.77664C12.8323 7.49989 13.8216 6.5 15 6.5C15.6166 6.5 16.1773 6.76982 16.5747 7.21122L16.7663 7.424L17.0468 7.36647C17.1007 7.3554 17.1545 7.34356 17.2079 7.33097L17.5233 8.21935C17.4727 8.26064 17.4214 8.30088 17.3693 8.34001L17.1611 8.49652L17.17 8.75686C17.174 8.8722 17.1768 8.98722 17.1768 9.09945C17.1768 12.5737 14.643 16.5 10.0881 16.5C9.33099 16.5 8.60206 16.3757 7.91837 16.1454C8.78966 15.9443 9.58736 15.5427 10.2636 14.9904L11.3181 14.1291L9.95681 14.1032Z" fill="#AAAAAA" stroke="#AAAAAA"/>
</svg>
