<svg width="336" height="89" viewBox="0 0 336 89" fill="none" xmlns="http://www.w3.org/2000/svg">
<path d="M74.0898 1.33594V52.8984C74.0898 60.0859 72.7227 66.3359 69.9883 71.6484C67.2539 76.9219 63.1523 81.0039 57.6836 83.8945C52.2148 86.7461 45.3594 88.1719 37.1172 88.1719C25.3203 88.1719 16.3164 85.1445 10.1055 79.0898C3.89453 73.0352 0.789062 64.4805 0.789062 53.4258V1.33594H24.0508V51.6094C24.0508 57.6641 25.1836 62.0586 27.4492 64.793C29.7148 67.5273 33.0547 68.8945 37.4688 68.8945C40.6328 68.8945 43.2109 68.3086 45.2031 67.1367C47.1953 65.9258 48.6406 64.0312 49.5391 61.4531C50.4766 58.875 50.9453 55.5547 50.9453 51.4922V1.33594H74.0898Z" fill="#FFD564"/>
<path d="M153.037 87L148.818 70.9453H120.986L116.65 87H91.2203L119.17 0.984375H150.048L178.349 87H153.037ZM144.013 51.9609L140.322 37.8984C139.931 36.375 139.365 34.207 138.623 31.3945C137.88 28.543 137.138 25.6133 136.396 22.6055C135.693 19.5586 135.146 17.0586 134.755 15.1055C134.404 17.0586 133.896 19.4805 133.232 22.3711C132.607 25.2227 131.943 28.0547 131.24 30.8672C130.576 33.6797 129.99 36.0234 129.482 37.8984L125.791 51.9609H144.013Z" fill="#FFD564"/>
<path d="M270.07 1.33594L242.003 87H214.757L186.808 1.33594H212.823L224.484 44.7539C224.913 46.3945 225.402 48.5039 225.948 51.082C226.534 53.6211 227.062 56.1602 227.53 58.6992C228.038 61.2383 228.351 63.3086 228.468 64.9102C228.624 63.3086 228.917 61.2578 229.347 58.7578C229.777 56.2578 230.245 53.7578 230.753 51.2578C231.3 48.7188 231.808 46.6289 232.277 44.9883L244.171 1.33594H270.07Z" fill="#FFD564"/>
<path d="M335.774 66.6094C335.774 70.8281 334.837 74.5586 332.962 77.8008C331.087 81.043 328.079 83.582 323.938 85.418C319.837 87.2539 314.427 88.1719 307.708 88.1719C302.981 88.1719 298.743 87.918 294.993 87.4102C291.282 86.9023 287.513 85.9258 283.684 84.4805V66.1406C287.864 68.0547 292.122 69.4414 296.458 70.3008C300.794 71.1211 304.212 71.5312 306.712 71.5312C309.29 71.5312 311.165 71.2578 312.337 70.7109C313.548 70.125 314.153 69.2656 314.153 68.1328C314.153 67.1562 313.743 66.3359 312.923 65.6719C312.141 64.9688 310.716 64.168 308.645 63.2695C306.614 62.3711 303.743 61.1602 300.032 59.6367C296.36 58.1133 293.294 56.4531 290.833 54.6562C288.411 52.8594 286.595 50.7109 285.384 48.2109C284.173 45.7109 283.567 42.6445 283.567 39.0117C283.567 32.5273 286.067 27.6445 291.067 24.3633C296.067 21.082 302.688 19.4414 310.93 19.4414C315.305 19.4414 319.427 19.9297 323.294 20.9062C327.161 21.8438 331.165 23.2305 335.305 25.0664L329.036 39.832C325.755 38.3477 322.434 37.1562 319.075 36.2578C315.716 35.3594 313.04 34.9102 311.048 34.9102C309.251 34.9102 307.864 35.1445 306.888 35.6133C305.911 36.082 305.423 36.7656 305.423 37.6641C305.423 38.4844 305.755 39.207 306.419 39.832C307.122 40.457 308.43 41.1797 310.345 42C312.259 42.8203 315.052 43.9727 318.723 45.457C322.591 47.0195 325.774 48.6992 328.274 50.4961C330.813 52.2539 332.688 54.4023 333.899 56.9414C335.149 59.4805 335.774 62.7031 335.774 66.6094Z" fill="#FFD564"/>
<path d="M102 39H131V52H102V39Z" fill="#01030D"/>
<path d="M0 39H26V52H0V39Z" fill="#01030D"/>
<path d="M224 87V39H233V87H224Z" fill="#01030D"/>
</svg>
