<svg width="28" height="23" viewBox="0 0 28 23" fill="none" xmlns="http://www.w3.org/2000/svg">
<path d="M26.9309 3.2684L26.931 3.26863C27.2076 4.32847 27.3537 6.36232 27.4273 8.18233C27.4636 9.0815 27.4818 9.91155 27.4909 10.517C27.4955 10.8196 27.4977 11.0658 27.4989 11.2362C27.4994 11.3214 27.4997 11.3876 27.4999 11.4324L27.5 11.4832L27.5 11.4959L27.5 11.4991V11.4998V11.5L28 11.5L27.5 11.5V11.5002V11.5009L27.5 11.5041L27.5 11.5168L27.4999 11.5676C27.4997 11.6124 27.4994 11.6786 27.4989 11.7638C27.4977 11.9342 27.4955 12.1804 27.4909 12.483C27.4818 13.0884 27.4636 13.9185 27.4273 14.8177C27.3537 16.6377 27.2076 18.6715 26.931 19.7314L26.9309 19.7316C26.6527 20.8 25.8351 21.635 24.8073 21.9169L24.807 21.917C24.3141 22.0526 23.4034 22.1631 22.2716 22.2479C21.1541 22.3316 19.8631 22.3877 18.6356 22.4251C17.4088 22.4625 16.2496 22.4813 15.3967 22.4906C14.9704 22.4953 14.6209 22.4977 14.3781 22.4988C14.2567 22.4994 14.162 22.4997 14.0977 22.4999L14.0246 22.5L14.0061 22.5L14.0015 22.5H14.0003H14.0001L14 23L13.9999 22.5H13.9997H13.9985L13.9939 22.5L13.9754 22.5L13.9023 22.4999C13.838 22.4997 13.7433 22.4994 13.6219 22.4988C13.3791 22.4977 13.0296 22.4953 12.6033 22.4906C11.7504 22.4813 10.5912 22.4625 9.36445 22.4251C8.1369 22.3877 6.84593 22.3316 5.72844 22.2479C4.59658 22.1631 3.68588 22.0526 3.19303 21.917L3.1928 21.917C2.16608 21.635 1.34729 20.7998 1.06906 19.7316L1.069 19.7314C0.792423 18.6715 0.646333 16.6377 0.572742 14.8177C0.536384 13.9185 0.518187 13.0884 0.509087 12.483C0.504539 12.1804 0.502267 11.9342 0.501132 11.7638C0.500565 11.6786 0.500282 11.6124 0.50014 11.5676L0.500017 11.5168L0.500002 11.5041L0.5 11.5009L0.5 11.5002V11.5L0 11.5L0.5 11.5V11.4998L0.5 11.4991L0.500002 11.4959L0.500017 11.4832L0.50014 11.4324C0.500282 11.3876 0.500565 11.3214 0.501132 11.2362C0.502267 11.0658 0.504539 10.8196 0.509087 10.517C0.518187 9.91155 0.536384 9.0815 0.572742 8.18233C0.646333 6.36232 0.792423 4.32847 1.069 3.26863L1.06906 3.2684C1.34729 2.2002 2.16608 1.36497 3.1928 1.08303L3.19303 1.08296C3.68588 0.947368 4.59658 0.836887 5.72844 0.752097C6.84593 0.668384 8.1369 0.612328 9.36445 0.574877C10.5912 0.537451 11.7504 0.518724 12.6033 0.509359C13.0296 0.504677 13.3791 0.502337 13.6219 0.501168C13.7433 0.500583 13.838 0.500291 13.9023 0.500145L13.9754 0.500018L13.9939 0.500002L13.9985 0.5L13.9997 0.5L13.9999 0.5L14 0L14.0001 0.5L14.0003 0.5L14.0015 0.5L14.0061 0.500002L14.0246 0.500018L14.0977 0.500145C14.162 0.500291 14.2567 0.500583 14.3781 0.501168C14.6209 0.502337 14.9704 0.504677 15.3967 0.509359C16.2495 0.518724 17.4088 0.537451 18.6356 0.574877C19.8631 0.612328 21.1541 0.668384 22.2716 0.752097C23.4034 0.836887 24.3141 0.947368 24.807 1.08296L24.8072 1.08303C25.8339 1.36497 26.6527 2.2002 26.9309 3.2684ZM12.505 6.71283L12.5047 6.71268C11.6862 6.22811 10.7 6.8469 10.7 7.76538V15.2346C10.7 16.1511 11.6851 16.7751 12.5057 16.2867L18.8047 12.5527C18.8048 12.5527 18.8048 12.5526 18.8049 12.5526C18.8049 12.5526 18.8049 12.5526 18.805 12.5525C19.5979 12.0829 19.5979 10.9171 18.805 10.4475C18.8049 10.4474 18.8049 10.4474 18.8049 10.4474C18.8048 10.4474 18.8048 10.4473 18.8047 10.4473L12.505 6.71283Z" stroke="#AAAAAA"/>
</svg>
