<svg width="70" height="70" viewBox="0 0 70 70" fill="none" xmlns="http://www.w3.org/2000/svg">
<g filter="url(#filter0_d_1_1164)">
<circle cx="35" cy="35" r="15" fill="#B01702"/>
</g>
<path d="M37.3568 32.7937L31.6381 29.732C31.3409 29.573 31.0187 29.5648 30.7397 29.6665L35.6118 34.5386L37.3568 32.7937Z" fill="#D9D4D4"/>
<path d="M39.4893 33.9354L37.8421 33.0535L35.9844 34.9112L37.8421 36.7689L39.4893 35.887C40.2685 35.4698 40.2685 34.3526 39.4893 33.9354Z" fill="#D9D4D4"/>
<path d="M30.2937 29.9657C30.1189 30.1577 30.0088 30.4141 30.0088 30.7078V39.1146C30.0088 39.4084 30.1189 39.6648 30.2936 39.8568L35.2392 34.9112L30.2937 29.9657Z" fill="#D9D4D4"/>
<path d="M30.7397 40.1559C31.0186 40.2576 31.3409 40.2495 31.6381 40.0904L37.3568 37.0287L35.6119 35.2838L30.7397 40.1559Z" fill="#D9D4D4"/>
<defs>
<filter id="filter0_d_1_1164" x="0" y="0" width="70" height="70" filterUnits="userSpaceOnUse" color-interpolation-filters="sRGB">
<feFlood flood-opacity="0" result="BackgroundImageFix"/>
<feColorMatrix in="SourceAlpha" type="matrix" values="0 0 0 0 0 0 0 0 0 0 0 0 0 0 0 0 0 0 127 0" result="hardAlpha"/>
<feOffset/>
<feGaussianBlur stdDeviation="10"/>
<feColorMatrix type="matrix" values="0 0 0 0 1 0 0 0 0 0.495833 0 0 0 0 0.495833 0 0 0 0.4 0"/>
<feBlend mode="normal" in2="BackgroundImageFix" result="effect1_dropShadow_1_1164"/>
<feBlend mode="normal" in="SourceGraphic" in2="effect1_dropShadow_1_1164" result="shape"/>
</filter>
</defs>
</svg>
